<?xml version="1.0" encoding="UTF-8"?><svg id="Layer_2" xmlns="http://www.w3.org/2000/svg" xmlns:xlink="http://www.w3.org/1999/xlink" viewBox="0 0 1273.01 364.84"><defs><style>.cls-1{fill:url(#linear-gradient-2);}.cls-2{fill:#f2f2f2;font-family:OraqleScript, 'Oraqle Script';font-size:300px;}.cls-3{letter-spacing:-.02em;}.cls-4{fill:url(#linear-gradient);}.cls-5{letter-spacing:-.06em;}</style><linearGradient id="linear-gradient" x1="-.42" y1="167.61" x2="357.55" y2="167.61" gradientTransform="translate(66.99 -40.79) rotate(17.79)" gradientUnits="userSpaceOnUse"><stop offset=".01" stop-color="#9800bf"/><stop offset="1" stop-color="#7f0058"/></linearGradient><linearGradient id="linear-gradient-2" x1="109.51" y1="81.64" x2="148.51" y2="81.64" gradientTransform="translate(66.99 -40.79) rotate(17.79)" gradientUnits="userSpaceOnUse"><stop offset=".01" stop-color="#9800bf"/><stop offset="1" stop-color="#7f0058"/></linearGradient></defs><g id="Layer_1-2"><path class="cls-4" d="M60.01,30.1c6.7-4.28,17.42-10.55,31.44-16.17,16.56-6.64,66.22-22.34,113.44-8.24,29.9,8.92,32.24,20.66,74.38,33.31,19.29,5.79,19.76,2.84,41.21,9.02,5.13,1.48,72.22,21.2,70.34,39.37-.08,.82-.3,1.53-2.78,5.41-9.67,15.08-16.78,20.42-22.76,28.4-2.3,3.07-11.15,15.81-12.6,32.72-.63,7.34,.65,9.68,2.14,21.16,.3,2.36,3.17,25.32,.84,46.48-2.16,19.67-8.44,33.95-11.86,41.88-5.54,12.87-15.91,36.21-39.79,56.2-4.49,3.76-17.19,13.87-35,21-42.1,16.85-92.74,10.07-130-13-17.69-10.95-47.47-28.69-57-61-3.32-11.25-3.98-36.13-17-44-6.72-4.06-13-5-13-5-8.81-1.31-15.2,1.68-16,0-1.14-2.39,12.19-7.46,11.82-14.5-.31-5.99-10.5-10.2-17.82-16.5-.56-.48-3.22-2.49-6.6-5.02,0,0,0,0,0,0-2.9-2.06-5.19-3.5-6.39-4.25C4.05,169.25-.25,167.79,.01,166.64c.54-2.42,21.11-3.38,41.87,4.33,6.72,2.5,24.4,9.93,44.66,31.56,17.83,19.04,21.37,32.72,30.47,45.11,30.28,41.25,101.2,69.4,150,44,28.94-15.07,40.74-45.28,43.93-53.44,13.43-34.39,4.91-64.98-.66-86.33-10.61-40.63-35.77-76.91-42.27-74.47-1.31,.49-1.33,2.36-2.44,7.62,0,0-2.49,11.74-10.73,30.17-9.72,21.74-35.42,34.36-37.59,32.05-1.31-1.4,6.25-7.99,12.74-20.07,3.11-5.79,16.66-31.38,9.52-52.61-8.47-25.21-42.35-32.88-57.65-36.35-33.68-7.63-78.08-2.47-83.94,16.13-1.07,3.39-.58,6.36,.11,9.49,7.65,34.67,31.82,59.3,33.9,61.28,13.48,12.85,26.72,19.86,53.2,33.87,21.11,11.17,24.69,11.25,43.26,22.28,32.59,19.34,39.06,29.85,42.17,37.16,5.66,13.27,4.26,25.45,3.81,29.05-2.29,18.06-13.11,32.67-15.45,31.8-1.23-.46,.37-5.45,1.35-20.57,.85-13.18,.81-15.63,.43-17.71-1.68-9.29-6.61-15.64-8.43-17.93-3.65-4.59-8.42-8.67-23.27-15.87-15.67-7.6-27.33-11.39-27.33-11.39-22.62-7.46-47.6-16.19-53.02-18.06-45.41-15.66-71.29-59.99-72.49-62.11-19.66-34.67-18.03-69.53-16.15-85.52Z"/><circle class="cls-1" cx="164.9" cy="76.35" r="19.5"/><text class="cls-2" transform="translate(399.21 272.74)"><tspan class="cls-5" x="0" y="0">Z</tspan><tspan x="145.2" y="0">e</tspan><tspan class="cls-3" x="220.8" y="0">b</tspan><tspan x="299.4" y="0">raf</tspan><tspan class="cls-3" x="525.89" y="0">i</tspan><tspan x="569.69" y="0">sh</tspan></text></g></svg>