<?xml version="1.0" encoding="UTF-8"?><svg id="Layer_2" xmlns="http://www.w3.org/2000/svg" xmlns:xlink="http://www.w3.org/1999/xlink" viewBox="0 0 1298.52 385.9"><defs><style>.cls-1{fill:url(#linear-gradient-2);}.cls-2{letter-spacing:-.02em;}.cls-3{fill:url(#linear-gradient);}.cls-4{fill:#333;font-family:OraqleScript, 'Oraqle Script';font-size:300px;}.cls-5{letter-spacing:-.06em;}</style><linearGradient id="linear-gradient" x1="-4.31" y1="193.67" x2="383.01" y2="193.67" gradientTransform="translate(68.21 -48.58) rotate(17.79)" gradientUnits="userSpaceOnUse"><stop offset=".01" stop-color="#9800bf"/><stop offset="1" stop-color="#7f0058"/></linearGradient><linearGradient id="linear-gradient-2" x1="135.02" y1="81.64" x2="174.02" y2="81.64" gradientTransform="translate(68.21 -48.58) rotate(17.79)" gradientUnits="userSpaceOnUse"><stop offset=".01" stop-color="#9800bf"/><stop offset="1" stop-color="#7f0058"/></linearGradient></defs><g id="Layer_1-2"><path class="cls-3" d="M85.52,30.1c6.7-4.28,17.42-10.55,31.44-16.17,16.56-6.64,66.22-22.34,113.44-8.24,29.9,8.92,32.24,20.66,74.38,33.31,19.29,5.79,19.76,2.84,41.21,9.02,5.13,1.48,72.22,21.2,70.34,39.37-.08,.82-.3,1.53-2.78,5.41-9.67,15.08-16.78,20.42-22.76,28.4-2.3,3.07-11.15,15.81-12.6,32.72-.63,7.34,.65,9.68,2.14,21.16,.3,2.36,3.17,25.32,.84,46.48-1.99,18.06-7.36,31.14-11.86,41.88-4.44,10.6-19.51,46.01-53.54,75.24-63.16,54.26-139.93,47.24-146.21,46.56-6.15-.66-89.27-10.95-136.6-81.63C-19.8,224.81,5.2,120.55,10.96,120.13c1.4-.1,1.55,5.91,7.56,25.53,5.57,18.2,34.23,82.79,39.18,80.83,1.35-.53-.57-5.42,2.7-13.31,1.54-3.73,4.49-8.08,5.61-7.65,1.09,.42-.63,5.04-.5,11.39,.12,6.11,1.91,11.17,3.65,14.82,2.73,5.75,6.87,13.5,12.9,21.99,3.23,4.55,17.97,24.78,45.38,41.86,39.88,24.85,79.26,26.18,95.17,25.8,6.62-.16,16.86-.45,30-3.5,11.46-2.66,48.84-11.33,70.03-43.17,7.86-11.81,10.25-22.06,13.82-36.53,9.8-39.68,2.86-72.84-.66-86.33-10.61-40.63-35.77-76.91-42.27-74.47-1.31,.49-1.33,2.36-2.44,7.62,0,0-2.49,11.74-10.73,30.17-9.72,21.74-35.42,34.36-37.59,32.05-1.31-1.4,6.25-7.99,12.74-20.07,3.11-5.79,16.66-31.38,9.52-52.61-8.47-25.21-42.35-32.88-57.65-36.35-33.68-7.63-78.08-2.47-83.94,16.13-1.07,3.39-.58,6.36,.11,9.49,7.65,34.67,31.82,59.3,33.9,61.28,13.48,12.85,26.72,19.86,53.2,33.87,21.11,11.17,24.69,11.25,43.26,22.28,32.59,19.34,39.06,29.85,42.17,37.16,5.66,13.27,4.26,25.45,3.81,29.05-2.29,18.06-13.11,32.67-15.45,31.8-1.23-.46,.37-5.45,1.35-20.57,.85-13.18,.81-15.63,.43-17.71-1.68-9.29-6.61-15.64-8.43-17.93-3.65-4.59-8.42-8.67-23.27-15.87-15.67-7.6-27.33-11.39-27.33-11.39-22.62-7.46-47.6-16.19-53.02-18.06-45.41-15.66-71.29-59.99-72.49-62.11-19.66-34.67-18.03-69.53-16.15-85.52Z"/><circle class="cls-1" cx="190.41" cy="76.35" r="19.5"/><text class="cls-4" transform="translate(424.72 272.74)"><tspan class="cls-5" x="0" y="0">Z</tspan><tspan x="145.2" y="0">e</tspan><tspan class="cls-2" x="220.8" y="0">b</tspan><tspan x="299.4" y="0">raf</tspan><tspan class="cls-2" x="525.89" y="0">i</tspan><tspan x="569.69" y="0">sh</tspan></text></g></svg>