<?xml version="1.0" encoding="UTF-8"?><svg id="Layer_2" xmlns="http://www.w3.org/2000/svg" xmlns:xlink="http://www.w3.org/1999/xlink" viewBox="0 0 1336.26 507.32"><defs><style>.cls-1{letter-spacing:-.04em;}.cls-2{fill:#c1272d;stroke:#c1272d;stroke-miterlimit:10;}.cls-3{fill:url(#linear-gradient);}.cls-4{font-family:Agenda-Medium, Agenda;font-size:200px;}</style><linearGradient id="linear-gradient" x1="0" y1="191.56" x2="387.32" y2="191.56" gradientUnits="userSpaceOnUse"><stop offset="0" stop-color="#f15a24"/><stop offset="1" stop-color="#c1272d"/></linearGradient></defs><g id="Layer_1-2"><path class="cls-3" d="M44.83,67.53c5.07-6.12,13.37-15.37,25-25C83.57,31.15,126.06,1.03,175.33,.03c31.19-.64,37.01,9.83,81,9,20.13-.38,19.68-3.33,42-4,5.33-.16,75.24-1.88,79,16,.17,.81,.18,1.55-1,6-4.6,17.31-9.74,24.57-13,34-1.25,3.62-5.79,18.46-2,35,1.65,7.18,3.58,9.02,8.5,19.5,1.01,2.15,10.76,23.14,15,44,3.62,17.8,2.51,31.9,1.5,43.5-.99,11.45-4.52,49.76-28,88-43.57,70.96-118.81,87.72-125,89-6.05,1.25-88.35,16.85-155-36C4.01,285.1-4.03,178.19,1.33,176.03c1.3-.52,3.28,5.15,15,22,24.41,35.1,56.38,68.8,62,65,1.34-.9,.35-3.36,0-8-2.05-27.05,22.86-55.71,30-53,2.62,.99,2.79,6.17,3,9,2.64,34.79,39.25,66.73,43,70,27.89,24.33,71.35,32.96,110,22,34.89-9.89,70.81-37.15,81-75,3.72-13.83,2.95-25.12,2-39-2.79-40.77-19.52-70.23-27-82-22.52-35.44-57.55-62.31-63-58-1.1,.87-.55,2.65,0,8,0,0,1.22,11.94-1,32-2.62,23.67-23.23,43.54-26,42-1.68-.93,3.51-9.52,6-23,1.19-6.47,6.27-34.97-7-53-15.77-21.42-50.37-18.38-66-17-34.4,3.03-75.1,21.5-75,41,.02,3.56,1.39,6.24,3,9,17.88,30.67,48.41,46.75,51,48,16.76,8.12,31.51,10.75,61,16,23.51,4.19,26.94,3.18,48,8,36.94,8.46,46.31,16.5,51.5,22.5,9.44,10.91,11.83,22.93,12.5,26.5,3.34,17.9-2.5,35.11-5,35-1.31-.06-1.31-5.3-5-20-3.22-12.81-4-15.13-5-17-4.44-8.33-11.07-12.87-13.5-14.5-4.87-3.26-10.67-5.68-27-8-17.24-2.45-29.5-2.5-29.5-2.5-23.81-.19-50.27-.88-56-1-48.02-1.04-86.2-35.34-88-37-29.31-27.01-38.41-60.69-41.5-76.5Z"/><circle class="cls-2" cx="158.83" cy="79.53" r="19.5"/><text class="cls-4" transform="translate(437.02 260.13)"><tspan x="0" y="0">Zeb</tspan><tspan class="cls-1" x="312.2" y="0">r</tspan><tspan x="370.6" y="0">afish</tspan></text></g></svg>