<?xml version="1.0" encoding="utf-8"?>
<!-- Generator: Adobe Illustrator 26.4.1, SVG Export Plug-In . SVG Version: 6.00 Build 0)  -->
<svg version="1.1" id="Layer_1" xmlns="http://www.w3.org/2000/svg" xmlns:xlink="http://www.w3.org/1999/xlink" x="0px" y="0px"
	 viewBox="0 0 1366 768" style="enable-background:new 0 0 1366 768;" xml:space="preserve">
<style type="text/css">
	.st0{fill:url(#SVGID_1_);}
	.st1{fill:#C1272D;stroke:#C1272D;stroke-miterlimit:10;}
	.st2{fill:none;}
	.st3{font-family:'Agenda-Medium';}
	.st4{font-size:200px;}
</style>
<linearGradient id="SVGID_1_" gradientUnits="userSpaceOnUse" x1="14.1711" y1="403.0349" x2="401.489" y2="403.0349">
	<stop  offset="0" style="stop-color:#F15A24"/>
	<stop  offset="1" style="stop-color:#C1272D"/>
</linearGradient>
<path class="st0" d="M59,279c5.1-6.1,13.4-15.4,25-25c13.7-11.4,56.2-41.5,105.5-42.5c31.2-0.6,37,9.8,81,9c20.1-0.4,19.7-3.3,42-4
	c5.3-0.2,75.2-1.9,79,16c0.2,0.8,0.2,1.5-1,6c-4.6,17.3-9.7,24.6-13,34c-1.3,3.6-5.8,18.5-2,35c1.6,7.2,3.6,9,8.5,19.5
	c1,2.2,10.8,23.1,15,44c3.6,17.8,2.5,31.9,1.5,43.5c-1,11.4-4.5,49.8-28,88c-43.6,71-118.8,87.7-125,89c-6.1,1.2-88.4,16.8-155-36
	c-74.3-58.9-82.4-165.8-77-168c1.3-0.5,3.3,5.2,15,22c24.4,35.1,56.4,68.8,62,65c1.3-0.9,0.4-3.4,0-8c-2.1-27.1,22.9-55.7,30-53
	c2.6,1,2.8,6.2,3,9c2.6,34.8,39.3,66.7,43,70c27.9,24.3,71.4,33,110,22c34.9-9.9,70.8-37.2,81-75c3.7-13.8,3-25.1,2-39
	c-2.8-40.8-19.5-70.2-27-82c-22.5-35.4-57.6-62.3-63-58c-1.1,0.9-0.5,2.6,0,8c0,0,1.2,11.9-1,32c-2.6,23.7-23.2,43.5-26,42
	c-1.7-0.9,3.5-9.5,6-23c1.2-6.5,6.3-35-7-53c-15.8-21.4-50.4-18.4-66-17c-34.4,3-75.1,21.5-75,41c0,3.6,1.4,6.2,3,9
	c17.9,30.7,48.4,46.7,51,48c16.8,8.1,31.5,10.7,61,16c23.5,4.2,26.9,3.2,48,8C302.4,380,311.8,388,317,394
	c9.4,10.9,11.8,22.9,12.5,26.5c3.3,17.9-2.5,35.1-5,35c-1.3-0.1-1.3-5.3-5-20c-3.2-12.8-4-15.1-5-17c-4.4-8.3-11.1-12.9-13.5-14.5
	c-4.9-3.3-10.7-5.7-27-8c-17.2-2.5-29.5-2.5-29.5-2.5c-23.8-0.2-50.3-0.9-56-1c-48-1-86.2-35.3-88-37C71.2,328.5,62.1,294.8,59,279z
	"/>
<circle class="st1" cx="173" cy="291" r="19.5"/>
<rect x="451.2" y="329.2" class="st2" width="899.2" height="389.6"/>
<text transform="matrix(1 0 0 1 451.1958 471.5981)" class="st3 st4">Zebrafish</text>
</svg>
