<?xml version="1.0" encoding="UTF-8"?><svg id="Layer_2" xmlns="http://www.w3.org/2000/svg" viewBox="0 0 1358.67 112.99"><defs><style>.cls-1{fill:none;stroke:#ff15b3;stroke-miterlimit:10;stroke-width:2px;}</style></defs><g id="Layer_1-2"><path id="fish-line" class="cls-1" d="M1358.54,52.22c-34.52,4.77-86.55,7.75-146-7-65.28-16.19-74.05-37.51-123-41-81.34-5.79-88.19,50.87-170,49-75.04-1.71-134.53-51.08-170-21-7.54,6.4-21.29,22.61-34,19-8.09-2.3-7.72-10.35-20-19-13.22-9.32-27.68-9.87-33-10-3.18-.08-16.34-.18-31,7-10.64,5.21-17.01,11.77-22,17-8.61,9.04-12.92,13.55-13,20-.09,7.81,6,13.56,16,23,5.9,5.57,11.28,10.65,20,15,5.38,2.68,23.06,11.5,43,6,17.28-4.77,28-17,28-17,4.97-5.66,5.89-9.37,10-10,7.13-1.1,10.84,9.05,25,13,2.53,.71,9.16,2.55,11,0,1.63-2.26-1.22-7.21-7-17-5.6-9.5-6.95-10.03-7-13-.12-7.6,8.66-9.69,11-18,2.59-9.17-4.69-18.67-8-23-13.55-17.71-36.54-21.44-47-23-41.99-6.24-76.33,13.32-86,19-23.78,13.98-22.39,21.99-40,31-33.98,17.38-69.69,3.16-97-3-87.72-19.79-101.7,40.65-203,35-87.19-4.86-110.41-51.51-189-38C42.76,52.02,16.79,65.84,.54,76.22"/></g></svg>