<?xml version="1.0" encoding="UTF-8"?><svg id="Layer_2" xmlns="http://www.w3.org/2000/svg" viewBox="0 0 396.53 87.85"><defs><style>.cls-1{fill:none;}.cls-2{fill:#8af3ff;fill-rule:evenodd;}</style></defs><g id="Layer_1-2"><g><rect class="cls-1" x="0" y="0" width="396.53" height="87.85"/><path class="cls-2" d="M0,47.93c0-.12,.19-.1,.31-.12,.09-.25,.89-.66,1.85-.62-.84,.16-1.18,.69-2.16,.75Z"/><path class="cls-2" d="M7.1,54.33c.16-.27,.98-.06,1.39-.14-.5,.15-1.04,.51-1.39,.14Z"/><path class="cls-2" d="M9.57,53.46c.03-.37,.77-.21,1.24-.26-.02,.49-.89,.25-1.24,.26Z"/><path class="cls-2" d="M10.66,54.05c-.39-.18,.91-.09,1.08-.25,0,.12,0,.24,0,.36,1.04,.15,1.17-.38,2.17-.27-.61,.83-2.26,.37-3.25,.16Z"/><path class="cls-2" d="M10.96,53.32c-.02-.41,.57-.36,1.08-.37-.29,.18-.67,.29-1.08,.37Z"/><path class="cls-2" d="M11.74,53.43c.54-.32,1.4-.48,2.01-.14-.34,.34-1-.06-2.01,.14Z"/><path class="cls-2" d="M11.34,33.52c.04-.28,.73-.08,.61-.49,.13-.02,.15,.05,.16,.12,.1,0,.21,0,.31,0-.14,.29-.62,.33-1.08,.37Z"/><path class="cls-2" d="M13.37,34.21c.14-.25,.45-.37,.92-.37-.14,.25-.45,.37-.92,.37Z"/><path class="cls-2" d="M13.55,20.17c.49-.29,1.25-.16,1.7-.14-.26,.28-1.18,.06-1.7,.14Z"/><path class="cls-2" d="M15.63,54.11c.61-.5,1.46-.07,1.86,.1-.37,.25-1.14-.22-1.86-.1Z"/><path class="cls-2" d="M17.86,33.92c-.34-.27-.53,.11-1.08,.01-.09-.31,1.12-.25,.61-.49,.11-.27,.87-.06,1.24-.13-.21,.23-.73,.24-.76,.61Z"/><path class="cls-2" d="M18.36,20.35c-.25-.11,2.15-.38,2.17,.09-.56-.07-1.2-.09-2.17-.09Z"/><path class="cls-2" d="M23.12,33.37c.21-.19,.8-.35,1.08-.13-.06,.27-.76,.06-1.08,.13Z"/><path class="cls-2" d="M24.01,54.84c.04-.57,.88-.08,.93,.11-.26,.39-.41-.31-.93-.11Z"/><path class="cls-2" d="M33.16,54.74c-.48-.17,.89-.19,.93-.01-.21,.52-.35-.12-.93,.01Z"/><path class="cls-2" d="M33.13,53.54c.03-.17,.46-.05,.46-.25,.24,.22,1.85-.02,1.55,.22-.67,0-1.34,.02-2.01,.02Z"/><path class="cls-2" d="M41.38,55.12c.19-.29,2.36-.33,2.49,.21-.76-.13-1.48-.28-2.49-.21Z"/><path class="cls-2" d="M45.17,35.15c-.57,.46-2.19-.16,0,0h0Z"/><path class="cls-2" d="M49.46,56.1c.46-.63,1.34-.41,2.32-.27-.49,.56-1.6,0-2.32,.27Z"/><path class="cls-2" d="M52.36,37.82c.13-.18,.22-.38,.61-.37,.36,.26-.04,.47,.02,.84-.79,.03-.04-.4-.63-.47Z"/><path class="cls-2" d="M62.43,37.82c.06-.27,.76-.06,1.08-.13-.13,.46-.62,.09-1.08,.13Z"/><path class="cls-2" d="M62.96,56.66c.03-.2,1.14-.5,1.08-.01-.49-.16-.52-.02-1.08,.01Z"/><path class="cls-2" d="M63.08,31.69c-.09-.42,1.22-.16,1.09,.23-.57,.09-.6-.25-1.09-.23Z"/><path class="cls-2" d="M64.67,56.52c1.24-.5,1.16-.28,2.94-.4-.51,.49-1.81,.37-2.94,.4Z"/><path class="cls-2" d="M67.66,58.76c.3-.27,.68,.43,1.4,.22-.36,.32-1.22,0-1.4-.22Z"/><path class="cls-2" d="M69.37,59.1c.04-.25,.58-.12,.61-.37,.21,.03,.13,.3,.16,.48-.18-.1-.42-.15-.78-.11Z"/><path class="cls-2" d="M69.46,55.86c.58,.5,1.5,.22,2.48,.21-.56,.36-2.18,.71-2.48-.21Z"/><path class="cls-2" d="M70.77,82.49c-.15-.42,.5-.21,.62-.13,1.44-.05-.52,.31-.62,.13Z"/><path class="cls-2" d="M70.66,38.2c-.46-.17,.17-.49,.61-.37,.26,.47-.67,.05-.61,.37Z"/><path class="cls-2" d="M73.87,51.61c.03-.54,1.03-.54,1.54-.38-.3,.47-1.08-.05-1.54,.38Z"/><path class="cls-2" d="M74.39,54.6c.09-.11,.43-.19,.15-.24,.15-.3,.69,.09,.63,.35-.14,.1-.35,.13-.62,.13,.02-.14-.04-.21-.16-.24Z"/><path class="cls-2" d="M76.94,50.13c-.48-.17,.89-.19,.93-.01,.03,.1-.06,.11-.15,.12-.13-.02-.14,.05-.15,.12-.24-.05-.14-.38-.63-.23Z"/><path class="cls-2" d="M78.87,38.11c-.34-.23,1.13-.09,1.55-.14-.4,.37-.76,.05-1.55,.14Z"/><path class="cls-2" d="M80.84,43.36c.21,0,.41,0,.62,0,.13,.46-.73,.47-.62,0Z"/><path class="cls-2" d="M83.93,43.08c.28-.67,1.06,.15,1.7-.02-.25,.23-1.42,.17-1.7,.02Z"/><path class="cls-2" d="M87.28,63.09c.45-.04,.48,.26,.94,.23-.02,.38-.99,.18-.94-.23Z"/><path class="cls-2" d="M92.09,47.67c.21-.36,1.03-.33,1.39-.26-.3,.21-.96,.14-1.39,.26Z"/><path class="cls-2" d="M94.41,47.64c.14-.4,1.37,0,2.01-.26-.26,.36-1.73,.3-2.01,.26Z"/><path class="cls-2" d="M98,64.16c.21-.28,1.14-.11,.94,.35-.52,.05-.25-.53-.94-.35Z"/><path class="cls-2" d="M98.3,48.55c.12-.42,.92-.33,1.54-.38,.13,.3-1.05,.21-.45,.49-.2,.31-.69-.17-1.09-.11Z"/><path class="cls-2" d="M101.08,48.04c.32,.24-.06,.23-.14,.48-.27-.11-.83,.01-.78-.35,.13,.06,.25,.12,.47,.12,.16-.08,.16-.28,.46-.24Z"/><path class="cls-2" d="M100.93,47.92c.43-.35,.98,.38,1.55-.02-.18,.58-1.29,.35-1.55,.02Z"/><path class="cls-2" d="M103.63,28.09c-.08-.49,.75-.18,.78,0-.13,.35-.39-.15-.78,0Z"/><path class="cls-2" d="M107.08,37.77c-.12-.46,1-.27,.78,.11-.18-.1-.42-.15-.78-.11Z"/><path class="cls-2" d="M110.07,32.21c.21-.19,.8-.35,1.08-.13-.06,.27-.76,.06-1.08,.13Z"/><path class="cls-2" d="M112.45,11.54c.1-.16,.33-.23,.62-.25-.02,.21,.19,.25,.16,.48-.15,0-.31,0-.46,0,.22-.21,.14-.28-.31-.24Z"/><path class="cls-2" d="M119.61,43.98c2.09-.37,4.19,.03,6.51,.04-2.16,1.27-4.38-.43-6.51-.04Z"/><path class="cls-2" d="M119.2,23.46c-.04-.39,.84-.55,.77,0-.26,0-.52,0-.77,0Z"/><path class="cls-2" d="M120.18,18.29c.09-.26,.95-.12,1.08-.01-.23,.36-.68-.09-1.08,.01Z"/><path class="cls-2" d="M122.14,23.3c.22-.19,.6-.26,1.08-.25,.13,.45-.73,.16-1.08,.25Z"/><path class="cls-2" d="M124.12,21.84c-.72-.22,1.03-.49,.78,0-.38,.16-.65-.34-.78,0Z"/><path class="cls-2" d="M125.21,21.83c-.07-.3,1.34-.45,1.24-.02-.47-.16-.55,.07-1.24,.02Z"/><path class="cls-2" d="M126.28,44.38c-.06-.52,1.07-.14,1.07-.61,.37,.07,.73,.15,.78,.47-.52,.32-1.46-.05-1.86,.14Z"/><path class="cls-2" d="M128.5,38.95c-.58-.33,.72-.24,1.08-.25,.03,.1-.06,.11-.15,.12,0,.08,0,.16,0,.24-.34,.06-.85-.36-.93-.11Z"/><path class="cls-2" d="M131.3,39.52c.22-.27,.4-.57,1.07-.49-.42,.12-.59,.42-1.07,.49Z"/><path class="cls-2" d="M132,27.87c.19-.17,.53-.23,.92-.25,.05,.38-.67,.44-.92,.25Z"/><path class="cls-2" d="M132.17,21.26c.04-.13,.31-.08,.31-.24,.29,.34,.39,.27,.78,.35-.23,.33-.93,.02-1.09-.11Z"/><path class="cls-2" d="M132.75,11.41c-.13-.46,.73-.16,1.08-.25-.02,.34-.64,.23-1.08,.25Z"/><path class="cls-2" d="M139.49,69.06c.19-.29,.49-.5,.92-.61,.09,.17-.6,.3-.15,.36-.13,.18-.38,.26-.77,.25Z"/><path class="cls-2" d="M139.19,23.34c.29-.22,1.47-.12,1.55,.22-.45-.13-.97-.2-1.55-.22Z"/><path class="cls-2" d="M142.33,71.55c.08-.1,.16-.2,.15-.36,.79,.38,.88,.18,2.02,.1-.4,.56-1.5,.46-2.16,.27Z"/><path class="cls-2" d="M143.17,67.1c.23-.38,1.19-.22,1.86-.26-.39,.31-.91,.18-1.86,.26Z"/><path class="cls-2" d="M144.81,71.52c-.1-.71,1.02,.15,.77-.37,.01-.29,.51-.03,.47,.11,2.15-.13,.7,.28-.15,.12-.15,0-.12,.15-.15,.24-.47,.09-.46-.2-.93-.11Z"/><path class="cls-2" d="M144.2,17.88c.12-.26,.63-.48,.92-.25-.19,.17-.53,.23-.92,.25Z"/><path class="cls-2" d="M145.08,23.03c.5,.49,1.1,.07,1.55-.14-.12,.11-.16,.27-.15,.48-.53-.05-.87,.06-1.24,.13-.12-.1-.17-.27-.17-.48Z"/><path class="cls-2" d="M145.36,21.58c1.14-.17,2.21-1.1,3.24-.64-.01,.27-.66,.06-.93,.13,.03,.34,.65,.21,1.09,.23-.64,.29-2.58,.59-3.4,.28Z"/><path class="cls-2" d="M148.06,71.48c.02-.34,.64-.23,1.08-.25-.15,.25-.59,.27-1.08,.25Z"/><path class="cls-2" d="M149.46,71.58c-.08-.37,.32-.39,.77-.37-.09,.25-.23,.46-.77,.37Z"/><path class="cls-2" d="M150.54,71.33c-.02-.58,2.08,.58,1.7-.38,.23,.16,.42,.53,.17,.72-.91-.13-.92-.23-1.87-.34Z"/><path class="cls-2" d="M151.09,21.16c0-.12,0-.24,0-.36,.36,.2,.84,.3,1.55,.22,.06,.32-.87-.1-.61,.37-.28-.1-.4-.33-.94-.23Z"/><path class="cls-2" d="M151.64,41.31c.54,.02,1.19-.06,1.25,.34-.55,0-1.25,.1-1.25-.34Z"/><path class="cls-2" d="M152.65,21.62c.22-.29,.32-.23,.14-.6,.32,.25,.74,.05,.77-.25,.49-.07,.07,.59,.63,.47-.53,.12-.87,.37-1.54,.38Z"/><path class="cls-2" d="M153.06,19.09c.12-.27,1.03-.41,.93,.11-.19-.14-.55-.13-.93-.11Z"/><path class="cls-2" d="M154.35,21.48c.32-.26,.73-.44,1.23-.25-.25,.21-.69,.27-1.23,.25Z"/><path class="cls-2" d="M154.67,21.95c.18-.42,.52-.34,.93-.13-.01,.26-.66,.06-.93,.13Z"/><path class="cls-2" d="M156.31,18.93c-.24-.12,1.42-.27,1.55-.14-.21,.28-1.08,.06-1.55,.14Z"/><path class="cls-2" d="M157.65,70.4c.02-.26,.39-.26,.77-.25,.12,.36-.15,.44-.14,.72-.28-.11-.26-.44-.63-.47Z"/><path class="cls-2" d="M157.47,22.64c-.22-.41,1.76-.6,1.85-.38,.04,.09-1.63,.23-1.85,.38Z"/><path class="cls-2" d="M158.98,12.9c.16,0,.31,0,.47,0,.16,.11,.15,.62-.3,.6,.12-.34-.22-.31-.17-.6Z"/><path class="cls-2" d="M160.25,68.33c.18-.18,.12-.54,.61-.49-.05,.28-.09,.56-.61,.49Z"/><path class="cls-2" d="M162.26,68.31c-.01-.36,.54-.31,.92-.37,.01,.36-.54,.31-.92,.37Z"/><path class="cls-2" d="M162.4,21.14c.25-.24-.02-.15,0-.48,.23,.14,.69,.1,.63,.47-.21,0-.41,0-.62,0Z"/><path class="cls-2" d="M164.75,21.95c.06,.2-.12,.23-.31,.24-.02,.14,.04,.21,.16,.24-.52,.42-.56-.57,.15-.48Z"/><path class="cls-2" d="M164.47,15.96c.87-.33,1.12,.25,2.01-.15,.04,.63-1.78,.42-2.01,.15Z"/><path class="cls-2" d="M165.68,22.18c.11-.35,.58-.44,.92-.61-.09,.11-.35,.45,.16,.36,.09,.17-.6,.3-.15,.36-.52,.48-.35-.53-.93-.11Z"/><path class="cls-2" d="M165.65,20.74c.32-.6,1.63-.05,2.17-.03-.89,.39-1.29-.29-2.17,.03Z"/><path class="cls-2" d="M167.24,69.09c.41-.32,1.03,.23,1.71,.1-.42,.32-1.3-.01-1.71-.1Z"/><path class="cls-2" d="M170.83,16.12c-.18-.02-.13-.22-.16-.36,.49,.08,1.02-.4,.77-.49,.74-.29,1.44,.08,2.32-.15-.12,.11-.16,.27-.15,.48-1.27-.48-1.71,.34-2.78,.51Z"/><path class="cls-2" d="M172.17,21.14c.38-.25,1.64-.37,1.09,.23-.21-.45-.69,.08-1.09-.23Z"/><path class="cls-2" d="M173.43,14.41c-.24-.37,1-.38,.77,0-.26,0-.52,0-.77,0Z"/><path class="cls-2" d="M173.87,20.88c-.25-.2,1.22-.11,1.55-.26-.19,.55-.88,.27-1.55,.26Z"/><path class="cls-2" d="M174.03,21.24c.89-.22,2.18,.29,2.8,.69-.68,.29-1.72-.57-2.8-.69Z"/><path class="cls-2" d="M174.07,15.48c.12-.69,.9,.42,.92-.25,.21,.04,.14,.3,.17,.48-.57-.14-.7-.16-1.09-.23Z"/><path class="cls-2" d="M174.78,19.79c-.03-.26,.55-.06,.77-.13-.1,.37-.1,.23,.01,.6-.36-.08-.42-.39-.78-.47Z"/><path class="cls-2" d="M175.69,18.94c.15-.3,.61-.6,.77-.25-.13,.18-.39,.26-.77,.25Z"/><path class="cls-2" d="M177.26,19.76c.43-.27,1.48-.64,1.86-.26-.27,.25-.57,.04-.3,.48-.26-.28-.91-.25-1.55-.22Z"/><path class="cls-2" d="M181.19,45.64c-.18-.02-.14-.22-.16-.36,.49-.11,.48,.18,.78,.23-.03,.42-.69-.21-.62,.13Z"/><path class="cls-2" d="M181.6,19.95c-.27-.64,2.84-.58,2.33,.21-.18-.02-.14-.22-.16-.36-.61,.25-1.53-.22-2.17,.15Z"/><path class="cls-2" d="M184.16,46.92c.25-.14,.48-.48,.77-.25,0,.12,0,.24,0,.36-.36,.04-.6-.01-.78-.11Z"/><path class="cls-2" d="M185.83,45.1c-.13-.15,1.12-.26,1.7-.26-.3,.29-1.02,.26-1.7,.26Z"/><path class="cls-2" d="M187.88,70.28c.46,0,.53,.31,.94,.35-.15,.23-.95-.05-.94-.35Z"/><path class="cls-2" d="M188.81,46.75c.23-.3,.38-.66,1.07-.61-.3,.25-.52,.56-1.07,.61Z"/><path class="cls-2" d="M189.95,18.89c.06-.27,.76-.06,1.08-.13-.16,.3-.63,.26-1.08,.13Z"/><path class="cls-2" d="M190.96,45.88c.04-.25,.58-.12,.61-.37,.13-.02,.15,.05,.16,.12-.03,.1,.06,.11,.16,.12-.13,.23-.67,.33-.93,.13Z"/><path class="cls-2" d="M194.25,70.56c0-.12,0-.24,0-.36,.39,.14,3.15-.1,1.09,.11-.33,.1-.52,.32-1.08,.25Z"/><path class="cls-2" d="M194.95,74.88c.19-.33,.83-.25,1.24-.14-.11,.27-.87,.06-1.24,.14Z"/><path class="cls-2" d="M197.46,45.32c.03-.47,1.56-.25,1.86-.14-.24,.18-1.39-.15-1.86,.14Z"/><path class="cls-2" d="M198.67,74.95c.43-.09,.73-.51,.93-.13-.33,.26-.57,.45-.93,.13Z"/><path class="cls-2" d="M199.92,75.42c0-.12,0-.24,0-.36,.23,.14,.7,.1,.63,.47-.28,.02-.33-.14-.62-.11Z"/><path class="cls-2" d="M201.1,18.27c.13-.26,.37-.43,.92-.37-.08,.29-.58,.27-.92,.37Z"/><path class="cls-2" d="M202.61,70.22c-.6-.27,.58-.18,.46-.49,.27,.03,.36,.2,.32,.48-.38,.16-.65-.34-.78,.01Z"/><path class="cls-2" d="M203.16,74.66c.03-.5,.55,.05,.92-.25,0,.12,0,.24,0,.36-.47,.09-.46-.2-.93-.11Z"/><path class="cls-2" d="M203.91,73.33c-.47-.24,1.12,.06,.77-.49,.76,.23-.07,.65-.77,.49Z"/><path class="cls-2" d="M205.66,75.23c0-.12,.19-.1,.31-.12,.18-.02,.08-.12,0-.12,.05-.16,.39-.1,.62-.13,.1,.43-.45,.37-.92,.37Z"/><path class="cls-2" d="M207.79,73.16c0-.16,0-.32-.01-.48,.2,.16,.68,.11,1.09,.11,0,.39-.7,.27-1.08,.37Z"/><path class="cls-2" d="M211.71,75.75c.51-.17,.99-.36,1.54-.5-.21,.4-.77,.52-1.54,.5Z"/><path class="cls-2" d="M210.55,17.8c.2-.44,1.33,.05,2.02-.02,.06,.32-.87-.1-.61,.37-.4-.43-.67-.22-1.4-.34Z"/><path class="cls-2" d="M227.21,75.45c0-.16,0-.32-.01-.48-.05,.32,.93,.51,.47,.11,.22-.4,.38,.24,.78,.11-.24,.21-.69,.27-1.23,.25Z"/><path class="cls-2" d="M235.58,75.35c.14-.25,.59-.27,1.08-.25-.41,.17-.59,.43-1.08,.25Z"/><path class="cls-2" d="M235.26,13.06c.04-.25,.68-.04,.77-.25-.12-.11-.29-.18-.47-.24,.27-.36,.83,.06,.63,.47-.54-.09-.65,.23-.93,.01Z"/><path class="cls-2" d="M238.32,72.55c.09-.11,.18-.22,0-.24,.34-.25,.29,.25,.93-.01-.01,.31-.51,.24-.92,.25Z"/><path class="cls-2" d="M238.81,73.87c.21-.24,1.31-.16,1.55-.02-.21,.24-1.31,.16-1.55,.02Z"/><path class="cls-2" d="M239.4,72.3c.47-.13,.99-.01,1.71-.02-.28,.26-1.21,.03-1.55,.26,.02-.14-.04-.21-.16-.24Z"/><path class="cls-2" d="M247.08,76.89c.36-.34,.94,.18,1.39-.14,0,.68-.89,.12-1.39,.14Z"/><path class="cls-2" d="M247.06,75.69c-.2-.39,.5-.1,.3-.48,.36-.04,.18,.34,.47,.35-.13,.4-.29,.06-.77,.13Z"/><path class="cls-2" d="M247.56,77.6c.2,.16,.73,.06,.93,.23-.33,.3-.92,.27-.93-.23Z"/><path class="cls-2" d="M249.85,75.66c.44-.32,1.99-.46,2.32-.15-.1,.24-.41,.32-.77,.37,.63-.32-1.34-.45-.93,.13-.41,.04-.13-.47-.63-.35Z"/><path class="cls-2" d="M255.42,74.87c0-.12,0-.24,0-.36,.57-.13,.25,.45,.78,.35-.03,.28-.68,.08-.77,0Z"/><path class="cls-2" d="M258.23,76.04c.12-.64,.87-.07,1.39-.38-.09,.41-1.04,.16-1.39,.38Z"/><path class="cls-2" d="M258.75,78.67c0-.12,0-.24,0-.36,.12,.27,1.07-.12,.94,.35-.31,0-.62,0-.93,.01Z"/><path class="cls-2" d="M265.81,13.42c.05-.31,.7-.27,1.39-.38-.05,.2,.12,.23,.31,.24-.37,.21-1.12-.12-1.7,.14Z"/><path class="cls-2" d="M268.41,81.07c.21-.24,.95-.08,1.23-.25-.1,.42-.86,.35-1.23,.25Z"/><path class="cls-2" d="M281.78,13.23c.1-.24,.41-.33,.77-.37,.21,.47-.36,.36-.77,.37Z"/><path class="cls-2" d="M296.32,11.97c.09-.11,.43-.19,.15-.24,.67-.34,1.72-.22,2.48-.03-.92,.14-1.49,.14-2.63,.27Z"/><path class="cls-2" d="M296.67,13.53c.3-.32,.89-.43,1.23-.73-.14,.69-.51,.67-1.23,.73Z"/><path class="cls-2" d="M299.13,12.66c-.03-.14-.28-.1-.47-.11,.17-.34,.89-.28,1.07-.61,.26,.07,.1,.27-.15,.24,.14,.42,.03,.29,.17,.72-.56,.05-.96,.22-1.39,.38-.23-.1-.34-.3-.32-.6,.44-.4,.77,.29,1.08-.01Z"/><path class="cls-2" d="M299.88,11.57c.2-.46,.72-.15,1.08-.25,.58-.16-.17-.68,.62,0-.64,.3-.99,.1-1.7,.26Z"/><path class="cls-2" d="M302.36,81.27c.12-.78,.7,.13,1.24-.25,.1,.47-.85,.15-1.24,.25Z"/><path class="cls-2" d="M304.69,11.51c-.14-.15,1.18-.21,1.7-.26-.37,.23-1.01,.27-1.7,.26Z"/><path class="cls-2" d="M307.8,12.31c.3,.22,.39,0,.78,0,.16,.48-.92,.49-.78,0Z"/><path class="cls-2" d="M309.39,14.33c.26-.21,.41,.01,.93-.13,.15,.44-.81,.23-.93,.13Z"/><path class="cls-2" d="M313.88,83.29c.55,.23,.69-.06,1.24-.13-.04,.36-1.18,.84-1.24,.13Z"/><path class="cls-2" d="M313.06,27.01c0-.12,0-.24,0-.36,.38-.29,.91-.01,1.4-.02-.5,.1-.76,.38-1.39,.38Z"/><path class="cls-2" d="M319.02,22.62c.03-.21,.26-.28,.61-.25-.02,.14,.04,.21,.16,.24-.03,.28-.68,.08-.77,0Z"/><path class="cls-2" d="M319.47,22.02c.26-.19,.57,.03,1.08-.13,.1,.43-.45,.37-.92,.37,.02-.14-.04-.21-.16-.24Z"/><path class="cls-2" d="M321.26,18.51c.49-.24,.73-.23,1.39-.5,.07,.11,.14,.21,.32,.24,.07,.29-.71-.06-.46,.37-.47-.15-.54-.03-1.24-.1Z"/><path class="cls-2" d="M326.95,31.41c-.07-.66,1.03,0,1.54-.38,.06-.54-.73-.32-1.09-.23,.17-.92,1.61,.42,1.54-.62,.37,.07,.71,.16,1.24,.1,.16,.43-.61,.17-.92,.25,.58,.46-.51,.42,.17,.96-.83-.23-1.48-.24-2.48-.09Z"/><path class="cls-2" d="M330.46,83.21c-.11-.69,.8,.08,.92-.49,.31,.21-.48,.67,.17,.96-.53,.45-.62-.47-1.09-.47Z"/><path class="cls-2" d="M334.92,81.35c.78-.26-.47-.57,.92-.73,0,.2,0,.4,.01,.6-.55,.05-.38,.33-.93,.13Z"/><path class="cls-2" d="M335.72,82.31c.89-.24,1.09-.99,2.15-1.11,.04-.2-.15-.21-.16-.36-.36,.16-.87,.21-1.23,.37-.1-.34,.41-1.12-.64-1.19,.76-.65,1.21,.84,2.34,.69,.01,.52,.29,.83,.64,1.07-.33,.31-.63,.63-1.07,.85-.57,.05-.8-.18-.94-.47-.37,.3-.41,.12-1.08,.13Z"/><path class="cls-2" d="M337.5,78.56c1.1-.1,.08,.75,1.1,.71-.28,.1-.42,.31-.77,.37,.13-.55-.4-.58-.33-1.08Z"/><path class="cls-2" d="M341.25,25.59c.43-.33,.12-.3-.01-.72,.28,.01,.32-.15,.62-.13-.26,.24,.16,.99-.6,.85Z"/><path class="cls-2" d="M342.5,18.74c.27-.25,.91-.36,.78,.23-.48,.09-.3-.33-.78-.23Z"/><path class="cls-2" d="M347.1,16.16c-.09-.43,1.38-.29,1.55-.14,.37-.07,.33-.46,.45-.73,.41,.24,.54,.71,.8,1.07-.28,.21-1.78,.1-1.4-.22-.5,.03-.92,.15-1.4,.02Z"/><path class="cls-2" d="M349.69,29.09c.26-.32,1.09-.07,1.24,.1-.2,.27-.84-.13-1.24-.1Z"/><path class="cls-2" d="M354.25,32.16c.5-.14,.84-.4,1.39-.5-.02,.63-.8,.58-1.39,.5Z"/><path class="cls-2" d="M355.51,48.83c0-.12,0-.24,0-.36,.23,.06,.8-.15,.78,.11,.17,.4-.48,.19-.77,.25Z"/><path class="cls-2" d="M356.46,49.77c.05-.32,.4-.41,.77-.49-.03,.36,.58,.4,.17,.72-.49,.06-.36-.36-.93-.23Z"/><path class="cls-2" d="M359.6,82.98c.74-.08,.92-.35,1.55-.02-.03,.16-.46,.16-.47,0-.22,.11-.49,.19-.45,.49-.4-.01-.61-.17-.63-.47Z"/><path class="cls-2" d="M359.93,83.58c1,.56,2.54,.15,3.28,1.04-.6-.25-2.89-.21-3.28-1.04Z"/><path class="cls-2" d="M361.52,39.39c.33-.1,1.1-.25,1.09,.23-.44-.02-.65-.21-1.09-.23Z"/><path class="cls-2" d="M364.53,81.36c.09-.36,.23-.69,.76-.73,0,.32,.07,.68-.14,.84-.14-.09-.35-.13-.62-.11Z"/><path class="cls-2" d="M364.1,44.04c1.43-.62,3.81,.11,4.52,1.15-1.22-.12-2.56-1.21-4.52-1.15Z"/><path class="cls-2" d="M370.23,48.53c.15-.48,.63,0,1.24-.13,.02-.26-.14-.38-.47-.35,.41-.36,.88,.27,1.09,.47,.12,.37-.42,.24-.3,.6-.72-.03-1.03-.4-1.56-.58Z"/><path class="cls-2" d="M374.48,74.76c.73-.33,1.71,.17,2.33,.33-.71,.32-1.4-.42-2.33-.33Z"/><path class="cls-2" d="M395.51,72.11c.08-.18,.22-.31,.3-.48,.37,.24,.94,.39,.64,.83-.47,.01-.61-.25-.94-.35Z"/><path class="cls-2" d="M3.38,46.57c-.26,0-.52,0-.78,0,.01-.17,.02-.34-.16-.36,.24-.1,.22-.38,.61-.37-.14,.55,1.26,1.01,.18,1.2,.12-.11,.16-.27,.15-.48Z"/><path class="cls-2" d="M29.95,57.05c.68-.29,2.14-.16,2.49,.21-.57-.05-1.6-.14-2.49-.21Z"/><path class="cls-2" d="M37.97,54.92c-.33-.06-.45-.29-.93-.23,.17-.33,.29-.83-.48-.71,.44-.18,1.01-.27,1.39-.5-.15,.49,.55,.94-.29,.96,.11,.37,.42,.15,.78,.11,.5,.16-.63,.06-.46,.37Z"/><path class="cls-2" d="M45.98,60.1c-.11-.72,1.27-.9,1.39-.38-1.32-.2-.63,.08-1.39,.38Z"/><path class="cls-2" d="M48.06,55.52c0,.36-1.01,.29-1.24,.13,.05-.16,.27-.19,.3-.36,.06,.27,.22,.41,.93,.23Z"/><path class="cls-2" d="M67.39,60.93c1.37,.21,3.2,.38,4.19,.19,.56,.89,3.16-.28,3.43,1.04,.63,.04,.23-.7,.92-.61,.49,.17,.87,.44,1.41,.58,.43-.4,1.36-.22,1.56,.22-.21,0-.14,.21-.31,.24-.59-.38-2.16-.25-2.79,.03,1.13,0,2.56,.27,3.56-.04-.18-.02-.44,.02-.47-.12,.45,.03,.47-.28,.93-.25,.1,.26-.43,.39,.16,.36,.2-.12,.3-.33,.61-.37,1.02,.34,2.58,.52,3.57,.2,1.42,.98,4.39-.34,4.68,1.26,1.25-.29,2.52-.35,3.73,.2,.29-.02,.1-.4,.46-.37,1.25,.71,3.14-.36,4.65-.06-.09,.48-1.55-.1-1.08,.49,2.2-.5,4.02,.45,5.75,.41-.05,.28-.68,.12-.61,.49,.48-.04,1.53,.17,2.17-.03,.05,.16,.23,.23,.17,.48,1.14-.29,2.14,.22,3.42,.44,.21-.28-.41-.45,0-.48,.31,0,.62,0,.93-.01-.2,.16-.2,.45,.17,.48,1.32-.22,2.96,.08,4.18-.41-.46,.45,.4,.11,.47,.11,.02,0-.02,.23,0,.24,2.37,.54,7.12-.67,8.22,.02-.27-.28,.67-.78,1.23-.37,.12,.33-.3,.24-.3,.48,3.75-.26,7.87-.03,12.24-.15-.12-.03-.31,0-.31-.12,2.05,.13,2.93,.46,4.65,.18,1.55,.18,4.45,.01,5.27,.06-.14-.07-.89-.24-.47-.35,1.67,.76,3.11,.72,5.44,.65,.19,.57,1.86,.57,1.86-.02-.5-.06-.78,.05-.92,.25-.2-.17-.82,0-.63-.47,.79,0,3.26-.16,2.02,.34,2.39-.46,3.14,.42,5.27,.06,.4,1.16,3.29,.17,3.12,.8,.57-.3,1.45-.25,2.02,.22-1.33,.32-2.26,.11-3.09,.4,.51-.04,.95-.03,1.09,.23,.68-.4,1.37-.35,2.02-.02-.04-.53,.63-.08,.77,0,.18-.39-.5-.09-.32-.48,1.01-.21,2.24-.05,3.26,.32-.29,.02-.52,.09-.62,.25,.86-.19,1.85,.45,2.01-.26-.32-.07-1.02,.16-1.09-.11,1.12-.22,1.93-.08,2.64,.21-.2-.01-1.12,0-.62,.13,.72,.11,.93-.17,1.39-.26,1.58,.85,2.7,.53,4.36,.79,.2-.44,1.14-.33,1.85-.38,0,.17,.08,.26,.16,.36,.05,.31-.6,.1-.46,.49,.63,.03,2.03-.19,2.95,.32,.38-.25,2.25-.55,2.48,.21-1.08,.12-2.03,.27-2.63,.03-.16,.41-3.2-.19-2.94,.52-.14-.17-.24-.38-.63-.35-.22,.19-.7,.37-1.07,.73,.06-.86-.92,.41-1.09-.35-.5-.1-.32,.31-.61,.37-.42-.11-.61-.41-1.09-.47-3.51,.96-7.52-.07-11,.25,.78,.11,1.77,.05,2.18,.45-.27,.04-.78-.33-.93,.01,.27,.11,.77,.03,.93,.23-.83,.21-1.4-.42-1.71-.22,.89,.05-.03,.45,0,.48,.31,.2,.77-.13,1.25,.34,.03-.23-.18-.26-.17-.48,.32,.03,.31,.32,.63,.35,2.14-1.25,5.52-.16,8.05-.82,.14,.62,.68,.29,.62,0,.7,.18,.82,.43,1.1,.71,.63-.81,2.53,.05,3.4-.52,.96,.71,3.12-.14,4.18-.05-.12-.02-.18-.1-.16-.24,.55-.06,.88-.19,1.24,.11-.36,.3-.29-.17-.78-.11,1.13,.84,2.9,.15,4.5,.43,.24-.18,.6-.26,.92-.37,.29,.33,1.16,.22,1.87,.22,.11-.35,.37-.59,1.07-.49-.81-.82-2.27-.59-3.27-.44,.53-.46-.33-.54,.29-.84,.46,.66,2.92,.16,3.57,.32-.3-.05-.67-.04-.63-.35,.47-.01,1.32-.34,1.7-.02-.78-.08-.6,.43-1.08,.01,.3,.37,.68,.68,1.26,.83,.11-.37-.54-.14-.32-.6,.16,0,.18-.1,.31-.12,.22,.33,1.7,.11,1.25,.59,1.12-.21,2.8-.13,3.27,.56,1.88-.3,3.36-.67,5.26-.42,.03,.18-.05,.44,.17,.48,.12-.27,.53-.31,.76-.49,.05,.42,.42-.02,.47,.23-.22,.03-.17,.27-.3,.36,.36-.04,.6,.01,.78,.11,.11-.37-.54-.14-.32-.6,.39,.01,.48-.2,.77-.25,.61,.44,1.54-.36,2.64,.09-.05,.16-.22,.23-.15,.48,.57-.05,.54-.54,1.07-.61-.03,.17-.25,.21-.3,.36,.76-.88,2.61,.07,3.1,.08-.17-.03-.38-.19-.16-.24,2.51,.2,4.65-.08,6.98-.08,.02,.13-.22,.19,0,.24,1.05-.11,6.4-1.52,5.43-.07,.12,.03,.3,0,.31,.12-.18,.02-.44-.01-.46,.13,.48,.18,1.36-.19,2.01-.26,.16,.16,.26,.36,.47,.47,1.14-.85,1.94,.45,3.1,.08,.05,.31-.6,.1-.45,.48,1.57-1,4.27-.19,6.5-.56,.06,.32-.87-.1-.61,.37,1.61-.35,4.64,.03,6.66-.32-.47,.37,.58,.16,.63,.47-1.35,.82-2.82,.11-4.64,.78,.09,.17-.17,.62,.17,.6,.48-1.12,2.42-.47,3.7-.88,.07,.19,.49,.1,.32,.48,1.19-.71,3.57-.56,5.42-.19,.45-.53,1.52,.06,2.32-.27-.33,.18-.23,.69-.76,.73-.19-.31,.47-.52-.16-.48-.19,.88-2.21,.31-2.62,.63,.4,.03-.21,.21,0,.48,.66-.34,1.27,.01,1.85-.38,.35,.36,1.65,.71,.93-.01,.54,.69,1.78,.12,2.34,.69-1.69-.08-2.3,.48-3.56,.52,.74,.41,1.15,.17,1.86,.22,.01,.17-.07,.26-.15,.36,2.25,.04,3.74-.1,5.44,.66,.02-.14-.03-.34,.15-.36,1,.48,2.85,.25,3.88,.19-.19-.01-.37-.03-.32-.23,.68-.01,1.48-.13,1.56,.34,.36-.05,.14-.53,.61-.49,.48,.26,.71,.74,1.26,.94-.5-.46,2.09-.74,1.4,.1,.97,.07,1.49-.29,2.18,.33,.28-.22,.51-.48,.92-.61-.12-1.15,.2-1.29,.11-2.16-.82,.27-1.42,.42-1.71-.34-.17,.32-1.41,.32-1.7,.02-1.04,.77-2.51-.24-4.19-.07,.08-.58-.52-.14-.79-.59,.56-.05,1.04-.17,1.55-.26-.22,.37,.03,.46,.32,.72,.21-.36,1-.28,1.24-.01,.17-.5-.66-.21-.78-.47,.6-.18,1.32-.27,1.85-.5,.31,.67,1.46,.61,2.18,.33,.31,.28,.31,.32,.01,.6,1.42-.54,3.19-.4,4.19,.07,.4-.88,1.67,.26,2.17-.03-.22-.06-.38-.18-.47-.35,.48,.08,.45-.21,.93-.13-.03,.47,.59,.43,.94,.59,.14-.22-.47-.39-.01-.48,1.31,.12,1.81,.21,2.79-.15,.14,.39,.02,.73,.94,.71-.02-.21,.03-.38,.15-.48-.39-.15-.64,.36-.77,0,.9-.25,1.57,.53,2.32-.27,.23,.1,.6,.09,.47,.47-.3-.04-.13-.46-.63-.35,.2,.55-.59,.57-1.07,.61,1.01,.04,1.63,1.33,2.03,.46,1.54,.27,2.58,.75,4.21,1.15-.03,.17-.25,.21-.3,.36,.82,.24,1.3-.63,1.4,.1-.76,.02-1.67-.07-2.01,.26,.29,.01,.52,.07,.63,.23-.69-.27-.14,.47-1.39,.26,.13,.46-.45,.37-.45,.73,.37,.19,1.03,.15,1.25,.46-1.2,.36-1.94,.29-2.64-.21,.22-.07,.8,.13,.77-.13-.86,.08,.54-.43-.32-.36-.45,.5-1,.52-1.54,.74,.3-.49-.7,.33-.94-.35-.26,.12-.3,.4-.61,.49-1.22-.75-3.57-.62-4.82-.78,.23,.14,.7,.09,.63,.47-.16,0-.18,.1-.31,.12-.49-.53-1.51,.08-1.72-.58-.8,.02-.76,.13-1.24-.1-.13,.27,.09,.56-.77,.49,.04-.24,.41-.24,.46-.48-1.22-.03-3.43,.44-4.19-.19-1.98,1.87-5.2-.68-6.81,.68,0-.16-.27-.11-.31-.24,.4,.07,.56-.06,.46-.37-.79,.05-.76,0-1.87-.22,.24,.66,1.44,.55,1.88,1.06-.33,.23-1.13,.1-1.7,.14,.21,.35,1.6,.34,2.02,.34,.02,0,.08-.39,.3-.36,.22,.02,.41,.33,.63,.35,1.04,.1,2.54-.52,3.1,.2-.55-.06-.8,.11-.92,.37,2.59-.3,4.19,.04,7.13-.09,0,.12-.12,.15-.15,.24,1-.28,2.12,.16,3.25-.4-.03,.17-.25,.21-.3,.36,.65-.1,1.17-.3,1.7-.5-.32,.29,.52,.39,.63,.71-.03-.26,.12-.38,.46-.36,.35,.17-.19,.29,.16,.36,.79-.15,1.7-.22,2.32-.51,.01,.22-.79,.42-.3,.6,.96-.63,3.58,.21,4.5,.31-.46-.14,.48-.39,.62-.13,.2-.3-.62-.37-.16-.48,.22,.47,1.23,.11,1.4,.34,.25,.42-.52,.08-.46,.37,.63,.27,1.36,.45,2.18,.57-1.44,.54-4.32-.37-6.34,.56,.14,.28,.68-.11,.93-.13,.12,.79,.54,.06,.94,.35-.37,.97-1.67-.05-2.32,.27,.19,.01,.37,.03,.32,.24-.16,0-.18,.1-.31,.12-.97-.07-2.69-.48-2.79,.15-.76-.05-1.37-.86-2.03-.58,.81,.21,1.56,.46,1.88,1.06-.01,.17-1.11,.09-.62,.25,1.12-.4,1.54-.34,2.63-.39-.12-.19-.76,.04-.63-.35,.47,.03,1.2-.15,1.25,.22-.45,.2,.24,.63,.32,.36-.42-.1,.12-.44,.3-.48,.03,.18,.38,.11,.62,.11,0,.21,.04,.37,.16,.48,.48,0,.74-.16,1.08-.25,2,.64,4.76-.69,6.66-.32-.09,0-.18,.02-.15,.12,.32-.53,1.29-.13,1.23-.49,.18,.11,1.03,.3,1.09,.11-.1-.21-.74,.02-.78-.23,.03-.14,.17-.19,.3-.24,.41,.32,.48,.16,.93-.01,.15,.12,.31,.24,.47,.35,.96-.19,1.38-.15,2.32-.27,.01,.17-.07,.26-.15,.36,.41-.13,.79-.13,1.09,.11-.45,.14-.78,.36-1.07,.61,.68-.2,1.77-.09,2-.62-.28-.07-.64,.36-.77,0,.47-.12,.89-.28,1.23-.49-.02,.21,.16,.28,.47,.23-.34,.31,.19,.66,.48,.83,.09-.44-.35-.46-.33-.84,.72,.09,.16-.19,.46-.25,.79-.06,.89,.43,1.56,.46-.18,.38-.8,.43-1.07,.73,.87,.07,.95-.47,1.69-.5-.01,.3-.29,.38,.16,.48,.96-.75,2.96-.53,4.17-.65-.21-.29-.46,.22-.62-.11,.04-.17,.34-.14,.46-.25,.09,.29,.6,.25,.48,.71,.86-.44,1.81-.08,2.94-.27,.15,.18,.39,.89,.79,.47-.19-.01-.37-.03-.32-.24,.65-.12,1.11-.13,2.17-.14,.12,.84,1.39,.76,2.04,1.17,.34-.18-.2-.29,.15-.36,1.6,.57,2.56,.5,4.67,.78-1.01,.2,.97,.15,.32,.48,.68-.27,1.91-.47,2.32-.27-.25,.09-.26-.56,0-.48,.32,.21,.05,.44,.62,.23-.08,.43,.07,.68,.48,.71,.21-.08,.01-.46,.3-.48,.48,.19,.6,.1,.93,.23-.22,.07-.37,.19-.46,.36,.51-.09,.25,.25,.16,.36,.48,.1,.95,.22,1.25,.46-.02-.59-.41-.88-.03-1.32-.49-.06-.44-.54-.64-.83,2.29-.09,5.33,.34,7.31,1.23-.29,.39-.28,.74,.18,1.08,.89-2.28,3.91,.3,5.88-.67,.2-.67-.15-.73-.18-1.44,1.22,.09,1.48-.54,2-.98,.92-.22,1.31-.11,2.32-.27,.02,.15,.05,.28,.31,.24,.42-.12-.42-.22-.17-.6,1.06-.09,1.29-1.24,2.31-.99-.32-.65-.01-1.05,.13-1.32,0,.16,.43,.15,.47,0-.25-.03,0-.17,.31-.12-.33,.2,.79,.9,.94,.35-.56-.23-1.54-.42-1.11-1.07-.55,.07-.8-.09-.94-.35,.18-.18,.38-.34,.61-.49-.14-.25-.44-.38-.63-.59,.69-.38,2.45-.74,3.26,.08,.62-.17,1.28-1.22,1.85-.38-.21,.04-.71,.25-.92,.61,.62,0,1.4-.76,1.86-.14-1.26,.8-3.29,1.28-5.1,1.02,1.14,.65,3.26,.1,4.8-.42,.66,.27,2.12,.12,2.94-.27,.36,.08,.42,.39,.78,.47,1.17-.05,3.8-1.21,3.72,.2,.56,.18,.09-.41,.46-.37,.27,.11,.54,.22,.48,.6-1.49,1.09-3.62,1.7-5.22,2.7,.43,.31,1.07,.45,1.11,1.07,3.44,0,4.64-2.91,8.16-2.86-.53-1.12,.91-1.63,.1-2.64,.27,0,.48-.03,.62-.13-.19-.96-.46-1.62,.26-2.28,0-.2-.43-.06-.47-.23,.52,0,.41-.48,.61-.73-.1-.17-.6-.01-.63-.23-.69-2.65-1.67-3.98-3.08-6.8-1.23-.56-1.79-1.66-2.99-2.24,.38-.49-.76-1.01-.34-1.56-.35,.04-.58-.02-.62-.23,.35,.03,.58-.04,.62-.25-.75,.11-.3-.55-.32-.6-.45-.92-1.74-1.66-2.07-2.74,1.65-.46,3.28,1.08,4.66,.42,.56,.33,1.45,.39,1.57,1.06-.49,.03-.92,.09-.92,.49,1.07,.44,2.2,.84,3.74,.91,.24,1.07,2.26,.72,3.43,1.04,0,.24-.42,.16-.3,.48,1.66-.19,3.74,.02,5.43,.41,.64,1.39,4.12,1.06,4.24,2.47,.75,.13,1.56,.22,1.87,.7-.2,.6-.75,.93-.58,1.81,.41,.65,1.71,.59,2.35,1.05,.04-.45,.97-.84,1.54-.5-.1,.24-.47,.28-.61,.49,.62,.71,.49,1.31,.97,2.03,.51-.05,1.29-.21,1.4,.34-.28,.07-.65-.34-.78,0,.5,.01,.47,.44,.94,.47-.01-.8,.62-.04,.93-.01,.44-.27-.09-.59,.29-.96,1.94-.11,3.36,2.18,4.67,1.02-.2-.16-.68-.11-1.09-.11-1.03-1.01-2.39-1.75-3.77-2.48,.04-.16,.22-.23,.15-.48-.54,.07-.82,.33-1.39,.38-.22-.23-.44-.46-1.09-.35,.62-.56-.48-.52-.48-.96,.5-.18,.43-.23,.3-.72,.31,0,.19-.33,.61-.25,1.39,.27,3,.66,4.82,.66-.68-.8-2.2-.92-3.28-1.4,.21-1.07-.37-1.39-1.28-2.14-.5-.14-.11,.39-.62,.25-.48-1.2-1.96-2.12-1.62-3.58,1.92,.06,1.88-1.35,3.85-1.25,.02-.54,.61-.65,.75-1.09-.05-.24-.32-.31-.47-.47,.1-.32,.46-.45,.76-.61,.47-1.59-1.56-1.2-1.6-2.38,1.35-.33,3.35-.17,4.33-.77-.6-.09-.86-.9-.33-1.2-.86-.37-.98-1.33-1.89-1.66-1.52,.62-1.42,1.99-3.2,2.56-1.04-1.9-5.6-1.6-7.02-1.96,.2,.05,.32,.15,.32,.36-.75,.11-1.1-.1-1.55-.22,.12,.48-.77,.21-.92,.49,.23,.1,.5,.17,.47,.47-2.42-.04-3.75,.71-6.18,.91-.02,.14,.03,.34-.15,.36-3.3-.08-5.48,.54-8.51,.82-.02,.14,.03,.34-.15,.36-.64-.21-1.46-.19-1.86-.22,.12,.02,.18,.1,.16,.24-2.4-.16-5.56,.52-6.07-1.25,.23,.13,.38,.13,.46-.13-.45-.18-1.25-.56-.8-1.07-.79,.15-1.33-.55-.95-.95-.05-.16-.23-.23-.16-.48-.5-.09-.32-.1-.62,.13,0-.16-.08-.26-.16-.36,.24-.01,.54,0,.46-.25-1.05,.12-.22-.54-.64-.83-.59,.07-.37,.75-1.23,.62,.35-.27-.06-.47-.02-.84,.1,.03,.6,.29,.62,0-.4,0-.26-.44-.48-.59-.27,0-.48,.03-.62,.13,.56-.44-.8,.02-.48-.59,1.03,.31,1.9,.09,2.94-.16,.42,.8,2.24,.48,2.66,1.29-.18,.06-.35,.13-.46,.25,.34,.09,.4,.42,.63,.59,1.69-.18,1.94,1.76,3.76,1.88,.02-.65,.81-.68,1.54-.5-.02-.6,.49-.46,1.08-.37-.36-1.12,1.32-1.27,.73-2.17,.21,.15,.58,.15,.62-.13-.12-.19-.76,.04-.63-.35,.02-.18,.37-.11,.62-.13-.11-1.26-1.9-1.16-2.52-2.01,2.42-.71,3.6,1.02,5.59,.65,0,.16,0,.32,0,.48,1.88,.41,1.81-1.58,3.38-1.36,.79-.74,1.85-1.29,3.22-1.6-.14-.15,.97-.37,1.07-.73,2.58-.04-.01-2.27,.4-3-.5-.45-1.18-.77-1.42-1.42,.57-.02,.45-.22,.15-.36,.21,0,.41,0,.62,0-.05-.75,.5-.79-.18-1.2-1.52,.37-2.92-.13-3.59-1.16,.24-.01,.11-.31,.46-.25,.12-.55-.78-.27-.79-.71,1.07,.16,1.21,1.07,2.2,1.29-.13-.34,.21-.31,.14-.6-.29-.02-.34,.14-.62,.13,.3-.24-.32-.36-.33-.72-.67,.02-.58-.19-1.25-.34-.06,.2-.9,.41-1.08,.13,.97,.03-.26-.32,.45-.49-1.33-.18-1.72-.5-2.49-.45,.51-.17,.88-.44,.91-.97-.41,.09-.3-.25-.47-.35-1.98-.22-2.8-1.42-5.15-1.62,.61-.66,2.03-.28,3.55-.52,.25-.37,.67-.6,.6-1.21-1.67,.12-3.79-.81-5.58-.05-1.05-.73-3.47,.43-5.27,.18-.71-.1-2.4-.03-2.78,.75-2.2-.04-4.5,.37-7.28,.45-.19-.31,.47-.52-.16-.48-.79,.63-2.61,.27-3.4,.64,2.63,.06,4.97,.3,7.6,.27,.04,.17,.26,.2,.32,.36-1.67-.23-3.87,1.57-3.55,.64-.16,.16-.83-.31-1.4-.22-.36,1.08-1.61,0-2.63,.15,.05,.32-.6,.1-.46,.49,.05,.36,.61,.33,.63,.71-.93,.84-1.97,.29-3.4,.4-.06-.17-.19-.2,0-.36-.37,.09-1.47,.37-1.4-.22,.76-.24,.27,.04,.78,.11,.31-.44-.03-.68-.48-.83,.46-.24,.42-.86,1.07-.97-.29-.01-.52-.07-.63-.23,.11-.27,.59-.27,.61-.61-.57,.15-1.3,.07-2.02-.22,.02,.64-.96,.43-1.23,.38,.19-.34,.63-.4,1.08-.25-.3-.54,.61-.17,.45-.61-.62-.17-2.29,1.34-3.09,.28,1.39,.18,1.64-.5,2.46-.75,.46-1.6-1.39-1.1-2.36-1.65-1.33,.18-3.32-.49-4.34-.07,.49,.14,1.54-.09,1.72,.58-.31,.6-.92-.29-1.08,.25,.69,.15,.97-.13,1.25,.35-.2,0-.14,.21-.3,.24-.63-.14-1.35-.47-1.26-.82,.06,.38-.45-.3-.46,.13,.23,.1,.23,.38,.32,.6,.76-.04,1.26,.13,1.41,.58-1.12,.64-2.05-.03-2.93,.75-.14-.26-1.12-.48-1.4-.22,.28-.02,.36,.12,.32,.36-2.26-.49-3.56-.41-5.59-.53,.56-.36,.88-.18,1.54-.38-.32-.19-.81-.25-.94-.59,.52-.26,.94-.47,.91-.85,.85-.1,1.4-.54,2.32-.27-.34-.52-1.06-.23-1.55-.1,0-.12-.13-.14-.16-.24,.73-.66,.39-1.17,.11-2.16,3.18-.66,5.83,.74,8.99,.01,1.14,.11,2.35,.75,4.04,.55-.06,.29,.29,.26,.17,.6,1.36-.31,2.64,.05,3.58,.44,.13-.82,1.32,.25,1.86-.14,.06,.17,.19,.2,0,.36,1.17-.77,1.99,.75,3.42,.32-.66-.08,.56-.66-.63-.59-.21,.28,.41,.45,.01,.48,.03-.73-1.25-.56-1.73-1.18-.85,.68-1.73,.04-2.95,.04-.12-.23-.41-.96-.79-.59,.63-.07-.11,.42-.14,.6-.89,.02-1.71-.35-2.49-.45,.27-.56,.25-.38,.92-.25-.02-.45-.18-.34-.01-.72-.72-.14-.75,.23-1.08,.37,.2-.8-1.79-.29-2.34-.69,.03,.26-.12,.38-.46,.36,.06-.17,.18-.2,0-.36-2.97,.06-5.67,.48-8.37,.22-.9,.41-3.53,.79-3.42-.44-3.25-.61-6.55-.05-10.09-.36-1.16,.61-2.64,.5-3.72,.28,.16,.03-.32,.28-.62,.13-1.1-.57,.77-.88,1.69-.86-.8,.06-.02-.79,.13-1.08,1.73-.33,3.13-.31,4.64-.66,.4,.04,.47,.35,.94,.35,.64-.48,1.37,.22,2.17,.09,.46-.07,.77-.59,1.23-.62,.5-.02,.97,.47,1.41,.46,.26,0,.71-.22,.92-.25-.02,0-.1,.24-.15,.24,.46,0,.68-.34,1.08-.37,.07,0,.12,.34,.16,.36,.57,.2,1.24-.44,1.85-.5,.45,.34-.51,.55,.17,.6,.03-.41,.69-.35,.92-.61,.45,.66,1.74-.08,1.56,.58,1.05-.23,2.9-.54,3.86-.53-.18-.02-.17-.19-.16-.36,1.16,0,1.54-.02,2.17-.27,0,.12-.12,.15-.15,.24,1.75-.09,3.24-.19,4.34-.05,.15-.16,.25-.36,.46-.48,.39,.31,.49,.17,.77-.13,.32,.22,.2,.7,.63,.47-.53-.33,.6-.4,.92-.49,0,.24,.43,.15,.32,.48,.05,.28-.45,.14-.46,.37,1.02-.05,1.01-.4,1.07-.97-.37-.19-1-.18-1.4-.34-.28,.69-1.95,.29-2.32,.03,.2,0,.14-.21,.31-.24,.03,.14-.02,.34,.16,.36,.89-.75,1.86-.35,3.09-.28-.37-.47,.29-.37,.29-.84-1.22,.02-2.46,.08-3.57,.04,.49,.23-.45,.36-.61,.49-.3-.17-1.19-.51-1.4-.34,.18,.02,.17,.19,.16,.36-.66-.53-1.6-.3-2.49-.45,.97,.05,.52-.23,1.23-.37-.68-.15-1.07-.3-1.55,.14,0-.12,0-.24,0-.36-1.45,.42-3.73-.35-5.58,.07-.03-.14,.02-.34-.16-.36-1.61,.46-4-.32-4.8,.18-.07-.45,.69-.63,1.08-.37-.12-.83-1-.18-1.4-.1,.02,0-.03-.23,0-.24-.61,.14-.88,.67-1.54,.74-.84,.08-1.09-.54-2.18-.34,.34,.56-1.14,.05-1.54,.38,1.67,.04-1.86,.59-1.87-.22,.52,.03,.58-.27,.92-.37-.85,.06-.45-.12-.63-.59-.68,.14-.77-.19-1.25-.23,.08,.38,.7,.33,.94,.59-.21,0-.34,.06-.46,.13-.36-.14-.61-.74-.94-.23,0-.21-.04-.37-.16-.48,2.49-.31,3.4-.51,5.74-.07,1.39-.38,2.88,.37,4.34-.29,.02,.23,.51,.08,.47,.35,1.92-.37,4.01,.85,5.58-.07-.44-.01-1.06,.12-1.09-.23,.48,.03,2.66-.42,2.18,.45,.37-.08,.7-.18,1.24-.14,.23-.51-.8,0-.78-.35,.7-.06,2.26-.31,2.8,.33,2.83-.06,4.97-.25,6.83,.4,.08-.62,.31,.28,.63,.23,.39-.16-.16-.58,.14-.6,.16,0,.18-.1,.31-.12,.6-.11,.56,.29,.94,.35,.18-.34,.95-.23,1.55-.26,.13,.9,1.25,.31,1.87,.34,2.54,.1,5.9,.47,7.91,.38-1.58-.32-2.11-.02-3.42-.56-1.84,.5-4.18-.18-6.2-.05,.02-.3-.25-.37-.32-.6,.18-.18,.58-.19,.77-.37-.6-.25-2.24,.51-3.26-.2-.08,.4-.58,.18-.93,.13-.49,.82-2.82,.81-3.71,.65,.03-.23,1.41-.03,.93-.25-.46,0-.94,.02-.94-.35,.27-.07,.91,.14,.93-.13-.5-.17-1.5,.06-1.26-.7-.65-.08,.22,.46-.46,.48-.04-.09-.13-.14-.31-.12-.21-.55,.27-.58,.45-.85-.7-.31-.73,.18-.77,.37-.49-.31,.4-.46-.02-.72-.67-.19-1.37-.24-1.71-.22,.18,.02,.24,.13,.31,.24-.28-.07-.64,.36-.78,0,.18-.02,.44,.02,.46-.13-.87-.32-2.28,0-2.8-.57-.38,.16,.29,.36-.15,.48-.89,.18-.81-.41-1.41-.46-.08,.18,.19,.62-.14,.6-.55-.05-1.49,.21-1.4-.34,.16-.09,1.18-.12,.77-.25-.87,.24-1.48-.02-1.85,.5-.63-.14,.1-.65-.48-.71-.21,.08-.01,.46-.3,.48-.21-.22-1.85-.7-1.09-.23-.66-.1-.78-.08-1.71-.1-.02,.18,.06,.44-.15,.48-2.6-.41-4.84,.16-7.14-.16-.06,.21,.24,.31,0,.36-.87-.18-1.59-.34-2.17,.15,0-.16,.07-.26,.15-.36-.63,.23-1.45-.03-2.02-.21,.42-.48,1.22-.08,1.38-.86-1.07,.08-1.53,1.08-2.77,.87-.21,.28,.41,.45,.01,.48-.48-.14-.61-.08-.93,.13,0-.41-.46-.44-.79-.59-1.23,.46-2.43-.34-3.56,.4-2.47-.3-6.08-.15-8.05,.34-.14-.29-.87-.12-.79-.59-.88,.45-1.38-.28-2.01,.26,.19,.01,.37,.03,.32,.24-.37,.11-.41,.08-1.08,.13-.02-.19,.01-.42-.32-.36-.48,.78-1.74,.03-2.48-.09-.04,.24,.21,.24,.32,.36-.6,.07-1.72,.16-1.87-.46,.39-.13,.55,.51,.78,.11-.22-.03-.18-.26-.32-.36-1.67,.71-4.01,.51-5.11,.42-.4-.03-.59,.38-.77,.37-.48-.02-.88-.55-1.71-.34,.15-.04-.22,0-.62,0-.15,0-1.77,.28-2.17-.21-.07-.3,1.21-.18,.77-.37-.56,.05-.74,.19-1.24,.01,.13,.62-.8,.51-1.08,.25,.49-.19,1.18-.22,1.38-.62-.96,.2-2.75,.75-2.64-.33,0,.12-.27,.15-.31,0,.63-.31,.37-.56,.91-.85-1.98,1.06-3.63-.62-5.41,.91-.04-.23,.17-.27,.15-.48-.48,0-.44,.38-1.08,.25,.03-.23-.18-.26-.17-.48-.4,.05-.85,.07-1.08,.25,.69-.06,.99,.19,1.1,.59-1.04-.17-1.53,.38-2.49-.21,.62,.11,.46-.36,1.08-.25-.16-.28-.07-.76-.63-.71-.02,.18,.06,.44-.15,.48,.09-.54-1.94-.69-2.8-.69-.16,.45,.39,.34,.33,.72-.19-.13-.55-.13-.93-.11,.32-.3,.22-.26,.14-.72-.5-.1-.2,.4-.61,.37,.01-.46-.82-.24-.94-.59-.67,.41-.87,.08-.78-.23-.58,.34-.82,.22-1.23,.61-.26-.24,.01-.15,0-.48-.66,.13-.6,.08-1.09-.11-.24,.14-.37,.35-.61,.49-.28-.24-.63-.07-.16-.36-1.71-.22-2.26,1.15-3.08,.88-.08,.89-.8,.55-1.39,.26-.21,.28,.41,.45,0,.48-.43-.26-.79-.22-1.4-.1-.14-.38,.24-.37,.3-.6-.34,.2-.84-.02-.93,.13,.22,.06,.38,.18,.47,.35-.37,0-.45,.21-.93,.13,0-.12,0-.24,0-.36-1.3,.67-3.14,.09-3.71,.65-.5,.11-.33-.31-.63-.35,0,.17,.08,.26,.16,.36-.38,.28-2.22-.62-1.24,.02-.73-.04-.96-.51-1.4-.22,.36,.03,.37,.32,0,.36,.22-.18,.11-.38-.32-.36-.14,.21-.48,.27-.77,.37,.41-.33-.72-.21-.93-.11,.12,.02,.31,0,.31,.12-.31,.05-1.14,.31-1.39,.02,.09-.17,.6-.03,.62-.25-.53-.21-.69,.17-1.24,.25-.25-.71-1.53,.56-1.71-.34,1.25,.45,2.03-1.1,2.79-.15,.02-.68,.54-.28,1.23-.5-.19-.38,.24-.29,.3-.48-.72-.09-.44,.14-.61,.25-.15-.13-.57-.03-.47-.35,.18-.02,.44,.01,.46-.13-.64,.1-.97-.04-1.09-.34-.81,.29-1.38-.04-3.1,.16-.29,.21,.22,.37-.3,.48-2.03-.52-3.85,.56-5.42,.31-.31,.37,.3,.69-.45,.73-.39-.16-.28-.41-.17-.72-1.41,.49-2.34-.22-3.88-.07-.62,1.03-2.77,.06-3.7,.88,.72-.18,1.64-.19,2.02,.22-.57,.44-2.39,.6-2.18-.21-.84,.44-1.58-.47-1.85,.26-.19-.76-1.95-.71-2.95-.44,.15-.04-.23-.13-.62-.11-2.05,.11-4.58-.04-6.5,.56-.02-.19,.01-.42-.32-.36-.01,.31-.02,.62-.45,.61-.1-.26,.43-.39-.16-.36-.14,.2-.48,.36-.77,.13-.34,.18,.2,.29-.15,.36-.29-.01-.52-.07-.62-.23,.01-.19,.39-.1,.3-.36-.56,.27-.7,.16-1.39,.38-.02,.41,.52-.02,.63,.47-3.31,1.55-7.33,1.18-10.82,1.45-.18-.31,.96-.2,.46-.37-1.49,.34-1.81,.71-2.94,.15-.57,0-.59,.43-.92,.61-.55-.29-2.15,.56-2.79-.21-.08,.44-.76-.04-1.08,.37-.03-.44-.29-.34-.47-.11-.08-.69-.86-.16-1.1-.59-.24,.41-.69,.33-1.24,.13-.34,.18,.2,.29-.15,.36-.77-.27-1.89,.36-2.33-.45-.42,.56-2.49,.41-2.95-.08-.1,.68-1.85,.57-1.86,.26-.56,.33-1.17,.62-1.84,.86,.08-.18,.22-.3,.3-.48-2.86-.1-5.12,.61-8.68,.1,.01,.21-.11,.31-.3,.36-1.07-.9-3.52,.77-3.58-.68-.79,0-.06,.42-.61,.61-1.78-.1-3.05,.31-4.03-.19-.97,.34-1.42,.22-2.63,.51-.05-.27,.45-.14,.46-.36-1.49,.08-2.26,.4-3.41-.2,.07,.57-.81,.41-.91,.85,.85,.03,1.91,.04,2.34,.69-.67,.24-.97-.43-1.24-.1,1.53,.79,2.39-.13,4.19-.05,0,.16-.07,.26-.15,.36,.61,.21,1.3-.09,1.85-.26,2.96,.74,6.5-.68,9.31,.25,.9-.55,2.57-.52,4.02-.65-.24,.57-1.78,.16-2,.74,.77,0,3.84-.4,3.42,.44,0-.32-.1-.71,.3-.72,.42-.09,.32,.23,.62,.23,.27-.68,2.84-.33,3.71-.28-.12-.03-.18-.1-.16-.24,.29,.22,1.31-.46,1.86-.02-.35-.03-.58,.04-.61,.25,.64,.43,.52-.48,1.23-.37,.05,.28-.44,.14-.46,.37,1.31-.18,3.65,.07,4.8-.18,.18-.39-.5-.09-.32-.48,.23,.06,.8-.15,.78,.11-.03,.17-.25,.2-.3,.36,2.38,.04,4.7-.22,7.59-.09,.4,.55,2.26-.14,3.1-.04,1.11,.14,2.93-.17,4.49-.29,2.49-.2,5.04,.19,7.12-.45,.02,.19-.01,.42,.32,.36,.02-.18-.06-.44,.15-.48,.72,.08,1.25,.31,1.56,.7,.15-.24,.38-.43,.61-.61-.27-.03-.77,.35-.93,.01,.29-.06,.27-.35,.77-.25,.65,.76,.28,.26,1.25,.47-.27,0-.4,.1-.46,.24,.7-.39,1.8,.25,2.48-.15-.81-.19-1.06-.06-1.71-.34,.8-.09,.99-.02,1.7-.26,.15,.22-.46,.41,0,.48,.72-.51,1.95,.79,2.95,.2-.31,.11-.86-.18-.47-.23,.38-.02,.48,.18,.78,.23,.58-.83,1.72-.09,2.47-.51,.39,.16,.37,.33,.48,.47,.25-.4,1.69-.54,2-.5,.08,.38-.71,.1-.77,.37,1.55-.1,2.07-.52,2.78-.75,.36-.04,.18,.34,.47,.35-.26-.52,.91-.65,1.69-.74-.04,.42,0,.62-.14,.72-.17-.14-.71-.04-.93,.13,.45,.23-.45,.44-.45,.73-.32-.06-.33-.18-.16-.36-1.14,.29-2.57,0-3.72,.28,.02-.14,.27-.27,0-.36,.25,.42-.52,.08-.46,.37,.45,.23-.35,.52-.61,.61,.17-.18,.16-.3-.16-.36-.34,.74-1.17-.07-1.54,.38-.36-.17,.3-.38-.32-.36,0,.16,0,.32,.01,.48-.56,.07-2.18,.13-2.63,.15-.39-.05,.44,.59-.3,.48,.1-.55-1.71,.25-1.87-.58-1.43,.41-2.02-.15-3.25,.4-.07-.2-.92-.39-1.09-.11,.25-.09,.68,.23,.31,.24-2.29-.52-5.34-.15-7.76-.39,.17,.02,.24,.13,.31,.23-.21,0-.41,0-.62,0-.01-.17,.07-.26,.15-.36-.53,.31-1.35-.43-1.71-.22,.45,.13-.25,.14-.31,0-.1,.33-.02,.27-.46,.49,.23,.02,.57-.05,.62,.11-1.32,.51-3.26-.02-4.65-.06-.48,.23,.53,.4,.01,.6-.49-.43-1.19,.59-1.39,.02,.12-.31,1.59-.22,.91-.73-.73,.32-1.23,1.1-2.16,.62,.16,1.18-1.95,.67-2.61,1.23-.37-.23-1.41-.58-2.02-.22,1.12,.12,2.07,.38,2.5,1.05-.18,.02-.44-.02-.46,.13,.88,.19,.54-.54,1.39-.38,.01-.45-.91-.17-.94-.59,1.24-.08,2.36-.15,3.26,.08-.5-.1-.21,.4-.61,.37-.14-.1-.88-.33-.93-.11-.21,.63-1.95,1.09-2.94,.52-.45,.69-1.36,0-1.55,.02,.42,.1-.12,.44-.3,.48,0-.55-1.59-.38-.77,.13-.64,.02-.77-.29-.78-.47-.49,.27-1.01,.5-1.38,.86,.01-.3,.29-.38-.17-.48-.37,.17-.09,.24-.3,.36-.12-.03-.18-.1-.16-.24-.54,.87-1.88-.38-2.17,.02,.19,.01,.37,.03,.31,.24-.71-.05-1.47-.05-1.71-.46-.22,.54-.53-.19-1.09-.11-.2,.8-2.83,.91-2.63,.27-.52,.31-.84,.68-1.55,.26-.18,.63,1.05,.14,1.25,.47-.44,.3-1.69-.01-2.16,.27-.39-.33-.68-.56-.64-.95-.41,.09-.46,.45-.76,.61,.18,.02,.44-.03,.47,.11-.55,.45-1.76,.27-1.71-.46,.38,.11,.5-.54,.3-.48-.21,.51-1.23,.42-1.53,.86,.7,.17,.47-.36,1.08-.25,.2,.37-.14,.49,.32,.72-.94-.06-1.37-.02-2.01,.14,0-.24,.42-.16,.3-.48-.58-.12-.3,.41-.61,.49-.29-.14-.71-.17-.78-.47-1.29,.66-2.23,.33-4.02,.41-.21,.53,.93,0,.94,.35-1.71,.67-3.52,.56-5.25,1.14,.03-.17,.25-.21,.3-.36-.93,.55-1.62-.05-1.85,.5-2.28-.55-7.27-.06-9.32-.73-1.18,.03-2.72,.79-3.57-.08-.6,.49-2.12,0-2.63,.39,.24,.03,.03,.2-.15,.24-2.46-.48-3.66,.67-6.5,.32,.1,.61,1.98-.2,1.72,.7,1.54,.07,2,.46,3.42,.44-.18,.02-.44-.02-.46,.12,.12,.03,.31,0,.31,.12-.71-.06-1.19,.06-1.39,.38,1.11-.11,2.56-.24,3.57,.2-.28,.53-2.31-.04-2.48,.27,.96,.21,1.83,.49,2.96,.57-.49,.38,.46,.04,.32,.48-.68,.32-1.07,.03-1.55,.14,.19-.04,.54,.34,.16,.36-.49-.16-.52-.02-1.08,.01-.03-.16,.62-.37,.15-.48-.6,.31-1.72,.85-2.17,.27-.03,.23,.18,.26,.17,.48-.38-.01-.75,0-.93,.13,0-.12,0-.24,0-.36-.94,.26-1.38,.47-1.84,.86-.52-.11-2.38-.32-2.63,.15,.81,.17,1.92-.44,2.49,.33,2.09-.07,4.57,.15,5.89-.07,.85-.14,2.05,.18,2.79,.09,.75-.1,1.88-.41,2.33,.21-.48-.25-1.05,.21-1.55-.1-.34,.18,.2,.29-.15,.36-7.65-.68-16.01,1.86-24.47,1.49,.08,1.09-2.32,.68-3.09,.4-.38,.67-1.39-.05-1.54,.5,.38,.26,1.47-.04,1.56,.46-.09,.21,.2,.7-.14,.72-1.88,.24-2.98-.74-3.88-.19,.98-.03,1.76,.87,3.27,.8-.22,.02-.2,.99,.01,.6-.18-.82,.72-.15,1.07-.61,.53,.02,.68,.35,.79,.71-.46,.53-1.74,.43-2.31,.87,.04,.5,.56,.69,1.09,.47,2.38,.92,6.39-.25,8.99,.01,.31,0,.2,.32,.62,.23,1.37-.14,3.61-.81,4.96,.06,.96-.21,1.76-.07,2.79-.03,.05-.32,.37-.44,.92-.37-.25,.24,.02,.15,.01,.48-.4,.05-.85,.07-1.08,.25,.2,.16,.82,0,.63,.47-1.04,0-1.38,.54-2.31,.63,.3,.05,.29,.34,.78,.23,.65-.69,2.28-.65,2.6-1.59,.35,.1,.58,.62,.33,.84,1.2,.62,2.99,0,4.19,.43,.01,.44-.57,.44-.76,.73,1.12,.05-.16,.32-.14,.6,.82-.41,2.28-.34,3.4-.52,7.79,1.35,16.76-.22,24.19,.43,2.2-.33,4.54-.39,6.03-.55,.89-.55,2.73-.86,3.56-.52,.5-.32,2.8-.34,3.56-.4-.96,0,.05,.16,.16,.36-1.3,.04-2.21-.13-2.47,.51-.19-.06-.35-.12-.47-.23,.12-.03,.31,0,.31-.12-1.02-.16,.23,.78-.6,.85-.13-.64-1.08,.13-.94-.71,.49-.07,.64,.28,.77-.13-1.39-.04-2.69,.15-3.4,.28,.54,.42,1.62-.16,2.32-.03,.16,.16,.16,.44,.32,.6,.82,.28,1.57-.12,2.02,.45-2.12,.43-1.69-.38-3.11-.32,.09,0,.18,.1,0,.12-.99,.11-1.44-.08-2.32,.15-.35-.17-1.43-.92-1.4,.02,.6-.11,1.35-.16,1.56,.34,1.34,.21,2.08-.73,2.94-.28-.67,.05-1.15,.24-1.38,.62,.67,.07,.49-.5,1.23-.38-.03,.17-.25,.21-.3,.36,.72-.23,2.05-.45,2.33,.09-1.29,.23-2.44,.3-3.4,.52,.01-.17-.04-.46-.16-.24,0,.08,0,.16,0,.24,1.4,.5,2-.5,2.95,.33-.7-.07-1.32,.34-1.86,.02-.25,.66-1.78,.79-2.62,.63,2.15,.83,3.8-.64,5.72-.79,.14,.43-1.08,.44-.45,.85,2.12-.72,5.03,.35,6.98,.28-1.84,.45-3.45,.65-4.95,.42-.48-.03,.4,.34-.15,.36-1.26-.42-3.8,0-5.73,.31,.06-.17,.18-.2,0-.36-.92,.88-2.71,.23-3.71,.52,.12,.02,.31,0,.31,.12-2.31-.25-5.41-.22-7.59,.45,0-.16,0-.32,0-.48-2.38,.49-5.93,1.05-8.67,.46,.03,.26-.12,.38-.46,.37-6.74-.24-14.48,1.09-20.76,.73,.24,0,.54-.02,.47,.23-2.9-.64-5.41-.33-8.07-.26-.33-.18-.48-.51-.79-.71,0,.52,.23,.27,.33,.84-1.21-.52-2.89-.46-4.19-.19,0-.12,0-.24,0-.36-.96,.48-2.24,.65-3.1,.28,.18,.02,.17,.19,.16,.36-.8,.11-1.47,.18-1.56-.22-.42,.12-.97,.05-1.25-.35-.59,.11,.03,.59-.3,.72-5.89-.48-13.96-.23-20.46,.13,5.31,.09,10.63,.29,16.12-.19-.02,.34,1.01-.16,.78,.35,2.99-.45,6.92,.5,9.77-.12,.03,.14-.02,.34,.16,.36-.14-.46,.32-.47,.61-.61,.33,.53,1.44-.02,2.18,.57,.2-.53,2.1-.01,2.48,.09,.15-.16,.14-.45,.46-.49,.1,.44,.76-.06,1.09,.35,.45-.54,1.27-.22,2.01-.38,.14,.72,1.07,.34,1.87,.34,.34-.18-.2-.29,.15-.36,3.96,.27,7.77-.08,12.1,.34-.12,.03-.31,0-.31,.12,.48,.09,.29-.33,.77-.25,0,.33,.26,.24,0,.48,.73-.25,1.7,.01,2.48,.09,.17-.38-.25-.29-.32-.48,.37,.04,.33-.22,.77-.13,0,.24-.42,.16-.3,.48,.73,.15,.51-.4,1.24-.25-.08,.57,.78,.12,1.25,.47,.3-.45,.36-.46,.3-.72,.42,.1,.73,.18,.93-.13,0,.12,0,.24,0,.36,.3-.11,1.52-.58,1.71-.02-.68-.14-1.33,.51-2.17,.03,.08,.97,3.05-.23,3.58,.68-3.44,.19-6.06,.02-9.61,0-.06,.21,.24,.3,0,.36-.27-.07-.91,.16-.93-.11,.17-.3,.65,.28,.62-.25-.78-.05-2.24,.06-2.63,.15,.31,0,1,.32,.48,.59-2.75-.54-6.08-.1-8.53-.14-3.55-.06-7.13-.31-11.02-.47,0-.08,0-.16,0-.24-1.44,.58-2.72-.23-3.87,.41-.43-.1-.86-.21-.94-.59-.27,.07-.91-.13-.93,.13,.68-.05,1.05,.13,1.1,.59-.86,.06-3.15,.02-4.19-.19-1.44,.47-3.68,.1-4.95,.54,.9,.35,2.95-.49,3.11,.68-.98-.27-1.72,.56-2.79,.15,.05,.41-.3,.41-.92,.25-.71,.97-3.08,.02-4.33,.65-.36-.28-.88-.44-1.41-.58-.09,.39,.56,.16,.17,.48,.27,.07,.91-.16,.93,.11-3.34,.26-5.76,.58-8.67,.7,.04,1.12-1.67,.24-2.16,.51,.71,.55-1.28,.12-1.86,.14-1.41,.06-2.94,.43-3.71,.64,.71,.56,1.56-.24,2.48,.09-.05,.28-.15,.52-.45,.6-.13-.2-1.04,0-.92,.37,.85-.17,1.29,.02,2.02,.22-.9,.36-2.07,1.11-3.09,.4-.66,.54-1.78,.31-3.09,.52,.28,.65-1.18,.47-2.16,.51-.75,.55-.02,.82-1.22,.97,.4,.23,.71-.13,.93,.11-.3,.57-.57,1.15-1.68,1.1,.03-.17,.25-.2,.3-.36-.8,.08-1.71,.4-1.85,.62-.71-.29-.56,.05-1.08,.13-.82,.13-2.1-.3-2.47,.39,.58,.27,1.34-.2,1.56,.46-.58,.33-1.03-.32-1.08,.13,.45,.33,1.96-.19,2.02,.46-.31,0-.62,0-.93,.01,0,.36,.81,.33,.33,.72,.22-.07,.8,.13,.77-.13-.34,.03-.5-.09-.47-.35,.4-.02,1.24,.05,1.86,.1-1.08,.74-3.66,.74-4.95,.66-.12,.23-.19,.49-.45,.61,.72,0,1.43,0,.62-.25,.58-.06,.71,.25,.94,.47-1.11,.58-.87-.13-1.86,.02,.56,.08,.78,.28,.32,.6ZM146.99,17.84c.11-.42,.54-.15,.78,0-.03,.28-.68,.08-.78,0Zm24.32-1.01c.21-.05,.87-.23,1.39-.38-.08,.1-.16,.2-.15,.36-.45-.02-.79,.04-.93,.25-.17-.03-.11-.24-.31-.24Zm59.6-4.32c0,.21,.12,.31,.31,.36-.02,.26-.38,.26-.77,.25,.26-.25-.12-.23,.15-.48-.29-.05-.93,.17-.78-.23,.2,.16,.68,.11,1.09,.11Zm92.41,16.17c.03-.31,.27,.16,.62,0,0,.12,0,.24,0,.36-.32,.06-.41-.08-.62-.11,.09-.11,.18-.22,0-.24Zm15.19,46.02c.73,.22,1.67-.47,1.86,.1-.4,.19-1.74,.53-1.86-.1Zm-148.64-5.78c.77-.13,1.5-.19,2.48-.03-.8,.29-1.64,.21-2.48,.03Zm-120.79-8.75c0-.24,.42-.16,.3-.48,.49-.06,.55,.21,1.09,.11-.02,.14-.28,.1-.46,.13-.02,.14,.04,.21,.16,.24-.09,.26-.95,.12-1.08,.01Zm6.58-4.16c.15-.25,.59-.27,1.08-.25-.07,.34-.58,.35-.92,.49,.02-.14-.04-.21-.16-.24Zm7.99-3.7c.16-.27,1.48-.62,1.4-.02-.64-.11-.63,.02-1.4,.02Zm17.91,11.79c-.6-.18,1.25-.52,1.08-.01-.24-.03-.87-.13-1.08,.01Zm4.04,.55c-.14-.25,.78-.25,.3-.36,.11-.16,1.51-.32,1.4,.1-.8-.09-1.17,.14-1.7,.26Zm30.37-39.73c0-.37,1.01-.29,1.24-.14-.23,.44-1,.16-1.24,.14Zm6.79,21.64c-.07-.51,.67-.11,.93-.13,0,.33-.72,.29-.93,.13Zm18.13-.58c.15,.47-.82,.1-.92,.37,.11,.16,.41-.06,.78,.11,1.56-1.24,4.54-.43,6.81-.56,1.86-.11,3.45-.67,4.79-.54,.1,.12,.36,.12,.32,.36,.53-.33,1.16,.06,1.86-.02,.22,.39-.17,.3,.62,.23-.29,.23-.01,.3,.01,.6-.42,.09-.3-.24-.47-.35-.22,.19-.51,.33-.61,.61-.31-.08-.36-.36-.63-.47-.31,.04-.3,.33-.61,.37,.32,.39,1.45,.02,1.87,.58-.76,.08-.95-.3-1.71-.22,.37,.19,.94,.22,1.4,.34,1.32-.44,1.13-1.58,2.6-1.71-.09-.29-.59-.26-.94-.35,1.14-.6,2.29,.1,3.09-.52,.21,.12,.58,.11,.63,.35,.44-.08,1.38-.58,1.55-.14,.29-.02,.1-.4,.46-.37,1.04,.77,3.12-.36,4.19,.19,.76-.55,2.61-.46,3.25-.28,.81-.92,3.67-.58,4.81-.06,1.19-.07,1.06-.38,2.16-.39-.33-.03-.97-.43-1.09-.23,.02-.44,.76-.38,1.85-.38-.02,0-.16,.14-.31,.12,1.57,.19,4.71-1.2,6.52,.28-.64-.01-1.2,.05-1.54,.26,.36-.2,2.12,.35,2.32-.39,.49-.06,.64,.14,.78,.35-.05,.28-.09,.56-.61,.49-.06,.29,.7-.08,.47,.35-1,.03-1.6-.26-2.64-.21,.35,.25,1.01,.34,2.02,.34-2.25,.66-3.7,.78-6.19,.55,.02,.55,.95,.38,1.1,.83-1.65-.24-2.75,.51-3.87,.29,0-.08,0-.16,0-.24-.08-.26,.22-.23,.46-.24-.28-.36-.82,.08-.61,.49-.51,.01-.77,.21-1.39,.14,.02-.26,.38-.26,.77-.25-.47-.51-1.55,.14-2.32,.39-.55,.19-.1-.41-.47-.35-.6,.25-3.93,.35-4.65-.06-.4,.16-.48,.25-.3,.6-.56,.08-.87-.03-.94-.35-.59,.61-1.55,.13-2.33-.09-.55,.02,.34,.39-.15,.36-.39,.01-.19-.09-.16-.24-.58,0-.46,.52-1.23,.37,.12-.3,.19-.64,.13-1.08-.34,.02-.06,.51-.14,.72-.66,.12-.6-.33-1.09-.35,.24,.52-.77,1.35-1.23,.5,.53-.1,.66,.13,.93,.23-.02-.3-.3-.37-.01-.6-.74,.34-.8,.06-1.55-.1-.06,.28-.43,.64,.02,1.08-.49-.18-1.09-.26-1.56-.46,.01-.31,.51-.24,.93-.25,.27-.03-.24-.44-.32-.6-.35,.07,.19,.18-.15,.36-.36-.03-.59-.18-1.09-.11-.26-.24,.01-.15-.01-.48-.97,.37-.5,1.19-1.53,1.1,.07,.15,.2,.24,.47,.23-1.7,1.03-4.23-.37-5.57,.43-.49-.26-.21-.38-.78-.11-.31-.62,.35-.82,.91-1.09,.07,.25-.1,.32-.15,.48,.75,.08,1.95,.6,2.95-.04-1.39,.05-2.27-.42-3.42-.44,.16-.38,.06-.32-.17-.6-.53,.12,.43,.69-.14,.84-.24-.33-1.29,.24-2.02-.22-.22,.04,0,.21,.16,.24-.25,.31-.57-.35-1.09-.23,.11,.11,.29,.18,.47,.23-.09,.36-.33-.11-.62,0,0,.12,.19,.09,.31,.12-.05,.32-.79,.12-.92,.37-.25-.24-.81-.59-1.09-.11-2.04-.52-4.27-.53-6.37-.52,0-.12,0-.24,0-.36-1.49,.47-2.85,.22-4.34,.29,1.09-.9,2.98-.26,4.64-.42,.92-.09,1.66-.58,2.63-.39Zm-11.92,.86c1.03-.91,3.11-.15,4.64-.42-.99,.75-3.42,.36-4.64,.42Zm8.76,19.58c.49-.52,1.1-.21,2.01-.38-.39,.29-1.36,.66-2.01,.38Zm16.48-20.96c-.05-.32,.21-.4,.61-.37,0,.12,0,.24,0,.36-.21,0-.41,0-.62,0Zm1.58,24.7c.34-.34,1.11,0,1.55-.02-.28,.29-1.21,.08-1.55,.02Zm.16-23.16c.45,0,.38,.67,.17,.84-.59-.1-.12-.48-.17-.84Zm.47,.11c.02-.14,.28-.11,.46-.13-.12,.34,.22,.31,.17,.6-.41,0-.4-.33-.63-.47Zm.57,20.87c.12-.27,1.03-.41,.93,.11-.47,.09-.57-.12-.93-.11Zm4.83,1.26c.36,.05,.8,.23,1.09-.01,.38,.13-1.18,.75-1.09,.01Zm-.21-26.16c.07-.41,.74-.19,1.08-.13-.13,.46-.62,.1-1.08,.13Zm.86,27.23c-.03-.49,1.21-.04,1.39-.38,.54,.03-.27,.54,.16,.48-.38,.08-1.02-.06-1.55-.1Zm1.79-49.83c.04-.25,.42-.24,.46-.49,.24,.05,.14,.38,.62,.23-.01,.34-.64,.23-1.08,.25Zm1.56,.22c.67-.05,1.25-.3,2.01-.15-.23,.49-1.48,.17-2.01,.15Zm.4-3c.4,.25,.88-.12,1.09,.11,.1,.44-1.33,.34-1.09-.11Zm.21,2.64c.08-.29,.59-.51,.92-.25-.23,.17-.66,.45-.92,.25Zm2.48,.09c.32-.26,.73-.44,1.24-.25,.03,.26-.55,.06-.77,.13-.02,.26,.55,.05,.78,.11-.41,.37-.7,.1-1.24,.02Zm5.1-.78c.14-.59,1.25,.01,1.54-.26-.34,.47-.88,.07-1.54,.26Zm.63,.47c.17-.24,1.19-.15,1.39-.02,.07,.29-.71-.06-.46,.37-.24-.17-.61-.24-.94-.35Zm.93,23.15c1.25-.52,1.87-.54,3.24-.76-.06,.23-.71,.02-.46,.49-1.13-.06-1.79,.23-2.78,.27Zm.15-23.65c.31-.17,1.64-.72,2.02-.02-.55-.3-1.37,.02-2.02,.02Zm.79,.95c.06-.3,.52-.56,.77-.37-.14,.21-.28,.42-.77,.37Zm.77-.49c.53-.2,1.51-.08,2.32-.15-.3,.62-1.56-.11-1.54,.62-.32,.05-.41-.08-.62-.11,.26-.12,.53-.45-.16-.36Zm4.4,49.15c-.17-.4,.48-.19,.77-.25,.12,.41-.53,.44-.77,.25Zm-.52-49.08c1.19-.24,2.79-.09,4.64-.42-.13-.51-.75,.12-1.09-.23,.05-.4,.89-.2,1.39-.26,.32,.43-.21,.6,.02,1.08-1.9-.04-3.2,.31-4.96-.18Zm3.59,24.68c.01-.58,.93-.48,1.7-.5-.1,.61-1.1,.52-1.7,.5Zm2-.98c0-.6,2.44-.04,.62-.13-.14,.09-.35,.13-.62,.13Zm1.37-24.38c-.13-.46,.73-.16,1.08-.25-.22,.35-.41,.14-1.08,.25Zm1.25,.34c.05-.32,.4-.41,.77-.49-.12,.11-.16,.27-.15,.48-.21,0-.41,0-.62,0Zm3.69-1.36c.04-.11,.57-.41,.62-.13,.15,0,.12-.15,.15-.24,.45,.1,.18,.18,.17,.48-.47,.09-.46-.2-.93-.11Zm1.55,.1c.09-.11,.18-.22,0-.24-.03-.26,.55-.06,.77-.13-.14,.21-.28,.42-.77,.37Zm3.7-1.12c.13-.42,.62,.02,1.08-.25,.13,.45-.73,.16-1.08,.25Zm.38-4.08c.6,.13,1.2,.26,1.1,.95-.32-.35-1-.42-1.1-.95Zm.38,3.48c.22-.19,1.04-.4,.15-.48,.2-.52,.98-.07,1.55-.14-.51,.41-.81,.39-1.69,.62Zm1.83,52.78c.27-.25-.12-.23,.15-.48,1,.24,1.25,.24,2.17,.21-.32,.43-1.53,.19-2.32,.27Zm-.8-55.44c-.19-.51,1.26-.53,1.08-.01-.56-.09-.74,.28-1.08,.01Zm.37,2.88c0-.37,1.01-.29,1.24-.14-.38,.23-.6,0-1.24,.14Zm3.07,52.41c-.15-.44,.81-.23,.93-.13-.13,.23-.67,.33-.93,.13Zm-.61-53.64c-.04-.36,.54-.43,.77-.25-.13,.18-.38,.26-.77,.25Zm3.08-1c1.04,.06,1.86-.45,2.63-.27,.12,.37-.26,.36-.14,.72-.24-.22-1.06,.03-.94-.47-.21,.43-1,.04-1.55,.02Zm.31,.12c.27,.2,.14,.7-.45,.6,.45-.72-.69,.07-.79-.59,.63,.09,.53,.01,1.24-.02Zm1.66-2.3c.41-.36,.6-.11,1.08-.01-.41,.36-.6,.11-1.08,.01Zm10.78,58.2c-.05-.19,.14-.21,.15-.36,.5-.03,.66,.2,1.24,.1-.06,.38-1.06,.45-1.39,.26Zm.43-55.93c.36-.42,.98,.05,1.23-.5,.8,.07,1.1,.33,1.71-.02,0,.2,0,.4,.01,.6-.85-.15-1.96,.16-2.95-.08Zm2.2,55.78c.56,.19,.75-.03,1.24,.11-.05,.4-1.32,.34-1.24-.11Zm.89-56.06c.5-.61,1.74-.57,2.32-.15,.58-.57,1.15-.99,2.31-.51-.39,.35-1.49-.08-1.69,.86-1.3-.18-2.34,.03-2.95-.21Zm.34,1.56c0-.35,.87-.29,1.08-.13-.09,.33-.42,.48-.92,.49,.01-.17,.02-.34-.16-.36Zm1.4,.22c.1-.44,.62,.02,1.24-.13-.02,.22,.19,.25,.16,.48-.5-.09-1.03-.15-1.4-.34Zm2.54,56.98c.33-.22,.71-.22,1.08-.13-.15,.47-.53,.02-1.08,.13Zm-1.05-60.35c.02-.27,.66-.06,.93-.13-.33,.27,.04,.26,.47,.23-.18,.49-.95-.06-1.4-.1Zm.81,1.79c0-.12,0-.24,0-.36,.26,0,.52,0,.77,0,.06,.36-.5,.25-.77,.37Zm1.64,58.79c.14-.21,.48-.27,.93-.25-.08,.29-.59,.51-.93,.25Zm.43-1.81c.01-.23,.58,.09,.78,.11-.16,.48-.61,.09-.78-.11Zm1.23-.49c.01-.31,.51-.24,.92-.25,.05,.38-.67,.44-.92,.25Zm1.56,.34c-.18-.02-.09-.12,0-.12,.04-.32-.6-.09-.47-.47,.37,.04,.33-.22,.77-.13,.07,.11,.14,.21,.31,.24-.01,.31-.6,.18-.61,.49Zm-.25-58.92c.03,.14,.28,.1,.47,.11,.15,.22-.46,.41,.01,.48-.15,.19-.63-.38-.79-.59,.55-.05,.37-.34,.93-.13-.05,.16-.39,.11-.62,.13Zm1.54,61.55c-.04-.39,.84-.55,.77,0-.2,.16-.57,.16-.77,0Zm.1-2.52c-.08-.38,.41-.32,.45-.61,.21,.08,.29,.25,.32,.48-.18,.1-.41,.16-.77,.13Zm1-58.1c.08-.1,.16-.2,.15-.36,.18,.04,.4,.21,.16,.24,.1,.12,.36,.12,.32,.36-.14-.07-.28-.14-.31,0-.17-.03-.11-.24-.32-.24Zm1.08-.49c.11,.46,.14,.49-.14,.84-.24-.24-.5-.82,.14-.84Zm1.98,59.86c.02-.14-.04-.21-.16-.24,.34-.25,.29,.25,.93-.01-.05,.2,.13,.22,.31,.24-.3,.3-.58-.35-1.08,.01Zm.74-55.82c1.16-.59,4.01-.4,5.1-.66-.44,.76-3.51,.54-5.1,.66Zm1.69-.86c0-.12,0-.24,0-.36,.38-.02,.75-.03,.93,.11-.01,.31-.51,.24-.92,.25Zm1.08-.37c0-.12,0-.24,0-.36,.3,.05,.67,.04,.63,.35-.21,0-.41,0-.62,0Zm.74-1.93c.03-.14,.16-.07,.16,0,.53-.56,.13,.32,.63,.23-.04,.16-.39,.1-.62,.13,.01-.17,.02-.34-.16-.36Zm3,2.48c.02-.42,.85-.23,1.23-.38-.19,.55-.74,.14-1.23,.38Zm7.11,60.64c.21-.18,.79-.35,1.08-.13-.06,.27-.76,.06-1.08,.13Zm14.17-58.86c1.29,.81,.43,1.35-1.37,1.22,.14,.18,.5,.17,.78,.23,.08,.38-.71,.1-.77,.37-.21-.04-.13-.3-.16-.48-1.5,.14-1.61,.2-3.25,.28-.22-.45-.79,0-1.1-.47-.42,.11,.48,.26,.01,.48-1.09-.08-.99-.41-2.17-.21-.02,.34,1.01-.16,.78,.35-.72-.18-1.28-.07-1.86,.14-.05-.28,.02-.46,.14-.6-.41-.03-.51,.17-.46,.49-.78,.14-.96-.21-1.25-.46,.81-.9,3.61-.02,4.64-.66,1.85,.28,3.51,.18,5.43,.3-.03-.22-.53-.07-.62-.23,.02-.37,.94-.24,.93,.11,.43-.25,.46-.35,.29-.84Zm-8.53,61.67c.11-.27,.72-.41,.93-.25-.14,.21-.48,.27-.93,.25Zm.48,.83c-.13-.46,.73-.47,.62,0-.21,0-.41,0-.62,0Zm-.18-8.88c.29-.22,1.69-.3,1.4,.34-.5-.32-.87-.27-1.4-.34Zm.78,7.79c.86-.56,2.27,.03,3.1-.16-.26,.16-.41,.4-.45,.72-.78-.01-1.37-.45-2.02-.22-.14-.17-.13-.46-.63-.35Zm-.24-58.56c.11-.27,.87-.06,1.24-.14-.27,.59-.6,.17-1.24,.14Zm1.39,53.87c.12-.11,.16-.27,.14-.48,.48-.1,.31,.33,.78,.23-.01,.31-.52,.24-.92,.25Zm.44-1.08c0-.12,0-.24,0-.36,.75-.29,1.15,.07,2.02,.22-.62,.3-1.26-.1-2.01,.14Zm2.01-.26c1.3-.38,2.34,.32,3.88-.05-.15,.29-.05,.26-.14,.72-.73-.38-2.22-.6-2.48-.09-.27-.03-.36-.2-.32-.48-.45,.11-.17,.18-.15,.48-.45-.05-.38-.51-.79-.59Zm-.57-51.48c-.03-.54,.47,.05,.93-.13-.21,.3-.53,.22-.93,.13Zm1.62,3.34c1.73-.55,4.46-.22,6.2-.19,.39-.13-.14-.53-.47-.47,.15-.34,.66,.03,.93-.01,.02,.22-.18,.26-.15,.48,.07,.27,.76,.04,1.09,.11-2.09,1.19-4.24,.32-7.43,.45,0-.17,.02-.34-.16-.36Zm.17-6.96c.15-.2,.65-.14,.92-.25-.02,.21,.19,.25,.16,.48-.62,.13-.47-.35-1.09-.23Zm2.97,55.65c0-.47,.66-.45,1.23-.49,.02,.21-.18,.26-.15,.48-.35-.27-.6,.05-1.08,.01Zm.46-54.37c.04-.28,.24-.45,.14-.84,.86,.08,1.23,.34,2.18,.57-.51,.53-1.38,.06-2.32,.27Zm4.76-2.22c-.26,0-.51,0-.77,0,2.52-.4,5.92-.62,8.99-.11,.17-.03,.1-.24,.31-.24,.36,.04,.64,.14,.93,.23-.03,.37-.77,.21-1.24,.25,0,.17-.02,.34,.16,.36-1.51,.26-4.22-.03-6.5,.68-.51-.12-.98-.27-1.25-.58-.45,.11,.1,.38,.01,.6-.39,.1-.72-.46-.93-.11-.45-.1-.18-.18-.17-.48-.78,.19-1.35,.34-1.86,.26-.15,.4,.49,.18,.78,.23-.48,.43-1.58,.28-2.02,.02-.12-.46,.71-.8-.17-.84,.67-.43,2.46,.37,2.79-.15-1.18-.28-3.26,.17-3.89-.55,1.64-.54,3.04,.14,4.81-.06,0,.16,0,.32,0,.48Zm-4.25,4.61c0-.32,.34-.58,.61-.37,.06,.32-.32,.31-.61,.37Zm1.54-.74c-.03,.1-.15,.12-.15,.24,1.97-.01,2.18-.18,3.87-.41,.65,1.23-2.96,.98-3.85,1.13-.66-.31-.79-.8,.14-.96Zm.89-1.81c.1-.28,.51-.33,.61-.61,.22,.36,1.33,0,1.41,.46-.68-.34-1.21,.4-2.01,.14Zm5.99,5.09c0,.12,.19,.09,.31,.12-.03,.17-.46,.05-.46,.25,.17,.27,.98,.04,1.4,.1-.64,.57-2.23,.41-2.77,.75-.24-.25-.12-.65-.02-.72-.15-.4-.35-.01-.63-.23-.43,.16,.49,.24,.32,.6-1.19,.02-1.46-.13-2.01,.26-.5-.17,.02-.2-.93-.11-.09-.83,.99-.18,1.39-.5-.53-.5-2.01,.47-2.02-.34,1.94,.11,4.35-.81,6.51,.04-.33,.25-.51-.31-1.09-.23Zm-3.96-4.39c-.54-.03,.38-.45-.16-.48,.15-.37,.52,.05,.62,.11,.05,.28-.44,.14-.46,.37Zm.61-.49c1.14-.3,3.75-.14,3.11,.44-.78-.5-1.84,.04-3.11-.44Zm2.83,9.57c-.24-.04,.13-.21-.16-.24,.3-.54,1.32-.04,1.86-.02-.18,.63-1.4-.12-1.7,.26Zm1.55-.02c.26,0,.52,0,.77,0-.09,.11-.18,.22,0,.24-.03,.17-.46,.05-.46,.25-.27-.03-.36-.2-.32-.48Zm-.81-9.59c1.02-.32,3.3-.02,5.11-.3-1.06,.95-2.85,.29-4.49,.53,.15-.36-.35-.21-.63-.23Zm5.48,10.38c.36,.22,1.32-.2,1.56,.34,.33-.1,.52-.32,1.08-.25,.09,.25,.45,.38,.17,.6-.36,.04-.18-.34-.47-.35-.36,.04-.35,.33,0,.36-1.58,.24-2.34,.28-3.72,.04,.34-.11,.71-.52,1.08-.25,0-.74-.73-.31-1.09-.11-.04-.15-.6-.47-.32-.48-.03-.38,.77-.02,1.24-.26-.43-.34-1.78,.09-2.02-.1,.11,.29,.33,.61-.3,.6,.08-.83-.71-.98-1.57-1.06,.12-.11,.16-.27,.15-.48,1.69,.4,5.15-.46,7.44-.21,.02,.21-.19,.25-.15,.48,.49-.06,.54-.46,1.07-.49,0,.16,0,.32,.01,.48,.28,.01,.32-.15,.62-.13,.35-.07-.19-.19,.15-.36,.26,0,.52,0,.78,0-.02,.14,.04,.21,.16,.24-.29,.26-.41,.64-1.07,.61,.12,.1,.17,.27,.16,.48-.37-.23-.87,.23-1.24-.11-.21,.08-.28,.26-.3,.48-1.28-.13-2.02-.19-3.41-.08Zm.39-11.65c.14,.38-.24,.37-.3,.6-.88-.13-1.09-.04-2.02-.1,.88,.57-1.94,.41-2.17,.03,1.46-.52,3.47,.08,4.49-.54Zm-.63-.47c.04-.28,.68-.08,.77,0-.11,.42-.54,.15-.77,0Zm.95,1.07c-.12-.44,.24-.53,.77-.49,.12,.33-.3,.25-.3,.48,1.24,.33,2.5-.04,2.96,.8-1.09-.18-1.5,.12-2.32,.39-.21-.12-.31-.32-.63-.35,.23-.28,.37-.19,.77-.13-.14-.46-.57-.69-1.25-.71Zm4.96-.18c.12-.28,.96-.13,.78,.23-.14,.1-.35,.13-.62,.13,.01-.17,.02-.34-.16-.36Zm4.67,62.71c.37-.49,.8,.1,1.4,.1,.08,.33-.85-.08-.77,.25-.41,.04-.13-.46-.63-.35Zm4.93-1.5c.89-.19,1.76,.27,2.63-.27,.55-.03,.32,.56,.94,.47,.15,.22-.46,.41,.01,.48-.78,.32-1.29,.31-2.16,.39-.2-.16-.21-.44-.01-.6-.49-.14-1.08-.2-1.4-.46Zm1.62-58.47c.01-.26,.66-.06,.93-.13,0,.33-.73,.29-.93,.13Zm.57-2.29c.06-.27,.76-.06,1.08-.13-.05,.68-.49,.04-1.08,.13Zm5.92,1.37c-.46-.2,.34-.44,.77-.37,.16,.59-.76,.18-.77,.37Zm5.86,52.73c.5-.17,1.2-.16,.92-.61,1.16-.15,1.61,1.31,.66,1.79-.62-.31-1.56-.38-1.57-1.18Zm4.93-40.26c-.08-.38,.32-.39,.77-.37-.02,.22,.19,.25,.16,.48-.38,.02-.75,.03-.93-.11Zm11.01,38.99c-.14-.58,.59-.5,.91-.73,.05-.95-.56-1.2,.12-1.8,.58-.06,.73,.23,1.09,.35,.17,1.03,.09,1.03-.27,1.92-.41,.12-1.21-.05-1.08,.49-.2-.12-.57-.11-.78-.23Zm.61-23.77c.06-.27,.82-.1,.93-.01-.1,.16-.33,.23-.61,.25,.05-.2-.12-.22-.32-.24Zm2.31,22.29c.28-.02,.33,.14,.62,.11,.14,.34-.21,.31-.14,.6-.2-.21-.53-.31-.48-.71Zm-.17-39.24c-.12-.45,1.17-.31,.93,.11-.31,.26-.61-.03-.93-.11Zm6.39,1.84c.1,0,.21,0,.31,0-.02,.39,.38,.57-.3,.6,.08-.38-.3-.37-.01-.6Z"/><path class="cls-2" d="M193.16,70.46c-.73-.26-1.64,.01-2.48,.15,.12-.56-.4,.17-.47-.23,.35-.46,2.39,.1,2.94-.51-.05-.16-.39-.1-.62-.11-.19-.29,1.32-.06,1.25,.34-.61,0-.9-.06-.61,.37Z"/><path class="cls-2" d="M195.9,13.78c.31,0,.19-.33,.61-.25,.67,.21,1.52,.22,2.01-.26,.32,.06,.33,.18,.16,.36,1.81-.4,3.17-.12,4.79-.78-.39,.46,1.54,.27,1.08-.13,2.11,.33,5.39,.15,7.27-.69-.76,.18-2.15-.24-2.79,.27,.35-.53-.68-.07-.77,.13,0-.12,0-.24,0-.36-6.67,.16-14.04,.47-19.84,.36-.63,.43-2.76-.14-3.39,.76-.86-.25-1.16-.35-2.02-.1,.34-.68-.95-.05-.79-.59-.71,.26-1.55-.3-1.86,.14,.96,.11,1.57-.24,1.87,.34-.91-.13-1.88,.2-2.49-.33-.71,.16-2.05,.61-2.63,.15-.07,.55-.84-.1-1.24,.26-.06,.21,.24,.3,0,.36-.6,.26-1.36-.25-1.86,.02,.19,.01,.37,.03,.31,.24-.47,.09-.46-.2-.93-.11-.05,.4,.67,.19,.94,.35,.32-.38,2.09-.43,2.32-.15-.53,.21-.7,.5-1.24,.13-.1,.33,.31,.24,.32,.48,.52,0,.52-.4,1.08-.37-.09,.32-.44,.46-.6,.73,.56,.03,.41-.48,.92-.49,.15,.22-.46,.41,.01,.48,.31-.36,.81,.15,1.09,.23-.12-.7,.77,.05,1.08-.37-.47,.16-.89-.33-.47-.47,.36,.41,.65,.12,1.25,.34,0,.12,.13,.14,.16,.24-.72,.02-.6,.66-.15,.12,.97,.1,2.01,.24,2.64,.33-.18-.06-.35-.12-.47-.23,.94-.05,.78,.43,.93-.13,.65-.03,.56,.53,.94,.71-.16-.43,.7-.11,.61-.49-.29-.05-.93,.18-.78-.23,1.01,.07,1.14,.07,2.01-.15-.03,.23,.18,.26,.16,.48-.47-.16-1.13-.16-1.24,.26,.88,.15,1.32-.12,1.85-.5,.4,.39,.96,.1,.93-.13,.45,.19,.2,.45,.01,.72,.9-.12,1.2-.14,1.87,.22-.22,.03-.17,.27-.3,.36,.62-.31,.71-.16,1.24,.11,.53-.41,2.54-.76,3.56-.28,.6-.49,1.19-.34,2.63-.51,.21-.53-.93,0-.94-.35,.19-.39,1.26-.76,1.7-.26,.07,.29-.71-.06-.46,.37,1.77-.38-.33-1.16-1.11-1.31Zm-16.27,.44c0-.12,0-.24,0-.36,.49-.14,.38,.18,.63,.23-.05,.16-.39,.1-.62,.13Zm1.25,.46c.51-.4,1.19-.98,2.01-.5,0,.16,0,.32,0,.48-.27,.08-.65-.34-.78,0-.52-.11,.17-.24,.15-.36-.39-.29-.6,.57-1.39,.38Zm7.44-.21c.34-.32,1.67-.37,1.86,.1-.61-.04-1.48,.13-1.86-.1Zm.95,.83c.17-.31,.83-.24,1.39-.26-.23,.44-.8,.35-1.39,.26Zm1.22-.73c.19-.17,.53-.23,.92-.25,.14,.45-.69,.43-.92,.25Zm.64,.95c-.05-.32,.21-.4,.61-.37,.05,.32-.21,.4-.61,.37Zm.45-.97c.29-.79,2,.08,1.72,.46-.53-.36-1.03-.49-1.72-.46Zm1.39-.5c-.23-.12,.66-.05,1.24-.14-.18,.52-.88,.34-1.24,.14Zm.64,1.31c-.17-.31,.46-.58-.01-.72,.73,.03,.89,.11,2.02,.21-.29,.45-1.05,.56-2.01,.5Z"/><path class="cls-2" d="M67.76,56.36c.22-.11,1.34-.54,1.4-.02-.65-.12-.68-.02-1.4,.02Z"/><path class="cls-2" d="M69.53,20.57c.16-.15,1.79,.19,2.17-.15,.43,.4-1.84,.3-2.17,.15Z"/><path class="cls-2" d="M80.51,50.33c.26-.15,.4-.41,.92-.37,0,.32,.49,.25,.48,.59-.44-.27-.73-.4-1.4-.22Z"/><path class="cls-2" d="M87.97,43.28c-.55,.07-.39-.42-.94-.35,.12-.28,.96-.13,.78,.23,.19-.06,.31-.16,.3-.36,.62,.14,.13,.37-.14,.48Z"/><path class="cls-2" d="M104.56,35.88c0-.35,.34-.45,.61-.61,2.29,.31-.18-.07-.61,.61Z"/><path class="cls-2" d="M105.27,32.39c-.23-.05,.06-.15,0-.36,.52,.12,1.07,.2,1.56,.34-.34,.42-1.16-.44-1.55,.02Z"/><path class="cls-2" d="M107.95,11.35c-.18,.02-.13,.22-.15,.36-1,.06-1.69-.76-2.64-.33,.07,.27,.82,0,.93,.23-.39,.24-.63-.11-1.24,.13-.15-.42-.03-.29-.17-.72,1.29-.15,1.14,.06,2.79-.03-.45,.42,.86,.17,.78,.35-.07-.48,.57-.4,.93-.01,.43-.12-.23-.32,.15-.48,.53,.26,1.77-.2,1.56,.34,.18-.02,.28,.02,.31,.12,.37-.12-.31-.53,.46-.49-.52,.41,.37,.32,.63,.47-.8,.72-2.84,.2-3.87,.53-.21-.11-.32-.32-.47-.47Z"/><path class="cls-2" d="M105.27,24.95c-.16-.29,1.14,.17,1.71,.1-.47,.37-1.22-.08-1.71-.1Z"/><path class="cls-2" d="M107.61,33.32c.19-.22,.84,.21,1.4,.1,.08,.33-.85-.08-.77,.25-.21-.12-.31-.32-.63-.35Z"/><path class="cls-2" d="M120.73,38.32c.4-.11,1.04-.11,1.71-.02-.39,.1-1.15,.2-1.71,.02Z"/><path class="cls-2" d="M127.53,21.8c.15-.28,.99-.32,1.39-.26-.3,.21-.96,.14-1.39,.26Z"/><path class="cls-2" d="M132.12,18.5c.27-.24,1.08-.06,1.08-.49,.44,.27-.77,.76-1.08,.49Z"/><path class="cls-2" d="M135.39,11.74c.21-.49-.71-.78-1.25-.46,.23-.48,1.76-.34,2.47-.75-.56,.18-.61,.7-.92,.49-.36,.04-.08,.53,.17,.48-.03,.17-.46,.05-.46,.25Z"/><path class="cls-2" d="M141.19,69.04c1.29-.54,3.52,.22,4.64-.66,.13,.3,.77,.19,.79,.59-1.54-.3-2.11,.39-3.26-.08-.47,.44-1.61,.15-2.17,.15Z"/><path class="cls-2" d="M140.85,21.04c.14,.35,.24,.13,.62,.11,.57,.18-.63-.02-.3,.36-.44,.03-.85,.02-.78-.35,.13-.02,.15,.05,.16,.12,.14-.09,.23-.22,.3-.36,.18,.02,.09,.12,0,.12Z"/><path class="cls-2" d="M145.66,20.86c.3,.05,.67,.04,.63,.35-.69-.12-.77,.21-1.23,.25,0,.12,.19,.09,.31,.12-.76,.68-2.34,.16-3.42-.2,.04-.24,.31-.32,.46-.48,.18,.75,2.66,.23,3.26-.04Z"/><path class="cls-2" d="M147.21,13.28c.37,0,.45-.21,.93-.13-.08,.18-.22,.3-.3,.48,2.34-.59,5.93,.49,8.36-.46,.83,.77,1.84-.58,2.33,.21-.12-.37-.11-.23-.01-.6-1.05,.44-2.71,.09-2.8-.57,.09,.65,.25-.72,.77-.13,.21-.27-.41-.45-.01-.48,.29,.17,.55,.37,.79,.59,.36-.05,.64-.15,.93-.25,.03,.14-.02,.34,.16,.36-.15-.69,.8-.18,1.08-.13-.29-.42-1.17-.36-1.41-.82-.13,.4-.29,.06-.77,.13-.03-.14,.02-.34-.16-.36-.12,.13-.71-.26-1.08,.13,.32,.06,.33,.18,.16,.36-.76-.18-1.66,.2-2.49-.33-.07,.67-.64,.35-1.24,.25-.02,.18,.06,.44-.15,.48-.32-.03-.32-.32-.47-.48,.27,.03,.91-.24,.46-.36-.01,.34-1.07-.09-1.08,.25,.34-.03,.49,.09,.47,.36-.38-.3-.32,.26-.93,.13-.05,.31-.07,.66-.29,.84-.39-.61-.86,.25-1.39,.26-.43-.27-.8-.58-.95-1.07-.48,.09-.63,0-.77,.13,.32,.03,.32,.32,.47,.47-.96,.27-1.29,.16-2.32,.03-.19,.33-.49,.51-.92,.37,.49,.36,2.26-.31,2.64,.33Zm6.04-.31c-.18-.02-.14-.22-.16-.36,.18-.1,.41-.16,.77-.13,.25,.5-.86-.02-.61,.49Z"/><path class="cls-2" d="M147.23,68.49c-.25-.3,.73,.23,1.24,.1-.19,.33-.83,.32-1.39,.38,.19-.17,.75-.35,.15-.48Z"/><path class="cls-2" d="M150.16,21.41c-.31,0-.19,.33-.61,.25-.16-.24-.28-.51-.63-.59,.04-.13,.31-.09,.31-.24,.26,.61,1.09,.16,1.26,.94-.19-.05-.32-.15-.32-.36Z"/><path class="cls-2" d="M150.63,21.4c-.12-.39,.3-.19,.31,0,.22,0,.44,.01,.46-.12,.38,.11-.19,.47-.46,.48,.05-.24-.04-.38-.32-.36Z"/><path class="cls-2" d="M152.07,70.35c.18-.03,.08-.12,0-.12,.35-.29,1.46,0,1.86-.26,.01,.07-2.1,.99-2.16,.27,.18-.02,.28,.02,.31,.12Z"/><path class="cls-2" d="M154.25,70.56c-.2,.31,.86,.49,1.26,.71-.05-.36,1.62-.21,2.78-.27-.55,.38-3.49,.71-3.88-.07-.85-.08-.93,0-1.71-.1,1.06-.46,3.43-.44,4.49-.41-.25,.38-2.16,.09-2.94,.16Z"/><path class="cls-2" d="M156.83,21.33c-.61-.17,.03-.14-.01-.48,.26,0,.52,0,.77,0-.31,.25,.07,.23,.16,.48,.49,.01,.05-.67,.77-.49,.09,.26-.29,.17-.3,.36,.53-.29,1.17-.3,1.7-.02-.24,.35-.58,.15-.93,.01-.13,.22-.39,.33-.45,.6-.14-.09-.35-.12-.62-.11,.02-.14,.28-.1,.46-.13-.28-.02-1.39-.62-1.55-.22Z"/><path class="cls-2" d="M158.89,70.39c.15,.16,.42,.24,.63,.35-.04,.16-.39,.1-.62,.13,.22-.18,.11-.38-.32-.36,.37-.15,.34-.61,.92-.61,.21,.47-.42,.32-.61,.49Z"/><path class="cls-2" d="M160.74,69.41c.36-.35,.88,.11,1.24-.14-.12,.43-.91,.14-1.24,.14Z"/><path class="cls-2" d="M160.54,21.04c.35-.04,.58,.02,.63,.23,.45-.11,.17-.18,.14-.48,.21,0,.41,0,.62,0-.78,.38,.28,.2,.32,.6-.66-.2-1.36,.22-1.71-.34Z"/><path class="cls-2" d="M164.42,21c-.59-.1-.99,.21-1.24,.01,.05-.16,.27-.19,.3-.36,.39,.16,1.41,.25,.94,.71-.23-.05,.06-.15,0-.36Z"/><path class="cls-2" d="M166.2,40.54c.07,.36-1.89,.44-1.08,.25,.48,0,.43-.38,1.08-.25Z"/><path class="cls-2" d="M166.21,41.02c.34-.34,1.11,0,1.55-.02-.28,.29-.92-.15-1.55,.02Z"/><path class="cls-2" d="M168.94,22.26c-.12-.19-.5-.17-.48-.47,1.1-.06,1.49,.03,2.32-.15-.34,.28-.13,.32-.3,.6-.15,0-.31,0-.46,0,.02-.14,.28-.1,.46-.12-.14-.42-1.49-.24-1.55,.14Z"/><path class="cls-2" d="M171.35,18.75c.51-.16,1.04,.17,1.86-.02-.49,.33-1.25,.19-1.86,.02Z"/><path class="cls-2" d="M172.95,13.81c-.48,.1-.2-.41-.78-.23,.14-.33,.74-.31,.76-.73,.44,.4-.74,.53,.02,.96Z"/><path class="cls-2" d="M173.07,19.69c.31,.24,.98,.2,1.4,.34,0-.08,0-.16,0-.24,.69,.42-1.51,.45-1.4-.1Z"/><path class="cls-2" d="M175.47,15.46c-.07-.25,.1-.32,.15-.48,.36,.06,.3,.83,.94,.47,.48,.11-.33,.2-.3,.36-.24-.13-.33-.39-.78-.35Z"/><path class="cls-2" d="M175.87,20.02c.2-.5,1.01,.02,1.4,.1-.08,.1-.16,.2-.15,.36,.61-.29,.43,.26,.94,.35,.17-.03,.1-.24,.3-.24,.48-.06,.69,.1,.63,.47-.8-.19-.7-.15-1.55,.02,0-.12,0-.24,0-.36-.36,.04-.6-.01-.78-.11,.09,.31,.21,.42-.14,.6-.06,.29,.7-.07,.47,.36-.32-.11-.62-.24-.94-.35,.68-.17,.29-.41,.14-.84,.3,.22,.39,0,.77,0,.09-.48-.6-.34-1.09-.35Z"/><path class="cls-2" d="M176.39,14.97c.41,.15,.47,.26,.93,.11,0,.21,.12,.31,.32,.36-.03,.02-1.24-.06-1.25-.46Z"/><path class="cls-2" d="M178.82,20.46c.46-.44,.82,.23,.94,.47,.16-.08,.15-.28,.46-.25-.34,.82-.86-.15-1.4-.22Z"/><path class="cls-2" d="M189.05,74.59c.28-.14,1.41,.09,2.02,.1-.44,.26-1.49-.03-2.02-.1Z"/><path class="cls-2" d="M190.81,45.88c-.3-.05-.56,.09-.31,.12-.81,.1-.96-.22-.17-.6,.16-.02,.32,.51,.47,.11,.23,.05-.06,.15,0,.36Z"/><path class="cls-2" d="M196.07,45.82c.03-.14,.15-.07,.16,0,.18-.14,.28-.35,.77-.25-.08,.29-.59,.51-.92,.25Z"/><path class="cls-2" d="M197.42,74.37c.43-.4,.97-.11,1.55-.02-.19,.22-.96-.12-1.55,.02Z"/><path class="cls-2" d="M214.65,75.12c-.1,0-.21,0-.31,0,.03-.1-.06-.11-.16-.12,.42-.16,.7-.43,1.23-.49,.05,.39-.66,.1-.76,.61Z"/><path class="cls-2" d="M220.53,74.57c-.28,.31-1.51-.24-.77,.25-1.32-.4-2.45-.49-3.72-.19,1.04,0,1.13,.3,1.71,.46-1.05,.35-1.66-.5-2.33,.03,.24,.03,.11,.26,0,.36,.41,0,.91-.08,.94,.23-.17,.23-1.29-.27-1.39,.26,3.9-.21,6.98-.12,10.85-.13-.24-.17-.73-.15-.94-.35,.12-.03,.31,0,.31-.12-.12-.03-.31,0-.31-.12,.57,.11,1.45-.16,1.08-.37-.25,.4-.95,.13-1.4,.02-.39,.23,.34,.62-.29,.72-.99-.41-2.61,.39-3.11-.32,.55-.32,2.23,.38,2.63-.51-.88,0-1.95,.3-2.64-.21-.15,.12-.3,.25-.46,.36-.57-.2,.12-.22-.16-.36Zm-2.63,.51c-.05-.38,.67-.44,.92-.25-.14,.21-.48,.27-.92,.25Z"/><path class="cls-2" d="M215.47,70.07c.02-.27,.66-.06,.93-.13-.09,.11-.18,.22,0,.24-.08,.25-.59-.17-.93-.11Z"/><path class="cls-2" d="M225.6,72.23c.48-.2,1.33-.59,2.01-.26-.49,.22-1.4,.13-2.01,.26Z"/><path class="cls-2" d="M226.7,72.93c-.21-.04-.14-.3-.17-.48,.41,.04,1.36-.48,1.25,.23-.5-.08-1.1-.46-1.08,.25Z"/><path class="cls-2" d="M232.64,75.62c.02-.14-.04-.21-.16-.24,.54-.36,1.18-.13,1.71,.1-.36,.26-.96-.08-1.55,.14Z"/><path class="cls-2" d="M233.25,13.21c-.4,.06-.89-.41-.48-.59,0-.19,.17,.39,.48,.59Z"/><path class="cls-2" d="M235.05,72.35c-.28,.02-.33-.14-.62-.11,.35-.44,.58-.26,1.23-.38,.39,.15-.82,.09-.61,.49Z"/><path class="cls-2" d="M239.25,72.9c.62-.39,1.89-.01,2.63-.51-.45,.68-1.74,.4-2.63,.51Z"/><path class="cls-2" d="M240.97,73.6c-.05,.21,.13,.23,.31,.24-.04,.28-.41,.28-.62,.13-.05-.26,.64-.87,.61-.37-.1,0-.21,0-.31,0Z"/><path class="cls-2" d="M241.45,12.39c-.23-.29,1.04,.29,1.4-.02-.41,.34,.32,.46,.63,.59-.3,.43-.78,.1-1.39,.14,.71-.3-.26-.55-.63-.71Z"/><path class="cls-2" d="M243.23,.73c.03,.26-.55,.06-.77,.13,.05-.59,.7-.74,1.38-.86-.48,.58-.48,.56-.6,.73Z"/><path class="cls-2" d="M247.99,75.68c.17-.5,.77,0,1.24-.01-.15,.27-.72-.15-1.24,.01Z"/><path class="cls-2" d="M262.21,11.54c-.06,.18-.2-.04-.46,0,.21-.18,.49-.26-.16-.24-.12-.2,.89-.27,1.24-.13-.02,.19-1.15,.14-.61,.37Z"/><path class="cls-2" d="M279.58,12.17c-.44,.04,1.05-.34,1.23-.61,.15,.21,.83,.63,1.09,.35,.29,.64-.81-.04-1.55,.02,.05,.25,.42,.24,.63,.35-.27,.29-.68-.34-1.4-.1Z"/><path class="cls-2" d="M284.57,13.31c-.29-.05-.93,.17-.78-.23,.91,.12,1.06-.56,.6-.85,.1-.12,.35-.13,.3-.36,.59,.39-.06,.89-.13,1.44Z"/><path class="cls-2" d="M287.18,11.96c-.13,.36,.5,.73,.17,.84-.53-.09-.05-.51-.48-.83,.26,.04,.29-.1,.31-.24,.96,.26,1.3-.18,2.48-.03-.14,.21-.54,.32-.77,.13,.35,.47-.56,.35-1.07,.73,0-.2,0-.4-.01-.6-.21,0-.41,0-.62,0Z"/><path class="cls-2" d="M293.42,6.49c-.25,.61,.5,.41,.79,.59-.38,.41-1.9-.52-.79-.59Z"/><path class="cls-2" d="M300.54,13.48c-.34,.05-2.19-.01-.47-.23,.12,.11,.29,.18,.47,.23Z"/><path class="cls-2" d="M302.39,12.98c-.53,.15-1.02,.34-1.85,.26,.36-.29-.2-.46-.33-.72,.39-.09,1.1,0,1.25,.34,.23-.11-.05-.18,.15-.48,.2,.16,.74,.16,.93-.01,.29,.15-.61,.2-.14,.6Z"/><path class="cls-2" d="M302.25,13.94c.6-.58,3.18-1.24,4.78-1.26,.18-.02,.12-.22,.15-.36,.4,.15,.49,.24,.32,.6,.67,0,.71-.19,1.09,.11,.19-.06,.32-.16,.3-.36,3.33,.22,5.97-.18,8.21-.46-.47,.38,.53,.2,.32,.72,.12-.06,.25-.13,.46-.13-.07-.23-.6-.09-.47-.47,.75,.21,1.09,.08,1.41,.7-.24,.35-.85-.55-.77,.25-4.72,.02-7.33-.08-12.71-.09-.42-.08-.29,.25-.46,.36-.1-.21-.73,.02-.78-.23-.22,.11-.49,.19-.46,.49-.42,.08-1.23-.14-1.39,.14Z"/><path class="cls-2" d="M314.86,23.87c0-.36,.73-.16,.92-.37-.12-.11-.29-.18-.47-.23,.93-.81,2.57-.21,4.02-.41-.44,.7,3.11,.91,3.42,.2,.49-.11,.33,.31,.63,.35,.39-.18,.57-.52,1.07-.61-.12,.11-.16,.27-.14,.48,.67-.2,.99,.58,1.57,.82,.17-.34,.68-.24,1.08-.13-.66,.27,.14,.43,.78,.35-.89,.32-1.16,.74-2.15,.75,.05-.16,.27-.19,.3-.36-.49-.35-1.38-.44-2.02-.34-.2-.15-.21-.44-.01-.6-.47,.39-1.87-.12-2.16,.63-.35-.09-.61-.24-1.09-.23,.16-.48,.47,.02,.93-.01,.14-.09,.23-.22,.3-.36-1.85,.03-4.77-.1-6.97,.08Z"/><path class="cls-2" d="M316.49,28.29c-.3-.33-1.18-.2-1.41-.58,.65,.02,1.51,.35,1.87,.22,.37,.07-.37,.26-.46,.37Z"/><path class="cls-2" d="M318.92,87.43c.12-.11,.16-.27,.15-.48,.18,.39,.67,.6,1.25,.35,.13,.1,.1,.33,.32,.36-.12,.43-.38,.02-.93,.13,.06-.38-.34-.38-.78-.35Z"/><path class="cls-2" d="M321.1,18.39c-.9,.2-1.38,.1-2.32,.27,.06-.15,.19-.25,.46-.25-.08-.1-.17-.19-.16-.36,.89,.37,1.56,.13,2.32-.15-.21,.11-1.31,.52-.3,.48Z"/><path class="cls-2" d="M323.27,18.13c-.29-.31,.64,.12,.48,.47-.14-.09-.35-.12-.62-.11-.08-.17,.6-.3,.15-.36Z"/><path class="cls-2" d="M323.99,15.36c-.03-.1,.06-.11,.15-.12,0-.08,0-.16,0-.24,.23,.55,1.86-.02,1.72,.82-.33,.06-.3-.17-.32-.36-.67-.09-1.18-.04-1.55-.1Z"/><path class="cls-2" d="M329.7,6.65c.45-.04,.48,.27,.93,.23-.35,.12-.69,.54-1.23,.37-.01,.22,.2,.25,.16,.48-.57-.02-.6-.16-1.08,.01,.07,.15,.2,.24,.47,.23-.21,.35-.5,.07-.77,.49-.33-.04,.01-.52,.14-.6-.23-.14-.38-.34-.78-.35,.1-.12,.35-.13,.3-.36,.99-.15,1.43-.02,1.85-.5Z"/><path class="cls-2" d="M328.66,32.11c-.18-.02-.09-.12,0-.12-.1-.12-.36-.12-.32-.36,.48,.06,.68,.35,1.1,.47,.44,.35-.84-.27-.78,0Z"/><path class="cls-2" d="M330,29.21c.22-.23,.34-.54,.92-.49-.59,.61,.89-.2,1.4,.1,.14-.03,.4-.54,.15-.48,.68,.19,3.06,.13,4.04,.67,.32-.78,1.12,.25,1.39-.5,.29,.02,.1,.41,.32,.48,.74-.42,1.56,.22,2.17,.09,.23,.04-.18,.96,.48,.47,.26,.49-.84,.27-.93-.23-.68,.08-1.1-.03-1.71-.22-.27,.03-.35,.21-.3,.48-.9-.08-.95-.31-1.71,.02,.29-1.27-2.14,0-2.96-.92-.78,.47-1.98,.24-3.25,.52Z"/><path class="cls-2" d="M333.08,20.53c.14-.21,.48-.27,.92-.25,.12-.34-.22-.31-.17-.6,.85,0,1.29-.29,1.85-.5-.38,.72,3.19,.41,3.44,1.4,.14-.09,.35-.13,.62-.13,.28,.35,.74,.55,1.41,.58,.76,.85,2.49,1.04,2.98,1.77-.44-.2-1.36,.13-1.08,.13-2.69,.37-7.38-1.23-9.45,.35,.51,.17,.94-.6,2.01-.38-.8,.36-.91,.9-1.99,1.22-.02,.34,1.01-.16,.78,.35-.25,.21-.52-.1-1.08,.01,.67-.8-1.53-.68-2.03-.58,0-.24,.42-.16,.3-.48,.58-.08,.99,.3,1.4-.02-.69-.81-1.78-.29-2.96-.44,1.15-.12,2.23-1.32,3.53-1.72,.63,.1,1.46,.11,1.54-.5,.37,.03,.3,.41,.78,.35,.49-.24-.06-.65,1.07-.49,.21-.08,.28-.26,.3-.48-.42-.52-2.02,.2-1.71-.46-.35-.06-.22,.23-.46,.25-.06,.29,.71-.08,.47,.35-.29,.24-.75,.08-.63-.35-.79,.08-.9,.66-1.85,.62Z"/><path class="cls-2" d="M331.88,30.15c.02-.27,.39,.15,.78,0,.18,.38,.08,.32-.14,.6-.17-.24,.06-.56-.63-.59Z"/><path class="cls-2" d="M338.39,29.83c.59,.04,1.3,0,2.02,.22-.16,0-1.9,.22-2.02-.22Z"/><path class="cls-2" d="M340.92,24.76c-.1,1.04-1.82-.03-2.64-.21,.98-.01,2.03-.07,2.64,.21Z"/><path class="cls-2" d="M344.12,52.92c.63-.06,.49,.5,.94,.59,.33,.18-1.12-.1-.94-.59Z"/><path class="cls-2" d="M357.88,82.16c.62,0,.52,.56,.94,.71-.14,.1-.91-.33-.94-.71Z"/><path class="cls-2" d="M360.05,66.53c.1-.3,.42,.22,.78,.11-.1,.24-.41,.32-.77,.37,.13-.21,.51-.38,0-.48Z"/><path class="cls-2" d="M362.71,83.3c.26,.04,1.12-.03,1.41,.46-.74-.19-.88-.11-1.41-.46Z"/><path class="cls-2" d="M363.2,84.5c.32-.4,.66,.19,.94,.23,1.09,.21-.79,.03-.94-.23Z"/><path class="cls-2" d="M374.6,72.96c.28,.01,.32-.15,.62-.13,0,.46-1.17,.46-1.39,.38,.71-.31-.11-.56-.17-.96,.36-.34,.92-.62,.45-.96,.58,.19,1.25,.3,1.56,.7-.68-.08-1.5-.14-1.07,.97Z"/><path class="cls-2" d="M391.46,71.08c-.65-.25-.4,.12-.15,.36-.06-.55,1.04-.19,1.85-.38,.09,.25,.39,.34,.32,.72-.48,.03-1.72-.37-1.54,.5-1.15,.44-3.1,.27-4.01,.89,.53,1.21,1.6,.67,2.79,.21-.11,.45,.41,.4,.63,.59-.78,1.31-2.73,.31-4.03,.05,.38-.15-.33-.45,.14-.6-.85-.75-2.27-1.03-2.83-2.01-.37-.04-.33,.22-.77,.13,.05-.28-.03-.46-.17-.6-.54,.24-1.26,.37-.94-.35-.27,.03-.78-.11-.62,.25-.27-.15-.32-.48-.63-.59-.5-.14-.11,.39-.62,.25-.14-.58-1.19-.43-1.26-1.07-.7,.43-1.67-.47-2.04-1.06,2.01-1.08,3.33,.68,6.06,.65,0,.77,.84,.93,1.72,.7,.27,.1,.35,.37,.32,.71,.56-.04,1.01,0,1.4,.1,1.48-.69,2.55-1.8,5.08-1.98,.22,.42,.32,.19,.78,.35-.71,.33-1.12,.89-1.68,1.34,.22,.15,.16,.52,.17,.84Z"/><path class="cls-2" d="M26.54,49.41c.12-.11,.16-.27,.15-.48,.68,.07,.87-.22,1.55-.14-.12,.27,.19,.8,.32,.48,.38,.15-.66,.6,.48,.47-.02,.46-.99,.2-.92,.73-.47-.67-.74-.79-1.57-1.06Z"/><path class="cls-2" d="M139.57,11.21c.34-.34,1.05-.39,1.38-.74,.34,.01,.34,.3,.32,.6,.19-.14,.32-.11,.31,.12,.45-.35,.83-.06,1.39-.38,.33,.27,.5,.66,1.25,.59-1.09,.26-2.18-.15-2.79,.15-.33-.18-.5-.49-.94-.59-.42,.16-.54,.54-1.23,.49,.05-.24-.04-.37-.32-.36,.08-.1,.16-.2,.15-.36,.21,.12,.32,.32,.47,.47Z"/><path class="cls-2" d="M173.52,18.97c.24-.09,.22-.38,.61-.37-.08,.55,.67,.44,1.25,.46,.07,.49-.96,.14-1.39,.26-.17-.11-.06-.44-.47-.35Z"/><path class="cls-2" d="M323.11,10.09c.1,.27-.52,.09-.45,.6-.2-.41-1.14-.23-1.1-.83-.82,.21-1.39,.61-1.21,1.57-1.6,.82-3.74,.13-4.66-.66-.53-1.48,.1-2.55,1.34-2.78,1.85-.33,3.89,1.32,5.28,.66,.52,.18,2.07,.19,2.8,.57-.17,.38,0,.27,.02,.72-.59,.11-1.6-.09-1.54,.5-.22-.06-.38-.18-.47-.35Z"/></g><g><path d="M195.2,22.29c.48-.62,1.06-.94,1.73-.94,.48,0,.98,.13,1.51,.4,.53,.26,1,.61,1.4,1.04,.41,.43,.74,.89,1.01,1.37,.26,.48,.4,.94,.4,1.37,0,.34-.12,.67-.36,1.01-.96,1.25-1.91,2.99-2.84,5.22-.94,2.23-1.76,4.69-2.48,7.38-.72,2.69-1.3,5.46-1.73,8.32-.43,2.86-.65,5.48-.65,7.88,0,2.74,.32,4.98,.97,6.73,.65,1.75,1.79,2.63,3.42,2.63,.38,0,.71,.04,.97,.11,.26,.07,.4,.3,.4,.68,0,.53-.18,1.03-.54,1.51-.36,.48-.82,.91-1.37,1.3-.55,.38-1.14,.68-1.76,.9-.62,.22-1.2,.32-1.73,.32-1.06,0-1.97-.26-2.74-.79-.77-.53-1.43-1.22-1.98-2.09-.55-.86-.98-1.85-1.3-2.95-.31-1.1-.54-2.23-.68-3.38-1.1-.86-2.41-1.69-3.92-2.48-1.51-.79-2.89-1.48-4.14-2.05-.58,.72-1.16,1.43-1.76,2.12-.6,.7-1.22,1.32-1.87,1.87s-1.33,1.02-2.05,1.4c-.72,.38-1.49,.6-2.3,.65h-.86c-.29,0-.55-.05-.79-.14l-.72-.22c-.34-.33-.7-.59-1.08-.76-.38-.17-.76-.32-1.12-.47s-.66-.3-.9-.47c-.24-.17-.36-.44-.36-.83,0-.24,.25-.59,.76-1.04,.5-.46,1.1-.96,1.8-1.51,.7-.55,1.43-1.12,2.2-1.69,.77-.58,1.44-1.13,2.02-1.66-1.68-.53-3.32-1-4.93-1.4-1.61-.41-3.47-.61-5.58-.61-.72,0-1.31,.07-1.76,.22-.46,.14-.8,.24-1.04,.29-.29,0-.49-.12-.61-.36-.12-.24-.28-.48-.47-.72,.05-.05,.11-.11,.18-.18,.07-.07,.11-.16,.11-.25,0-.14-.05-.22-.14-.22s-.14-.07-.14-.22c0-.29,.1-.72,.29-1.3,.19-.58,.41-1.05,.65-1.44l.22-.5c1.06-1.54,2.57-2.3,4.54-2.3,2.16,0,4.2,.4,6.12,1.19,1.92,.79,3.72,1.62,5.4,2.48l.43,.22c.19,.1,.37,.18,.54,.25,.17,.07,.35,.16,.54,.25,3.26-3.89,6.25-7.91,8.96-12.06,2.71-4.15,5.39-8.41,8.03-12.78l.22-.22c.19-.05,.36-.07,.5-.07s.29-.02,.43-.07c.14-.05,.29-.13,.43-.25,.14-.12,.34-.35,.58-.68Zm-36.22,24.26c1.2-.96,2.81-1.44,4.82-1.44,.72,0,1.49,.06,2.3,.18,.82,.12,1.7,.3,2.66,.54-2.21-.82-4.06-1.22-5.54-1.22-1.97,0-3.38,.65-4.25,1.94Zm20.59,3.17c.29-.34,.71-.96,1.26-1.87,.55-.91,1.14-1.87,1.76-2.88,.62-1.01,1.22-1.96,1.8-2.84,.58-.89,1.01-1.48,1.3-1.76-1.2,1.68-2.19,3.07-2.95,4.18-.77,1.11-1.52,2.18-2.27,3.24-.74,1.06-1.28,1.8-1.62,2.23l.29,.22,.43-.5Zm.72,1.22c.38-.53,.88-1.22,1.48-2.09,.6-.86,1.24-1.78,1.91-2.74,.67-.96,1.33-1.96,1.98-2.99s1.24-2,1.76-2.92c-1.34,2.16-2.64,4.12-3.89,5.87-1.25,1.75-2.42,3.3-3.53,4.64l.29,.22Zm7.78-9.29c-.96,1.73-2.03,3.4-3.2,5-1.18,1.61-2.32,3.25-3.42,4.93,.77,.53,1.62,1.09,2.56,1.69,.94,.6,1.79,1.19,2.56,1.76,0-2.35,.16-4.61,.47-6.77,.31-2.16,.59-3.91,.83-5.26l.22-1.37Zm4.03,17.35c0-3.94,.26-7.9,.79-11.88,.53-3.98,1.42-8.16,2.66-12.53-1.25,3.46-2.17,6.82-2.77,10.08-.6,3.26-.9,6.48-.9,9.65,0,1.63,.07,3.19,.22,4.68Z"/><path d="M216.01,44.46c.05,.24,.07,.48,.07,.72v.72c0,1.73-.28,3.53-.83,5.4-.55,1.87-1.24,3.64-2.05,5.29-.82,1.66-1.69,3.1-2.63,4.32-.94,1.22-1.76,2.05-2.48,2.48-.72,.38-1.49,.58-2.3,.58-.86,0-1.67-.2-2.41-.61-.74-.41-1.4-.95-1.98-1.62,0,.53,.06,1.06,.18,1.58,.12,.53,.18,.94,.18,1.22,0,.58-.22,.86-.65,.86-.48,0-.94-.36-1.37-1.08-.96-.33-1.63-1.05-2.02-2.16-.38-1.1-.58-2.45-.58-4.03,0-1.97,.22-4.12,.65-6.44,.43-2.33,1-4.68,1.69-7.06,.7-2.38,1.46-4.68,2.3-6.91,.84-2.23,1.66-4.21,2.45-5.94,.79-1.73,1.51-3.11,2.16-4.14,.65-1.03,1.14-1.55,1.48-1.55s.67,.16,1.01,.47c.34,.31,.64,.71,.9,1.19,.26,.48,.48,1,.65,1.55,.17,.55,.25,1.07,.25,1.55,0,.29-.05,.58-.14,.86l-4.82,11.88c.96-1.01,1.97-1.88,3.02-2.63,1.06-.74,2.11-1.12,3.17-1.12,.58,0,1.12,.18,1.62,.54s.94,.79,1.3,1.3c.36,.5,.64,1.01,.83,1.51,.19,.5,.31,.92,.36,1.26Zm-16.7,4.1c.77-2.11,1.58-4.46,2.45-7.06,.86-2.59,1.8-5.42,2.81-8.5-1.34,3.07-2.45,5.9-3.31,8.5-.86,2.59-1.51,4.94-1.94,7.06Zm4.68,11.45c.29,0,.67-.34,1.15-1.01,.48-.67,1-1.54,1.55-2.59,.55-1.05,1.1-2.22,1.66-3.49,.55-1.27,1.06-2.52,1.51-3.74,.46-1.22,.83-2.34,1.12-3.35,.29-1.01,.43-1.75,.43-2.23,0-.29-.07-.48-.22-.58-.1,0-.38,.19-.86,.58-.48,.38-1.07,.91-1.76,1.58-.7,.67-1.44,1.46-2.23,2.38-.79,.91-1.52,1.87-2.2,2.88-.67,1.01-1.22,2.03-1.66,3.06-.43,1.03-.65,2-.65,2.92,0,.72,.17,1.39,.5,2.02,.33,.62,.89,1.15,1.66,1.58Zm3.89-16.06c-.53,.34-1.08,.77-1.66,1.3-.58,.53-1.09,1.07-1.55,1.62-.46,.55-.84,1.08-1.15,1.58-.31,.5-.47,.88-.47,1.12,.43-.67,1.08-1.54,1.94-2.59,.86-1.06,1.82-2.06,2.88-3.02Zm5.54,7.99c1.1-2.21,1.66-4.18,1.66-5.9,0-1.01-.17-1.92-.5-2.74,.05,.29,.07,.59,.07,.9v.9c0,2.3-.41,4.58-1.22,6.84Z"/><path d="M239.91,49.57c.48-.43,.92-.79,1.33-1.08,.41-.29,.73-.43,.97-.43s.36,.1,.36,.29c0,.24-.19,.74-.58,1.51-1.39,2.5-2.8,4.55-4.21,6.16-1.42,1.61-3.13,2.6-5.15,2.99-1.15,1.54-2.45,2.76-3.89,3.67-1.44,.91-2.98,1.37-4.61,1.37-1.39,0-2.59-.26-3.6-.79-1.01-.53-1.84-1.22-2.48-2.09-.65-.86-1.13-1.84-1.44-2.92-.31-1.08-.47-2.17-.47-3.28,0-.33,.05-.96,.14-1.87,.1-.91,.25-1.82,.47-2.74,.22-.91,.48-1.73,.79-2.45,.31-.72,.66-1.08,1.04-1.08,.33,0,.73,.08,1.19,.25,.46,.17,.88,.42,1.26,.76-.05-.19-.07-.37-.07-.54v-.47c0-1.15,.22-2.26,.65-3.31,.43-1.06,1.02-1.98,1.76-2.77,.74-.79,1.6-1.43,2.56-1.91,.96-.48,1.97-.72,3.02-.72,1.34,0,2.51,.29,3.49,.86,.98,.58,1.79,1.31,2.41,2.2,.62,.89,1.08,1.88,1.37,2.99,.29,1.1,.43,2.18,.43,3.24,0,1.34-.17,2.71-.5,4.1-.34,1.39-.82,2.74-1.44,4.03,.48-.34,.91-.73,1.3-1.19,.38-.46,.77-.95,1.15-1.48,.38-.53,.79-1.07,1.22-1.62s.94-1.12,1.51-1.69Zm-21.31,0c0-.1,.01-.18,.04-.25,.02-.07,.04-.16,.04-.25s.02-.17,.07-.22c-.1,0-.22,.17-.36,.5-.14,.34-.29,.77-.43,1.3-.14,.53-.28,1.13-.4,1.8-.12,.67-.18,1.34-.18,2.02,0,.82,.06,1.58,.18,2.3,.12,.72,.32,1.34,.61,1.87-.29-.86-.43-2.04-.43-3.53,0-1.1,.08-2.17,.25-3.2,.17-1.03,.37-1.81,.61-2.34Zm5.11,10.51c.14,.05,.36,.07,.65,.07,.96,0,1.99-.43,3.1-1.3-1.1-.48-2.11-1.18-3.02-2.09-.91-.91-1.7-1.99-2.38-3.24-.29,1.01-.43,1.92-.43,2.74,0,.91,.18,1.7,.54,2.38,.36,.67,.88,1.15,1.55,1.44Zm5.4-3.82c.29-.48,.6-1.13,.94-1.94,.34-.82,.65-1.7,.94-2.66,.29-.96,.53-1.94,.72-2.95,.19-1.01,.29-1.94,.29-2.81,0-1.25-.22-2.24-.65-2.99-.43-.74-1.18-1.12-2.23-1.12-.72,0-1.37,.2-1.94,.61-.58,.41-1.07,.96-1.48,1.66-.41,.7-.72,1.48-.94,2.34s-.32,1.75-.32,2.66c0,.82,.08,1.61,.25,2.38,.17,.77,.44,1.48,.83,2.12,.38,.65,.88,1.21,1.48,1.69,.6,.48,1.31,.82,2.12,1.01Zm2.3-15.98c.33,.14,.71,.4,1.12,.76,.41,.36,.77,.76,1.08,1.19,.31,.43,.59,.86,.83,1.3,.24,.43,.36,.82,.36,1.15,.05,.1,.1,.19,.14,.29,.05,.1,.07,.12,.07,.07,0-.33-.1-.76-.29-1.26-.19-.5-.44-1-.76-1.48-.31-.48-.7-.91-1.15-1.3-.46-.38-.92-.62-1.4-.72Z"/><path d="M263.89,49.57c.43-.43,.86-.79,1.3-1.08s.77-.43,1.01-.43c.19,0,.29,.1,.29,.29-.05,0-.24,.4-.58,1.19s-.79,1.78-1.37,2.95c-.58,1.18-1.26,2.45-2.05,3.82s-1.66,2.64-2.59,3.82c-.94,1.18-1.92,2.16-2.95,2.95s-2.08,1.19-3.13,1.19c-.86,0-1.72-.5-2.56-1.51-.84-1.01-1.26-2.62-1.26-4.82-.96,1.49-2.03,2.83-3.2,4.03-1.18,1.2-2.39,1.8-3.64,1.8-.67,0-1.31-.17-1.91-.5-.6-.34-1.12-.76-1.55-1.26-.43-.5-.78-1.03-1.04-1.58-.26-.55-.4-1.04-.4-1.48,0-1.54,.24-3.26,.72-5.18,.48-1.92,1.03-3.77,1.66-5.54,.62-1.77,1.22-3.38,1.8-4.82,.58-1.44,.98-2.45,1.22-3.02,.19-.38,.53-.58,1.01-.58,.19,0,.43,.1,.72,.29,.14,.1,.29,.17,.43,.22,.1,0,.14-.05,.14-.14,.19,.14,.37,.26,.54,.36,.17,.1,.25,.19,.25,.29-.34,.24-.71,.8-1.12,1.69-.41,.89-.78,1.83-1.12,2.81-.34,.98-.62,1.9-.86,2.74-.24,.84-.36,1.33-.36,1.48,.05,0,.22-.37,.5-1.12,.29-.74,.64-1.6,1.04-2.56,.41-.96,.8-1.9,1.19-2.81,.38-.91,.67-1.56,.86-1.94,.1,.14,.25,.26,.47,.36,.22,.1,.3,.14,.25,.14,0,.05,.14,.17,.43,.36,.29,.19,.5,.62,.65,1.3-.05,.14-.07,.36-.07,.65v.58c-.43,.77-.94,1.8-1.51,3.1-.58,1.3-1.1,2.64-1.58,4.03-.48,1.39-.89,2.7-1.22,3.92-.34,1.22-.5,2.12-.5,2.7,0,.34,.06,.54,.18,.61,.12,.07,.23,.11,.32,.11,.86,0,1.8-.62,2.81-1.87,1.01-1.25,1.99-2.76,2.95-4.54,.96-1.78,1.86-3.62,2.7-5.54,.84-1.92,1.55-3.55,2.12-4.9,.1-.24,.18-.44,.25-.61,.07-.17,.16-.35,.25-.54l.14-.22c.19-.43,.58-.65,1.15-.65,.38,0,.82,.11,1.3,.32,.48,.22,.92,.49,1.33,.83,.41,.34,.74,.7,1.01,1.08,.26,.38,.4,.74,.4,1.08,0,.19-.03,.34-.07,.43-.82,1.34-1.54,2.77-2.16,4.28-.62,1.51-1.16,3-1.62,4.46-.46,1.46-.83,2.89-1.12,4.28-.29,1.39-.5,2.64-.65,3.74,.91-.58,1.76-1.37,2.56-2.38,.79-1.01,1.55-2.05,2.27-3.13s1.4-2.12,2.05-3.13,1.28-1.8,1.91-2.38Zm-10.22,8.35c0-.96,.18-2.17,.54-3.64,.36-1.46,.78-2.89,1.26-4.28,.53-1.58,1.13-3.22,1.8-4.9-.1,0-.29,.29-.58,.86-.1,.29-.32,.86-.68,1.73-.36,.86-.72,1.84-1.08,2.92s-.68,2.18-.97,3.31-.43,2.1-.43,2.92c0,.34,.05,.7,.14,1.08Z"/><path d="M277.5,38.34c-.38-.14-1.13-.22-2.23-.22-.53,0-1.14,.01-1.84,.04-.7,.03-1.4,.04-2.12,.04-.67,1.63-1.37,3.37-2.09,5.22-.72,1.85-1.37,3.7-1.94,5.54s-1.06,3.65-1.44,5.4c-.38,1.75-.58,3.3-.58,4.64,0,.77,.07,1.44,.22,2.02,1.34-.62,2.56-1.66,3.64-3.1,1.08-1.44,2.08-2.89,2.99-4.36,.91-1.46,1.77-2.75,2.59-3.85,.82-1.1,1.66-1.66,2.52-1.66,.24,0,.36,.1,.36,.29s-.17,.64-.5,1.33c-.34,.7-.77,1.52-1.3,2.48-.53,.96-1.12,1.98-1.76,3.06-.65,1.08-1.28,2.1-1.91,3.06-.38,.58-.83,1.21-1.33,1.91-.5,.7-1.07,1.34-1.69,1.94-.62,.6-1.29,1.1-1.98,1.51-.7,.41-1.4,.61-2.12,.61-1.11,0-2.1-.61-2.99-1.84-.89-1.22-1.33-3.06-1.33-5.51,0-1.34,.12-2.81,.36-4.39s.56-3.2,.97-4.86c.41-1.66,.88-3.32,1.4-5,.53-1.68,1.08-3.29,1.66-4.82-1.2-.24-2.22-.61-3.06-1.12s-1.26-1.26-1.26-2.27c0-.33,.08-.64,.25-.9,.17-.26,.35-.4,.54-.4,.14,0,.29,.1,.43,.29,.24,.53,.74,.9,1.51,1.12,.77,.22,1.68,.32,2.74,.32,1.15-2.83,2.08-4.81,2.77-5.94,.7-1.13,1.23-1.69,1.62-1.69,.72,0,1.39,.46,2.02,1.37,.62,.91,.94,1.97,.94,3.17,0,.77-.12,1.42-.36,1.94-.1,.19-.14,.38-.14,.58,0,.05,.02,.07,.07,.07h.43c.38-.05,.73-.08,1.04-.11,.31-.02,.61-.04,.9-.04,.96,0,1.61,.14,1.94,.43,.34,.29,.5,.98,.5,2.09,0,.1-.02,.38-.07,.86-.05,.48-.17,.72-.36,.72Zm-14.98,13.75c.86-4.08,2.18-8.76,3.96-14.04l-.29-.07c-.96,2.59-1.75,5.08-2.38,7.45-.62,2.38-1.06,4.6-1.3,6.66Z"/><path d="M317.74,45.76c-.72,2.59-1.33,5.28-1.84,8.06-.5,2.78-.76,5.52-.76,8.21,0,.58,.02,1.2,.07,1.87s.16,1.32,.32,1.94c.17,.62,.4,1.19,.68,1.69s.67,.83,1.15,.97c.24,.1,.48,.22,.72,.36,.24,.14,.36,.36,.36,.65,0,.38-.31,.73-.94,1.04-.62,.31-1.39,.47-2.3,.47-.86,0-1.73-.16-2.59-.47-.86-.31-1.63-.83-2.3-1.55-.67-.72-1.21-1.68-1.62-2.88-.41-1.2-.61-2.71-.61-4.54,0-1.15,.07-2.38,.21-3.67-.82,1.15-1.7,2.28-2.66,3.38-.96,1.1-1.94,2.09-2.95,2.95-1.01,.86-2.05,1.56-3.13,2.09-1.08,.53-2.15,.79-3.2,.79s-1.84-.24-2.48-.72c-.65-.48-1.15-1.11-1.51-1.87-.36-.77-.61-1.63-.76-2.59-.14-.96-.22-1.92-.22-2.88,0-2.5,.31-5.22,.94-8.17s1.43-5.94,2.41-8.96c.98-3.02,2.09-5.99,3.31-8.89,1.22-2.9,2.41-5.56,3.56-7.96-1.39,.58-2.81,1.63-4.25,3.17s-2.75,3.24-3.92,5.11c-1.18,1.87-2.14,3.78-2.88,5.72-.75,1.94-1.12,3.64-1.12,5.08,0,.86,.19,1.56,.58,2.09,.38,.53,.58,.91,.58,1.15,0,.34-.31,.5-.94,.5-.72,0-1.44-.12-2.16-.36-.72-.24-1.37-.58-1.95-1.01-.58-.43-1.04-.96-1.4-1.58s-.54-1.3-.54-2.02c0-1.1,.29-2.36,.86-3.78,.58-1.42,1.33-2.87,2.27-4.36,.94-1.49,2.03-2.94,3.28-4.36,1.25-1.42,2.54-2.69,3.89-3.82,1.34-1.13,2.71-2.04,4.1-2.74s2.69-1.04,3.89-1.04c.43,0,.85,.07,1.26,.22,.41,.14,.66,.22,.76,.22h.86c.29,0,.48,.08,.58,.25,.1,.17,.14,.23,.14,.18,0,.19-.06,.47-.18,.83-.12,.36-.25,.78-.4,1.26-.05,.1-.16,.36-.32,.79-.17,.43-.35,.88-.54,1.33-.19,.46-.38,.89-.58,1.3-.19,.41-.31,.64-.36,.68,.96-1.68,1.64-3.1,2.05-4.25,.41-1.15,.66-1.73,.76-1.73,.14,0,.3,.07,.47,.22,.17,.14,.25,.5,.25,1.08,0,.14-.01,.26-.04,.36-.02,.1-.04,.24-.04,.43-.62,2.21-1.4,4.62-2.34,7.24s-1.84,5.3-2.7,8.06c-.86,2.76-1.6,5.52-2.2,8.28-.6,2.76-.9,5.36-.9,7.81,0,.38,.04,.71,.11,.97,.07,.26,.3,.4,.68,.4,.77,0,1.61-.26,2.52-.79,.91-.53,1.84-1.2,2.77-2.02,.94-.82,1.85-1.73,2.74-2.74,.89-1.01,1.67-1.99,2.34-2.95,.96-4.08,2.02-7.87,3.17-11.38,1.15-3.5,2.38-7.06,3.67-10.66,.1-.38,.29-.66,.58-.83,.29-.17,.62-.25,1.01-.25,.48,0,1.01,.12,1.58,.36,.58,.24,1.1,.57,1.58,.97,.48,.41,.88,.84,1.19,1.3,.31,.46,.47,.9,.47,1.33,0,.14-.05,.36-.14,.65-1.06,2.21-1.98,4.5-2.77,6.88s-1.52,4.74-2.2,7.09Zm-31.68,.36c-.82-.91-1.22-2.06-1.22-3.46,0-1.78,.58-3.82,1.73-6.12-1.54,2.5-2.3,4.56-2.3,6.19,0,1.34,.6,2.47,1.8,3.38Zm7.56,4.25c.86-2.83,1.84-5.83,2.92-9s2.29-6.53,3.64-10.08c-3.27,6.62-5.45,12.99-6.55,19.08Zm2.16-1.58c.38-1.58,.8-3.07,1.26-4.46,.46-1.39,.89-2.65,1.3-3.78,.41-1.13,.76-2.09,1.04-2.88,.29-.79,.43-1.33,.43-1.62-1.01,2.16-1.88,4.34-2.63,6.55-.75,2.21-1.29,4.61-1.62,7.2,0-.1,.02-.19,.07-.29,0-.09,.01-.19,.04-.29,.02-.1,.06-.24,.11-.43Zm18.5,16.34c0-.29-.01-.58-.04-.86-.03-.29-.04-.58-.04-.86,0-7.3,1.75-15.94,5.26-25.92-1.87,4.61-3.26,8.82-4.18,12.64-.91,3.82-1.37,7.28-1.37,10.4,0,.82,.02,1.61,.07,2.38,.05,.77,.14,1.51,.29,2.23Z"/><path d="M334.09,38.7c0,.62-.31,1.37-.94,2.23,.05,.14,.07,.36,.07,.65,0,.62-.23,1.25-.68,1.87-.46,.62-1,1.21-1.62,1.76s-1.27,1.07-1.94,1.55c-.67,.48-1.2,.89-1.58,1.22-.14,.72-.22,1.44-.22,2.16,0,1.01,.1,2.06,.29,3.17,.19,1.1,.43,2.2,.72,3.28,.29,1.08,.59,2.12,.9,3.13s.59,1.94,.83,2.81c.05,.19,.07,.46,.07,.79,0,.82-.4,1.39-1.19,1.73-.79,.33-1.72,.5-2.77,.5-.96,0-1.88-.11-2.77-.32s-1.57-.47-2.05-.76c-.48-.29-.97-.68-1.48-1.19s-.96-1.04-1.37-1.62c-.41-.58-.74-1.14-1.01-1.69-.26-.55-.4-1.04-.4-1.48,0-.58,.11-1.14,.32-1.69,.22-.55,.59-.88,1.12-.97l.22,.07c.38,.29,.77,.65,1.15,1.08,.38,.43,.79,.88,1.22,1.33,.43,.46,.86,.89,1.3,1.3,.43,.41,.89,.76,1.37,1.04-.67-1.44-1.24-3.21-1.69-5.33-.46-2.11-.68-4.1-.68-5.98,0-1.49,.17-2.71,.5-3.67,.38-1.01,1.04-2.03,1.98-3.06,.94-1.03,1.93-1.96,2.99-2.77,1.05-.82,2.09-1.49,3.1-2.02s1.78-.79,2.3-.79c.05,0,.17,.05,.36,.14,.19,0,.29,.07,.29,.22,0,.1-.03,.19-.07,.29l.36-.22,.29,.07c.1,.1,.23,.29,.39,.58,.17,.29,.28,.48,.32,.58Zm-11.02,6.48c1.68-2.11,3.89-4.22,6.62-6.34-1.54,.82-2.86,1.76-3.96,2.84-1.11,1.08-1.99,2.24-2.66,3.49Zm1.44-.58c.48-.58,1.01-1.15,1.58-1.73,.58-.58,1.25-1.15,2.02-1.73-1.68,.96-2.88,2.11-3.6,3.46Zm3.82,15.91c-1.2-3.12-1.9-6.38-2.09-9.79,0,.24-.01,.47-.04,.68-.03,.22-.04,.44-.04,.68,0,3.12,.72,5.93,2.16,8.42Z"/></g></g></svg>