<?xml version="1.0" encoding="UTF-8"?><svg id="Layer_2" xmlns="http://www.w3.org/2000/svg" viewBox="0 0 532 98.2"><defs><style>.cls-1{fill:none;}.cls-2{fill:#f2f2f2;}.cls-3{fill:#3f384b;fill-rule:evenodd;}</style></defs><g id="Layer_1-2"><g><rect class="cls-1" x="0" y="0" width="466" height="98.2"/><path class="cls-3" d="M94.83,89.73c-.26,.33-.71,.43-1.23,.44,.13-.56,.81-.97,1.23-.44Z"/><path class="cls-3" d="M76.26,23.12c-.37,.29-1.54,.86-1.42-.29,.66-.12,.94,.19,1.42,.29Z"/><path class="cls-3" d="M74.26,21.62c-.1,.53-1,.06-1.42,.19,.02-.69,1.16-.53,1.42-.19Z"/><path class="cls-3" d="M68.56,31.76c-.29,.36-1.07,.65-1.43,.2,.1-.53,1-.07,1.43-.2Z"/><path class="cls-3" d="M65.96,21.11c-.49,.62-1.32,.82-2.45,.65,.4-.74,1.57-.51,2.45-.65Z"/><path class="cls-3" d="M58.89,73.47c-1.24,.05-3.78,.98-4.66-.15,1.51,.71,3.25-.44,4.66,.15Z"/><path class="cls-3" d="M55.56,50.55c-1.55,1.41-4.32-.17-6.31,.76-.28-1.18,2.9-.15,3.48-1.09,.47,.09,.83,.31,1.2,.52,.55-.09,1.06-.87,1.63-.19Z"/><path class="cls-3" d="M36.56,47.07c.04,.63-.1,1.03-.63,.94-.15-.22-.2-.55-.18-.96,.27,.01,.54,.02,.81,.03Z"/><path class="cls-3" d="M28.67,55.22c-1.25,1.08-4.11,1.15-5.69,.3-.21,.15-.22,.55-.62,.46-.94,.13-3.05-.31-1.01-.27,2.53-.75,4.53,0,7.31-.49Z"/><path class="cls-3" d="M27.72,43.19c-.3,.36-.8,.48-1.43,.44,.15-.58,1.19-.7,1.43-.44Z"/><path class="cls-3" d="M25.8,74.58c-.23,.54-1.27,.05-1.83,.18,.4-.32,1.38-.67,1.83-.18Z"/><path class="cls-3" d="M26.21,47.22c-.5,.61-1.63,.44-2.25,.89-.55-.95,1.48-.78,2.25-.89Z"/><path class="cls-3" d="M25.28,43.83c-.4,.74-1.57,.5-2.45,.65,.52-.59,1.66-.4,2.45-.65Z"/><path class="cls-3" d="M23.84,80.28c-.07,.81-.87,.72-1.44,.91,.12-.75,.94-.63,1.44-.91Z"/><path class="cls-3" d="M22.96,74.49c-.66,.67-2.94,.47-4.06,.35,1.43-.55,2.51-.5,4.06-.35Z"/><path class="cls-3" d="M22.42,44.46c-1.05,1.1-2.57,.23-3.45,.13,.96-.64,2.36,.53,3.45-.13Z"/><path class="cls-3" d="M19.73,55.66c-.4,.41-1.07,.47-1.64,.67-.11-1.05,.95-.62,1.64-.67Z"/><path class="cls-3" d="M17.96,53.2c-.48,.59-.91,.32-1.63,.19,.17-.54,1.14-.06,1.63-.19Z"/><path class="cls-3" d="M16.2,50.27c-.22,.63-1.75,.75-1.41-.53,.44-.1,.38,.35,.39,.73,.49,.11,.45-.43,1.02-.21Z"/><path class="cls-3" d="M11.93,68.62c1-.98,2.72,.51,0,0h0Z"/><path class="cls-3" d="M9.7,77.43c-.84,.49-1.66,.35-2.64,.16,.62-.32,2.23-.37,2.64-.16Z"/><path class="cls-3" d="M9.06,78.85c.29,.75-1.34,.7-1.01-.03,.34,0,.67,.02,1.01,.03Z"/><path class="cls-3" d="M7.15,91.51c-.29,.49-.93,.6-1.43,.44,.15-.59,1.2-.7,1.43-.44Z"/><path class="cls-3" d="M1.5,90.37c-1.69,1.1-2.28-.03,0,0h0Z"/><path class="cls-3" d="M47.13,90.86c-.34,.32-.81,.47-1.04,.93-.63-.97-1.78-.11-2.62-.56,1.04-1.06,2.15,.29,3.66-.37Z"/><path class="cls-3" d="M24.48,70.22c-.49,.08-.43-.45-1.01-.27-.05-.39,.2-.41,.22-.72-1.01-.19-1.57,.17-2.44,.17,.11-.19,.22-.38,.22-.71-1.15,1.29-2.48-.76-4.87-.16,2.29-1.37,7.35-.35,9.34-.66-.3,.94-2.05,.07-2.25,1.13-.05,.76,1.12,.14,.78,1.23Z"/><path class="cls-3" d="M22.35,47.58c-.23,.04-.12,.24,0,.24-.07,.56-.89,.11-1.02-.03,.25-.68,2.93-.29,1.02-.21Z"/><path class="cls-3" d="M7.28,50.23c0-.32,.01-.64,.02-.96-1.3,.05-3.37,.27-4.24-.62,1.53-.67,4.8,.99,5.9-.53,.26,.25,.74,.26,1,.51,3.58-1.51,7.46,.12,11.18-.84-1.67,2.55-5.45-.94-7.34,1.69-.31-.14,0-.25,.21-.23-1.64,.04-4.6-.55-6.72,.99Z"/><path class="cls-3" d="M8.61,80.76c-.32,.43-.89,.53-1.24,.92-.18-.05,.83-1.57,1.24-.92Z"/><path class="cls-3" d="M414.57,98.2c.91,0,1.91-.87,2.86-.87,2.23,0,4.23,.92,6.48,.45,1.99-.42,3.86-1.7,5.93-1.97,1.53-.2,2.04-.56,3.06-.86,3-.88,5.46-.43,6.76-2.9,2.1-1.63,4.74-2.59,6.58-4.11,.29-.24,.91-.12,1.02-.21,4.69-3.82,7.55-10.05,13.07-12.79,.48-1.41,.8-3.46,1.74-5.23,.42-.79,1.37-1.3,1.67-2.11,1.12-2.99,.14-6.8,2.23-9.05,.12-.75-.27-.95-.37-1.45,.06-5.97-.77-10.99-.26-15.61-1.44-2.73-1.13-5.9-2.24-8.47-.69-1.6-2.05-3.12-2.94-4.65-1.01-1.76-2.09-3.11-2.93-4.89,0-1.8-1.29-2.14-1.54-3.65-1.58-1.12-2.77-2.66-4.38-3.74-.15-.6-.53-.96-.57-1.7-3.37-3.07-6.77-6.86-11.38-8.04-.41-.1-1.3-.31-1.82-.3-3.42,.06-8.69-.57-10.48-2.97-.62-.19-.61,.4-1.22,.2-.39-1.15-2.2-3.31-3.78-3.24-.54,.02-1.49,1.56-2.68,1.84-1.77,.41-3.45-1.67-5.04-1.36-.73,.14-1.51,1.53-2.27,1.85-1.99,.82-6.03,.24-7.7-.24-1.32-.38-1.81-1.52-2.81-1.29-.9,.21-1.58,1.46-1.5,3.32-2.59,4.06-9.26,.92-13.25,2.7-2.93-1.46-5.73,.96-8.54,.69-.56-.06-1.23-.55-1.81-.54-.96,.02-2.24,.8-3.48,1.09-2.11,.5-3.96,.39-5.7,1.02-2.69-2.39-4.65,.37-6.91,.26-.84-.04-1.67-.81-2.62-.8-.8,0-1.57,.7-2.45,.64-.87-.05-1.78-.82-2.62-.8-.63,0-1.12,.48-1.63,.43-.67-.07-1.1-.64-1.81-.54-.75,.11-1.5,1.03-2.26,1.13-2.76,.38-5.74-.61-8.34,1.18-4.71-1.5-8.81,.9-14.39-.7-1.39,.48-2.41,.83-3.86,.36-.32,.17-.32,.75-.83,.7-2.9-.71-5.95,1.3-8.94,.44-.1,.28-.23,.54-.42,.71-4.12-1.15-9.34-1.31-12.58,.08-2.51-1.2-5.43,.17-8.53,.21-1.46,.02-2.89-.64-4.25-.38-2.67,.52-6.16-.11-8.73,.2-.76,.09-1.51,.78-2.25,.89-1.36,.2-2.81-.49-4.25-.14-5.57,1.36-11.97,.42-16.85,.43-1.51,0-2.8,.78-4.49,1.06-2.8,.46-5.7-.82-8.51-.51-.71,.08-1.39,.56-2.04,.66-1.68,.25-3.29-.21-5.07-.16-4.34,.11-8.7,1.44-12.79,.32-5.22,1.58-12.83,1.07-18.9,1.32-1.36,1.31-2.66,.18-4.06,.35-4.34,.52-9.88,2-14.43,.99-19.1,2.32-39.01,1.3-57.91,3.92-1.48-.99-3.78-.36-5.08,.32-.28-.62-1.15-.59-1.81-.78-2.37,1.6-5.35,.3-8.33,.69-.76,1.56-2.56,.38-3.69,1.57-.48-.86,.65-.73-.17-1.2-1.93,2.82-8.48,1.51-11.41,2.28,.2,0,.25,.43,0,.48-.71-.71-1.05,.7-1.84,.66-5.33,.32-9.14,3.1-13.69,4.13-.57-.4-2.1-1.6-2.62-.56,.82,.17,1.86,.09,1.8,1.26-1.37-.38-3.17,.14-4.08,1.07-1.69,.11-2.55-.52-4.07,.35-.37-.02,.36,1.22-.43,1.19-2.37-.62-3.56,.41-5.67-.18-.62,1.11-3.11,1.43-3.87,.84-.69,.48,.76,.93,.17,1.21-1.92,.35-3.71,.81-5.48,.07-.44,.52-.73,1.23-1.45,1.39-.49,.08,.14-1.09-.59-.74-.68,.63,.53,1.1,.36,1.93-.96,.39-.77,.98-1.25,1.64-1.34-.66-2.26,.69-3.48,1.09-1.25,.42-2.65,0-3.86,.36-1.04,.3-1.49,1.13-2.66,1.11-.96-.01-1.76-.88-2.82-.81-.56,.2,.38,.89-.43,.95-3.72,.29-7.44,.58-10.19,2.08,4.22-1.88,7.29,.12,10.99-1.57,.56,1.08,1.66-.67,2.22,.79,.25-.62-.6-1.05,.22-.95,.27,.09,.38,.36,.81,.27-.52,1.28,.26,1.28,.56,2.18,3.15-.07,5.61-.67,8.33-.7,.5-.3-.35-.73,.22-.95,1.04-.21,1.83-.03,3.05-.38,.37,.95,1.19,1.42,.75,2.67-3.67-.09-8.66,1.79-13.03,1.99-1.32,.06-2.7-.91-3.46,.61,1.96-.47,3.54,1.21,5.24,1.37,2.2,.2,4.56-1.32,6.72-.99,.61,.09,.86,.53,1.41,.52,.43,0,1.16-.71,1.64-.67,.52,.05,.55,.57,1,.51,.92-.11,1.63-.9,2.65-.88,1.71,.05,3.39,.95,5.26,.65,.34,.43,.19,1.49-.24,1.67-2.22-.06-2.6,0-4.87,.09,.25,.11,.41,.32,.39,.73-.7-.07-.95-.37-1.43,.2,1.69-.05,1.53,1.81,.96,2.67-4.19-.33-9.33,.52-12.78-.17-.38,.51-.62,1.19-1.25,1.4-3.88,.6-8.23-.01-12.39,.57,4.75,1.43,9.7,.58,15.22,0,.21,.23,.04,.89,.59,.74,2.35-.68,5.09-.5,6.91-.74,.81,1.04,1.6,2.1,2.36,3.2,5.78-.87,10.01,3.37,15.54,3.38-.03,.73,.41,.95,.57,1.46-.45,.59-.74,1.37-1.26,1.88-.91,.04-1.84,.43-2.64-.08-4.66,2.15-11.29,.62-17.08,1.86-.71,1.2-.15,2.11,.34,3.13,2.79,.69,5.35-.98,8.3,.5,1.06,2.83-.05,4.81-2.34,4.97-3.79,.26-10.32-.02-12.77-.41-11.11,1.68-22.14,.99-33.53,2.3,6.33,.54,12.18-.96,17.85,.09-.02-.52,.19-.76,.62-.7,5.57,.29,11.76,.25,16.65-.67,2.05,1.73,6.01-.3,8.08,1.46-.52,2.72-2.22,3.97-4.36,4.66,2.19-.16,4.23,.74,6.06,.91,1.51,.14,4.11-.68,4.87-.09,.18,.14-.17,.7,.18,.73-.62-.04,1.1-.15,1.23-.2,.82-.32,.67-.51,1.63-.43,1.25,.11,1.22,.15,2.01,.79,4.31,.43,8.49-.41,12.78,.17,.45,.06,1.35,.02,1.42,.04,.41,.17,.06,.65,.59,.74,.3,.05,.17-.52,.62-.46,1.67,.23,3.59,.47,5.26,.41,4.19-.15,9.15,.52,12.57,.4,.76,.17-.24,1,.79,.99,5.89,.59,12.12,1.05,18.43,1.31,.48,.09,.1,1.14,.79,.99,.87,.18,.66-.99,1.44-.92,.49,.31,.93,.67,1.19,1.24,7.23,.89,14.67-.09,22.12-.5,6.94-.38,13.91-.35,20.5-.55,5.2-.16,10.17-1.18,14.82-.49,6.24-.81,11.63-.76,17.47-.89,4.21-.09,8.84,.46,12.38-.09,.61-.1,1.33-.65,2.05-.66,1.07,0,2.15,.81,3.22,.82,2.89,.03,5.86-.97,8.74-.92,3.24,.05,6.35,.22,9.53,.3,1.79,.05,3.52-.73,5.29-.79,1.18-.04,2.41,.61,3.64,.59,3.43-.04,6.92-1.09,10.16-.88,4.33,.29,8.79,1.34,13.18,.18,4.86,.64,10.76,.67,15.41,.25,3.77,1.91,7.69-.06,11.96,.38,.45,.05,.75,.42,1.2,.52,6.46,1.42,13.63-1.14,18.86,.12,1.96-1.26,3.64,.13,5.47,.41,1.97,.31,3.8-.51,5.69-.54,.62,0,1.18,.48,1.81,.53,1.92,.19,3.79-.61,5.9-.77,3.16-.23,6.51,1.84,10.13,.56,2.79,.89,6.93,1.93,10.13,.8,5.4,1.81,10.87-.29,16.42,.52,1.87,.28,3.58,1.55,5.47,.41,1.96,1.29,4.29,.54,6.68,.69,2.36,.15,4.81,.9,7.27,1.19,3.51,.41,7.87-.62,10.5,2.01,1.2,5.46,3.53-2.57,6.32-1.48,1.48,1.1,1.29,2.64,1.92,4.62,1.33,.82,2.57,.32,3.86-.12,1.5,.53,2.6,3,4.6,3.03ZM59.46,39.4c.04-.28-.04-.43-.19-.49,.44-1.15,1.39,.53,.19,.49Zm-.42,.47c-1.69,.1-4.06,1.18-5.28,.31-.33,0,.29,1.37-.24,1.67-.72-.59-1.57-1.04-2.82-1.05-.08-1.99,2.38-.81,2.49-2.56,.95,.17,1.42,.26,1.84-.66,1.95,.67,2.38-.56,3.85,.12-.39,1.14,.26,.87,.15,2.16Z"/></g><g><path class="cls-2" d="M131.83,31.02c.48,.38,.85,.86,1.12,1.44,.26,.58,.44,1.08,.54,1.51-.72,1.39-1.56,3.46-2.52,6.19-.96,2.74-1.88,5.8-2.77,9.18-.89,3.38-1.65,6.94-2.27,10.66-.62,3.72-.94,7.24-.94,10.55,0,.53,.02,1.09,.07,1.69,.05,.6,.13,1.18,.25,1.73,.12,.55,.3,1.02,.54,1.4,.24,.38,.55,.65,.94,.79,.24,.1,.47,.2,.68,.32,.22,.12,.32,.32,.32,.61,0,.38-.29,.71-.86,.97-.58,.26-1.3,.4-2.16,.4-.72,0-1.46-.12-2.23-.36-.77-.24-1.48-.65-2.12-1.22s-1.18-1.36-1.58-2.34c-.41-.98-.61-2.22-.61-3.71,0-1.01,.06-2.17,.18-3.49,.12-1.32,.26-2.62,.43-3.89,.17-1.27,.34-2.42,.5-3.46,.17-1.03,.32-1.74,.47-2.12-1.01,.14-1.99,.22-2.95,.22s-1.82-.05-2.74-.14c-.91-.1-1.78-.19-2.59-.29-.34,1.06-.85,2.6-1.55,4.61-.7,2.02-1.56,4.02-2.59,6.01-1.03,1.99-2.22,3.73-3.56,5.22-1.34,1.49-2.81,2.23-4.39,2.23-.24,0-.54-.05-.9-.14-.36-.1-.72-.24-1.08-.43-.36-.19-.67-.44-.94-.76-.26-.31-.4-.68-.4-1.12,0-.29,.08-.5,.25-.65,.17-.14,.35-.24,.54-.29,.43-.1,.77-.42,1.01-.97,.24-.55,.42-1.18,.54-1.87,.12-.7,.2-1.37,.25-2.02,.05-.65,.07-1.12,.07-1.4,0-.72-.07-1.43-.22-2.12-.14-.7-.29-1.43-.43-2.2-.14-.77-.29-1.59-.43-2.48-.14-.89-.22-1.89-.22-3.01,0-1.26,.28-2.24,.83-2.92,.55-.68,1.5-1.02,2.84-1.02,.82,0,1.61,.05,2.38,.14,.77,.1,1.56,.19,2.38,.29l.22-.86c.72-2.44,1.37-4.84,1.94-7.21,.58-2.37,.86-4.99,.86-7.86,0-.96-.11-1.83-.32-2.62-.22-.79-.66-1.18-1.33-1.18-.72,0-1.49,.3-2.3,.9-.82,.6-1.68,1.43-2.59,2.48-.91,1.06-1.86,2.28-2.84,3.67-.98,1.39-2,2.91-3.06,4.54-.62,.96-1.21,1.97-1.76,3.02-.55,1.06-.95,2.14-1.19,3.24-.1,.58-.17,.89-.22,.94-.05,.05-.07,.12-.07,.22,0,.43,.06,.68,.18,.76,.12,.07,.18,.3,.18,.68,0,.05-.05,.14-.14,.29-.1,.14-.24,.22-.43,.22-.05,0-.08-.02-.11-.07-.02-.05-.06-.07-.11-.07s-.1,.03-.14,.07v.07s-.29-.02-.86-.22c-.58-.19-1.22-.5-1.94-.94-.72-.43-1.38-.97-1.98-1.62-.6-.65-.9-1.43-.9-2.34,0-1.06,.3-2.15,.9-3.28,.6-1.13,1.34-2.23,2.23-3.31,.89-1.08,1.87-2.11,2.95-3.1,1.08-.98,2.1-1.86,3.06-2.63,.72-.58,1.56-1.2,2.52-1.87,.96-.67,1.98-1.31,3.06-1.91,1.08-.6,2.18-1.09,3.31-1.48,1.13-.38,2.24-.58,3.35-.58,1.2,0,2.21,.25,3.02,.76,.82,.5,1.48,1.19,1.98,2.05,.5,.86,.86,1.87,1.08,3.02,.22,1.15,.32,2.38,.32,3.67,0,2.16-.22,4.4-.65,6.73-.43,2.33-.91,4.53-1.44,6.59,.38,.05,.74,.07,1.08,.07h1.08c1.06,0,2.09-.06,3.1-.18,1.01-.12,1.99-.32,2.95-.61,.96-3.46,1.93-6.91,2.92-10.37,.98-3.46,2.1-6.89,3.35-10.3l.58-1.58c0-.24,.17-.46,.5-.65,.34-.19,.53-.26,.58-.22,.19,0,.29-.05,.29-.14,.14,.24,.33,.36,.58,.36s.43,.1,.58,.29c0,.19,.1,.29,.29,.29,.29,.05,.48,.19,.58,.43,.1,.24,.14,.5,.14,.79s.01,.59,.04,.9c.02,.31,.11,.54,.25,.68v-.29c.05-.19,.11-.47,.18-.83,.07-.36,.11-.76,.11-1.19Zm-42.91,19.8c-.24-.58-.36-1.15-.36-1.73,0-1.49,.62-3.36,1.87-5.62-1.58,2.16-2.38,3.91-2.38,5.26,0,.91,.29,1.61,.86,2.09Zm11.95,8.71c.24,1.06,.43,2.04,.58,2.95s.22,1.85,.22,2.81c.62-1.39,1.19-2.81,1.69-4.25s1-2.9,1.48-4.39c-.34-.1-.68-.17-1.04-.22-.36-.05-.73-.07-1.12-.07-1.34,0-2.02,.58-2.02,1.73,0,.24,.02,.49,.07,.76,.05,.26,.1,.49,.14,.68Zm5.26-2.66c-.67,2.16-1.38,4.26-2.12,6.3-.74,2.04-1.6,4.07-2.56,6.08,2.16-3.55,3.84-7.68,5.04-12.38h-.36Zm1.22,2.16c.24-.67,.37-1.14,.4-1.4,.02-.26,.04-.52,.04-.76-.1,0-.26,.5-.5,1.51-.38,1.58-.89,3.2-1.51,4.86-.62,1.66-1.42,3.13-2.38,4.43,.05-.1,.12-.19,.22-.29s.18-.19,.25-.29c.07-.1,.18-.24,.32-.43,.19-.19,.58-.8,1.15-1.84,.58-1.03,1.25-2.96,2.02-5.8Zm.07-5.83c.72-2.74,1.26-5.34,1.62-7.81,.36-2.47,.59-4.79,.68-6.95-.48,4.71-1.34,9.62-2.59,14.76h.29Zm16.56,12.74c.77-7.39,2.42-15.19,4.97-23.4-3.12,9.07-4.78,16.87-4.97,23.4Z"/><path class="cls-2" d="M151.63,57.01c.48-.43,.92-.79,1.33-1.08,.41-.29,.73-.43,.97-.43s.36,.1,.36,.29c0,.24-.19,.74-.58,1.51-1.39,2.5-2.8,4.55-4.21,6.16-1.42,1.61-3.13,2.6-5.15,2.99-1.15,1.54-2.45,2.76-3.89,3.67-1.44,.91-2.98,1.37-4.61,1.37-1.39,0-2.59-.26-3.6-.79-1.01-.53-1.84-1.22-2.48-2.09-.65-.86-1.13-1.84-1.44-2.92-.31-1.08-.47-2.17-.47-3.28,0-.33,.05-.96,.14-1.87,.1-.91,.25-1.82,.47-2.74,.22-.91,.48-1.73,.79-2.45,.31-.72,.66-1.08,1.04-1.08,.33,0,.73,.08,1.19,.25,.46,.17,.88,.42,1.26,.76-.05-.19-.07-.37-.07-.54v-.47c0-1.15,.22-2.26,.65-3.31,.43-1.06,1.02-1.98,1.76-2.77,.74-.79,1.6-1.43,2.56-1.91,.96-.48,1.97-.72,3.02-.72,1.34,0,2.51,.29,3.49,.86,.98,.58,1.79,1.31,2.41,2.2,.62,.89,1.08,1.88,1.37,2.99,.29,1.1,.43,2.18,.43,3.24,0,1.34-.17,2.71-.5,4.1-.34,1.39-.82,2.74-1.44,4.03,.48-.34,.91-.73,1.3-1.19,.38-.46,.77-.95,1.15-1.48,.38-.53,.79-1.07,1.22-1.62s.94-1.12,1.51-1.69Zm-21.31,0c0-.1,.01-.18,.04-.25,.02-.07,.04-.16,.04-.25s.02-.17,.07-.22c-.1,0-.22,.17-.36,.5-.14,.34-.29,.77-.43,1.3-.14,.53-.28,1.13-.4,1.8-.12,.67-.18,1.34-.18,2.02,0,.82,.06,1.58,.18,2.3,.12,.72,.32,1.34,.61,1.87-.29-.86-.43-2.04-.43-3.53,0-1.1,.08-2.17,.25-3.2,.17-1.03,.37-1.81,.61-2.34Zm5.11,10.51c.14,.05,.36,.07,.65,.07,.96,0,1.99-.43,3.1-1.3-1.1-.48-2.11-1.18-3.02-2.09-.91-.91-1.7-1.99-2.38-3.24-.29,1.01-.43,1.92-.43,2.74,0,.91,.18,1.7,.54,2.38,.36,.67,.88,1.15,1.55,1.44Zm5.4-3.82c.29-.48,.6-1.13,.94-1.94,.34-.82,.65-1.7,.94-2.66,.29-.96,.53-1.94,.72-2.95,.19-1.01,.29-1.94,.29-2.81,0-1.25-.22-2.24-.65-2.99-.43-.74-1.18-1.12-2.23-1.12-.72,0-1.37,.2-1.94,.61-.58,.41-1.07,.96-1.48,1.66-.41,.7-.72,1.48-.94,2.34s-.32,1.75-.32,2.66c0,.82,.08,1.61,.25,2.38,.17,.77,.44,1.48,.83,2.12,.38,.65,.88,1.21,1.48,1.69,.6,.48,1.31,.82,2.12,1.01Zm2.3-15.98c.33,.14,.71,.4,1.12,.76,.41,.36,.77,.76,1.08,1.19,.31,.43,.59,.86,.83,1.3,.24,.43,.36,.82,.36,1.15,.05,.1,.1,.19,.14,.29,.05,.1,.07,.12,.07,.07,0-.33-.1-.76-.29-1.26-.19-.5-.44-1-.76-1.48-.31-.48-.7-.91-1.15-1.3-.46-.38-.92-.62-1.4-.72Z"/><path class="cls-2" d="M176.11,45.35c.05-.67,.41-1.01,1.08-1.01,.43,0,.89,.13,1.37,.4,.48,.26,.92,.59,1.33,.97,.41,.38,.73,.79,.97,1.22,.24,.43,.36,.79,.36,1.08-.19,.82-.55,1.97-1.08,3.46-.53,1.49-1.18,3.12-1.94,4.9-.77,1.78-1.62,3.59-2.56,5.44-.94,1.85-1.92,3.53-2.95,5.04-1.03,1.51-2.08,2.75-3.13,3.71-1.06,.96-2.06,1.44-3.02,1.44-1.44,0-2.56-.53-3.35-1.58s-1.36-2.3-1.69-3.74c-1.01,1.58-2.05,2.87-3.13,3.85-1.08,.98-2.12,1.48-3.13,1.48s-1.86-.26-2.56-.79c-.7-.53-1.25-1.24-1.66-2.12-.41-.89-.7-1.9-.86-3.02-.17-1.13-.25-2.29-.25-3.49,0-1.44,.1-2.93,.29-4.46,.19-1.54,.42-3,.68-4.39,.26-1.39,.54-2.66,.83-3.82,.29-1.15,.53-2.09,.72-2.81,.14-.43,.53-.65,1.15-.65,.43,0,.95,.11,1.55,.32,.6,.22,1.15,.5,1.66,.86,.5,.36,.94,.77,1.3,1.22,.36,.46,.54,.9,.54,1.33,0,.1-.05,.29-.14,.58-.14,.24-.4,1.03-.76,2.38-.36,1.34-.73,2.86-1.12,4.54-.38,1.68-.73,3.36-1.04,5.04-.31,1.68-.47,3-.47,3.96,0,.86,.14,1.3,.43,1.3,.14,0,.47-.18,.97-.54s1.06-.89,1.66-1.58c.6-.7,1.19-1.56,1.76-2.59,.58-1.03,1.03-2.24,1.37-3.64,.14-1.68,.36-3.32,.65-4.93,.29-1.61,.6-3.04,.94-4.28l.07-.22c.24-.96,.44-1.82,.61-2.59,.17-.77,.64-1.15,1.4-1.15,.14,0,.36,.05,.65,.14,.14,.05,.26,.07,.36,.07,.24,0,.55,.14,.94,.43,.19,.14,.38,.26,.58,.36,.05,0,.08,.01,.11,.04,.02,.03,.06,.04,.11,.04l-.14,.36c-.38,1.01-.71,1.97-.97,2.88-.26,.91-.4,1.63-.4,2.16,.05,0,.14-.22,.29-.65,.14-.43,.31-.94,.5-1.51,.19-.58,.37-1.15,.54-1.73,.17-.58,.32-1.03,.47-1.37,.1,.1,.23,.17,.4,.22,.17,.05,.35,.19,.54,.43l.29,.36c.38,.43,.58,1.13,.58,2.09-.14,.24-.4,1.02-.76,2.34-.36,1.32-.75,2.82-1.15,4.5-.41,1.68-.77,3.36-1.08,5.04-.31,1.68-.47,3-.47,3.96s.17,1.37,.5,1.37c.38,0,.85-.41,1.4-1.22,.55-.82,1.14-1.88,1.76-3.2,.62-1.32,1.26-2.81,1.91-4.46,.65-1.66,1.26-3.31,1.84-4.97s1.07-3.25,1.48-4.79c.41-1.54,.71-2.85,.9-3.96Zm-22.68,3.96c.1-.38,.14-.55,.14-.5s-.13,.4-.4,1.04c-.26,.65-.54,1.48-.83,2.48-.29,1.01-.55,2.15-.79,3.42-.24,1.27-.36,2.56-.36,3.85,0,1.2,.19,1.99,.58,2.38-.05-.19-.07-.38-.07-.58v-.65c0-.86,.07-1.88,.22-3.06,.14-1.18,.31-2.33,.5-3.46,.19-1.13,.38-2.14,.58-3.02,.19-.89,.33-1.52,.43-1.91Zm19.22,13.54c.34-.24,.76-.85,1.26-1.84,.5-.98,.98-2.06,1.44-3.24,.46-1.17,.85-2.31,1.19-3.42,.33-1.1,.5-1.9,.5-2.38-.1,.43-.38,1.25-.86,2.45-.48,1.2-1,2.42-1.55,3.67-.55,1.25-1.03,2.35-1.44,3.31-.41,.96-.59,1.44-.54,1.44Zm5.33-9c.14-.43,.23-.73,.25-.9,.02-.17,.04-.28,.04-.32,0,.1-.12,.42-.36,.97-.24,.55-.58,1.29-1.01,2.2-.43,.91-.91,1.96-1.44,3.13-.53,1.18-1.08,2.44-1.66,3.78,0,.05-.05,.16-.14,.32-.1,.17-.18,.36-.25,.58-.07,.22-.16,.49-.25,.83,.05,0,.28-.37,.68-1.12,.41-.74,.86-1.66,1.37-2.74s1.01-2.23,1.51-3.46c.5-1.22,.92-2.32,1.26-3.28Z"/><path class="cls-2" d="M246.17,31.96c.38,.77,.66,1.58,.83,2.45,.17,.86,.25,1.75,.25,2.66,0,1.82-.26,3.66-.79,5.51-.53,1.85-1.08,3.54-1.66,5.08-1.73,4.51-3.86,8.84-6.41,13-2.54,4.15-5.11,8.24-7.7,12.28l-.43,.22c-.1,0-.2,.01-.32,.04-.12,.02-.23,.04-.32,.04-1.3,0-2.38-.46-3.24-1.37-.86-.91-1.56-1.94-2.09-3.1-.19-.72-.29-1.61-.29-2.66,0-2.59,.25-5.2,.76-7.81,.5-2.62,1-5.19,1.48-7.74-2.16,4.22-4.31,8.45-6.44,12.67-2.14,4.22-3.97,8.59-5.51,13.1,.14,.19,.3,.34,.47,.43,.17,.1,.25,.26,.25,.5,0,.38-.18,.65-.54,.79-.36,.14-.76,.22-1.19,.22-.86,0-1.67-.19-2.41-.58-.74-.38-1.39-.88-1.94-1.48-.55-.6-.98-1.31-1.3-2.12-.31-.82-.47-1.66-.47-2.52,0-.91,.11-1.84,.32-2.77,.22-.94,.48-1.86,.79-2.77,.31-.91,.64-1.8,.97-2.66,.34-.86,.62-1.66,.86-2.38l.36-1.08c1.2-3.6,2.29-7.27,3.28-11.02,.98-3.74,1.48-7.61,1.48-11.59,0-1.1-.12-2.09-.36-2.95-.24-.86-.72-1.3-1.44-1.3-.96,0-1.99,.43-3.1,1.3-1.1,.86-2.21,1.96-3.31,3.28-1.1,1.32-2.16,2.78-3.17,4.39-1.01,1.61-1.91,3.16-2.7,4.64-.79,1.49-1.42,2.83-1.87,4.03-.46,1.2-.68,2.04-.68,2.52,0,.29,.06,.55,.18,.79,.12,.24,.18,.48,.18,.72,0,.62-.34,.94-1.01,.94-.72,0-1.44-.19-2.16-.58-.72-.38-1.39-.86-2.02-1.44-.62-.58-1.13-1.19-1.51-1.84-.38-.65-.58-1.24-.58-1.76,0-1.15,.31-2.33,.94-3.53,.62-1.2,1.43-2.38,2.41-3.53,.98-1.15,2.05-2.26,3.2-3.31,1.15-1.06,2.23-2.02,3.24-2.88,.72-.62,1.6-1.3,2.63-2.02,1.03-.72,2.14-1.39,3.31-2.02,1.18-.62,2.39-1.14,3.64-1.55,1.25-.41,2.45-.61,3.6-.61,1.3,0,2.4,.28,3.31,.83,.91,.55,1.64,1.28,2.2,2.2,.55,.91,.96,1.97,1.22,3.17,.26,1.2,.4,2.47,.4,3.82,0,2.4-.29,4.81-.86,7.24s-1.13,4.55-1.66,6.37c-.05,.1-.07,.22-.07,.36-.14,.58-.38,1.25-.72,2.02-.34,.77-.67,1.49-1.01,2.16-.34,.67-.74,1.51-1.22,2.52,.29,0,.77-.65,1.44-1.94,.67-1.3,1.44-2.86,2.3-4.68,.86-1.82,1.75-3.74,2.66-5.76,.91-2.02,1.7-3.72,2.38-5.11-1.39,4.27-2.81,7.86-4.25,10.76s-2.9,5.53-4.39,7.88c-.29,.43-.44,.71-.47,.83-.02,.12-.08,.23-.18,.32,.34,0,.77-.42,1.3-1.26,.53-.84,1.12-1.97,1.76-3.38,.65-1.42,1.34-3.01,2.09-4.79,.74-1.78,1.5-3.59,2.27-5.44,.77-1.85,1.52-3.67,2.27-5.47,.74-1.8,1.48-3.39,2.2-4.79l.14-.29h.43c1.06,.14,1.93,.45,2.63,.9,.7,.46,1.24,1.03,1.62,1.73,.38,.7,.65,1.48,.79,2.34,.14,.86,.22,1.75,.22,2.66v1.19c0,.41-.02,.83-.07,1.26-.43,2.88-.84,5.77-1.22,8.68-.38,2.9-.77,5.77-1.15,8.6,1.2-2.16,2.29-4.42,3.28-6.77,.98-2.35,1.84-4.72,2.56-7.09,.72-2.38,1.28-4.74,1.69-7.09,.41-2.35,.61-4.61,.61-6.77,0-.62-.07-1.36-.22-2.2-.14-.84-.5-1.38-1.08-1.62-.14,0-.43-.05-.86-.14-.43-.1-.65-.36-.65-.79,0-.38,.23-.76,.68-1.12,.46-.36,1.01-.67,1.66-.94,.65-.26,1.34-.48,2.09-.65,.74-.17,1.38-.25,1.91-.25,.67,0,1.33,.14,1.98,.43,.65,.29,1.16,.77,1.55,1.44Zm-52.78,20.09c-.29-.48-.43-1.1-.43-1.87,0-1.68,.86-3.94,2.59-6.77-2.02,2.74-3.02,4.92-3.02,6.55,0,.82,.29,1.51,.86,2.09Zm20.02,.22c1.82-4.94,2.74-9.5,2.74-13.68,0-1.2-.07-2.42-.22-3.67,.05,.38,.07,.77,.07,1.15v1.15c0,4.08-.86,9.1-2.59,15.05Zm25.56,5.9c4.8-8.35,7.32-15.48,7.56-21.38-.67,3.84-1.69,7.48-3.06,10.91-1.37,3.43-2.87,6.92-4.5,10.48Zm.79-4.54s.1-.24,.29-.58c1.1-2.3,1.96-4.49,2.56-6.55,.6-2.06,1.09-4.27,1.48-6.62-.1,.1-.17,.29-.22,.58-.19,.96-.4,1.86-.61,2.7s-.47,1.73-.76,2.66c-.29,.94-.62,1.94-1.01,3.02-.38,1.08-.84,2.34-1.37,3.78-.24,.72-.36,1.06-.36,1.01Z"/><path class="cls-2" d="M261.22,57.37c1.15-.96,1.92-1.44,2.3-1.44,.14,0,.21,.1,.21,.29,0,.43-.26,1.13-.79,2.09l-.87,1.51c-.77,1.39-1.57,2.81-2.41,4.25-.84,1.44-1.76,2.75-2.77,3.92-1.01,1.18-2.11,2.14-3.31,2.88s-2.54,1.12-4.03,1.12c-1.15,0-2.22-.19-3.2-.58-.98-.38-1.84-.89-2.56-1.51s-1.29-1.33-1.69-2.12c-.41-.79-.61-1.62-.61-2.48,0-1.73,.38-3.66,1.15-5.8s1.78-4.14,3.02-6.01c1.25-1.87,2.65-3.44,4.21-4.72,1.56-1.27,3.11-1.91,4.64-1.91,1.36,0,2.52,.46,3.47,1.37,.95,.91,1.42,1.97,1.42,3.17s-.35,2.46-1.05,3.78c-.7,1.32-1.58,2.53-2.64,3.64-1.06,1.11-2.22,2.02-3.48,2.74-1.26,.72-2.42,1.08-3.48,1.08-.43,0-.82-.07-1.16-.22-.1,.34-.17,.67-.22,1.01-.05,.34-.07,.67-.07,1.01,0,.96,.24,1.79,.72,2.48,.48,.7,1.37,1.04,2.66,1.04,1.15,0,2.26-.47,3.31-1.4,1.05-.94,2.04-2.02,2.95-3.24,.91-1.22,1.73-2.41,2.45-3.56,.72-1.15,1.32-1.94,1.8-2.38Zm-15.95-1.08c.19-.33,.53-.83,1.01-1.48,.48-.65,.96-1.3,1.44-1.94,.48-.65,.9-1.22,1.26-1.73s.54-.8,.54-.9c-1.78,1.58-3.08,3.16-3.92,4.72-.84,1.56-1.26,2.65-1.26,3.28,.09,0,.22-.26,.36-.79,.14-.53,.33-.91,.58-1.15Zm2.06-.22s.3-.28,.76-.83c.46-.55,.94-1.18,1.44-1.87,.5-.7,1.16-1.64,1.98-2.84-.05,0-.29,.22-.72,.65s-.9,.95-1.4,1.55c-.5,.6-.97,1.21-1.4,1.84-.43,.62-.65,1.13-.65,1.51Zm7.49-4.32c-.14-.14-.29-.22-.43-.22-.48,0-1.07,.42-1.76,1.26-.7,.84-1.37,1.8-2.02,2.88-.65,1.08-1.21,2.11-1.69,3.1-.48,.98-.75,1.62-.79,1.91,.1,.05,.26,.07,.5,.07,.86,0,1.68-.35,2.45-1.04,.77-.7,1.44-1.5,2.01-2.41,.58-.91,1.03-1.84,1.37-2.77,.33-.94,.5-1.67,.5-2.2,0-.19-.05-.38-.14-.58Zm-3.99,8.93c2.28-1.1,3.78-3.29,4.5-6.55-.9,2.78-2.4,4.97-4.5,6.55Z"/><path class="cls-2" d="M292.97,49.88c.1-.19,.19-.33,.29-.43,.09-.1,.14-.17,.14-.22s-.14,.19-.43,.72c-.29,.53-.6,1.1-.94,1.73-.34,.62-.65,1.2-.94,1.73-.29,.53-.46,.79-.5,.79,.05,0-.04-.07-.25-.22-.22-.14-.32-.53-.32-1.15l.94-2.74,.58-1.3c.19-.43,.38-.95,.58-1.55,.19-.6,.4-1.19,.61-1.76,.22-.58,.44-1.06,.68-1.44,.24-.38,.5-.58,.79-.58,.33,0,.65,.07,.94,.22,.19-.29,.48-.73,.86-1.33,.38-.6,.76-1.25,1.12-1.94,.36-.7,.68-1.42,.97-2.16,.29-.74,.43-1.4,.43-1.98,0-1.2-.58-1.8-1.73-1.8-.82,0-1.8,.41-2.95,1.22-1.15,.82-2.35,1.91-3.6,3.28-1.25,1.37-2.48,2.95-3.71,4.75-1.22,1.8-2.33,3.67-3.31,5.62-.98,1.94-1.78,3.9-2.38,5.87-.6,1.97-.9,3.82-.9,5.54,0,.96,.13,1.91,.4,2.84,.26,.94,.66,1.78,1.19,2.52,.53,.74,1.2,1.34,2.02,1.8,.82,.46,1.78,.68,2.88,.68,1.2,0,2.48-.26,3.85-.79,1.37-.53,2.69-1.23,3.96-2.12,1.27-.89,2.44-1.9,3.49-3.02,1.05-1.13,1.85-2.27,2.38-3.42,.19-.48,.55-.72,1.08-.72,.29,0,.56,.1,.83,.29,.26,.19,.4,.46,.4,.79,0,.24-.05,.43-.14,.58-2.79,4.8-5.75,8.49-8.89,11.05-3.14,2.57-6.23,3.85-9.25,3.85-1.73,0-3.32-.34-4.79-1.01-1.46-.67-2.71-1.58-3.74-2.74s-1.85-2.52-2.45-4.1c-.6-1.58-.9-3.29-.9-5.11,0-2.26,.37-4.61,1.12-7.06,.74-2.45,1.73-4.82,2.95-7.13,1.22-2.3,2.62-4.5,4.18-6.59,1.56-2.09,3.17-3.92,4.82-5.51,1.66-1.58,3.28-2.83,4.86-3.74,1.58-.91,3-1.37,4.25-1.37,1.01,0,2.05,.19,3.13,.58,1.08,.38,2.09,.91,3.02,1.58,.94,.67,1.7,1.45,2.3,2.34,.6,.89,.9,1.81,.9,2.77,0,.72-.19,1.66-.58,2.81-.38,1.15-.89,2.37-1.51,3.64-.62,1.27-1.34,2.54-2.16,3.82-.82,1.27-1.62,2.42-2.41,3.46-.79,1.03-1.56,1.87-2.3,2.52-.75,.65-1.38,.97-1.91,.97-.05,0-.1-.01-.14-.04-.05-.02-.1-.04-.14-.04-.34-.05-.62-.12-.86-.22-.24-.1-.44-.18-.61-.25-.17-.07-.25-.16-.25-.25,.09-.48,.28-1,.54-1.55,.26-.55,.78-1.55,1.55-2.99Zm-3.74-13.9c-.91,.38-1.85,1.02-2.81,1.91-.96,.89-1.88,1.91-2.77,3.06-.89,1.15-1.69,2.34-2.41,3.56-.72,1.22-1.3,2.34-1.73,3.35,.29-.62,.85-1.56,1.69-2.81,.84-1.25,1.75-2.51,2.74-3.78,.98-1.27,1.96-2.42,2.92-3.46,.96-1.03,1.75-1.64,2.38-1.84Zm-9.36,8.64c2.64-4.32,6.31-8.35,11.02-12.1-5.18,3.46-8.86,7.49-11.02,12.1Zm13.39,22.32c-2.21,1.68-4.42,2.52-6.62,2.52-1.63,0-3.17-.41-4.61-1.22,1.54,1.2,3.14,1.8,4.82,1.8,2.16,0,4.29-1.03,6.41-3.1Z"/><path class="cls-2" d="M323.78,57.37c.48-.43,.92-.79,1.33-1.08,.41-.29,.73-.43,.97-.43s.36,.12,.36,.36c0,.1-.16,.48-.47,1.15-.31,.67-.71,1.51-1.19,2.52-.48,1.01-1.04,2.11-1.69,3.31-.65,1.2-1.3,2.36-1.94,3.49-.65,1.13-1.3,2.14-1.94,3.02-.65,.89-1.24,1.55-1.76,1.98-.34,.24-.67,.41-1.01,.5-.34,.1-.65,.14-.94,.14-.43,0-.86-.07-1.3-.22l-.29-.14c-.96-.29-1.7-.83-2.23-1.62s-.89-1.74-1.08-2.84c-.86,1.01-1.9,2-3.1,2.99-1.2,.98-2.45,1.55-3.74,1.69-.91,0-1.68-.24-2.3-.72-.62-.48-1.14-1.07-1.55-1.76-.41-.7-.7-1.43-.86-2.2-.17-.77-.25-1.42-.25-1.94,0-2.06,.32-4.21,.97-6.44,.65-2.23,1.51-4.27,2.59-6.12,1.08-1.85,2.31-3.37,3.71-4.57,1.39-1.2,2.81-1.8,4.25-1.8,.62,0,1.27,.12,1.94,.36,.67,.24,1.28,.6,1.84,1.08,.55,.48,1.03,1.08,1.44,1.8,.41,.72,.68,1.56,.83,2.52,.67,.24,1.38,.68,2.12,1.33,.74,.65,1.12,1.36,1.12,2.12,0,.19-.05,.43-.14,.72-.96,1.87-1.76,3.86-2.41,5.98-.65,2.11-.97,4.08-.97,5.9,.77-.67,1.5-1.51,2.2-2.52,.7-1.01,1.34-2.05,1.94-3.13,.6-1.08,1.2-2.11,1.8-3.1,.6-.98,1.19-1.76,1.76-2.34Zm-20.16-2.59c.19-.34,.47-.8,.83-1.4,.36-.6,.73-1.19,1.12-1.76,.38-.58,.73-1.08,1.04-1.51,.31-.43,.52-.65,.61-.65l-1.33,1.33c-.5,.5-.97,1.06-1.4,1.66-.43,.6-.8,1.25-1.12,1.94-.31,.7-.49,1.4-.54,2.12,.05-.05,.17-.3,.36-.76,.19-.46,.34-.78,.43-.97Zm7.56,3.74c.14-.34,.28-.77,.4-1.3,.12-.53,.24-1.09,.36-1.69,.12-.6,.2-1.19,.25-1.76,.05-.58,.07-1.08,.07-1.51,0-.67-.14-1.01-.43-1.01-.38,0-.84,.35-1.37,1.04-.53,.7-1.08,1.58-1.66,2.66s-1.15,2.28-1.73,3.6c-.58,1.32-1.09,2.59-1.55,3.82-.46,1.22-.83,2.34-1.12,3.35s-.43,1.75-.43,2.23c0,.34,.07,.5,.22,.5,.19,0,.71-.37,1.55-1.12,.84-.74,1.7-1.61,2.59-2.59,.89-.98,1.69-1.93,2.41-2.84,.72-.91,1.08-1.51,1.08-1.8-.14-.1-.31-.25-.5-.47-.19-.22-.29-.44-.29-.68,0-.1,.05-.24,.14-.43Zm-2.88-8.06c-.1,0-.43,.26-1.01,.79-.58,.53-1.06,1.03-1.44,1.51,0,.05-.08,.19-.25,.43-.17,.24-.34,.5-.5,.79-.17,.29-.32,.55-.47,.79s-.19,.36-.14,.36c-.14,0,.18-.42,.97-1.26,.79-.84,1.64-1.88,2.56-3.13l.29-.29Zm7.06,10.08c.29-.96,.54-1.85,.76-2.66,.22-.82,.32-1.37,.32-1.66,0-.05,.01-.07,.04-.07s.04-.02,.04-.07v-.07s-.13,.06-.25,.18c-.12,.12-.23,.37-.32,.76-.43,1.73-.82,3.29-1.15,4.68-.29,1.2-.55,2.29-.79,3.28-.24,.98-.34,1.52-.29,1.62,.14-.62,.4-1.52,.76-2.7,.36-1.18,.66-2.27,.9-3.28Z"/><path class="cls-2" d="M346.17,57.37c.43-.43,.86-.79,1.3-1.08,.43-.29,.77-.43,1.01-.43,.19,0,.29,.12,.29,.36,0,.14-.18,.64-.54,1.48-.36,.84-.85,1.84-1.48,2.99-.62,1.15-1.36,2.4-2.2,3.74-.84,1.34-1.72,2.57-2.63,3.67-.91,1.11-1.87,2.03-2.88,2.77s-1.97,1.12-2.88,1.12c-.96,0-1.84-.44-2.63-1.33-.79-.89-1.19-2.17-1.19-3.85,0-1.34,.2-2.82,.61-4.43,.41-1.61,.86-3.12,1.37-4.54,.5-1.42,1-2.66,1.48-3.74,.48-1.08,.79-1.81,.94-2.2-.29,.24-.91,.97-1.87,2.2-.96,1.22-2.04,2.72-3.24,4.5-1.2,1.78-2.4,3.73-3.6,5.87-1.2,2.14-2.18,4.24-2.95,6.3-.1,.48-.41,.72-.94,.72-.58,0-1.19-.38-1.84-1.15-.65-.77-.97-2.14-.97-4.1,0-1.82,.43-4.29,1.3-7.42,.86-3.12,2.5-7.03,4.9-11.74,.19-.43,.55-.65,1.08-.65,.58,0,1.22,.24,1.94,.72,.72,.48,1.32,.98,1.8,1.51l-.36,.43c-.14,.24-.42,.7-.83,1.37-.41,.67-.82,1.4-1.22,2.2s-.78,1.57-1.12,2.34c-.34,.77-.5,1.39-.5,1.87,0,.19,.02,.34,.07,.43,.1-.53,.35-1.27,.76-2.23s.84-1.91,1.3-2.84c.46-.94,.89-1.75,1.3-2.45,.41-.7,.64-1.04,.68-1.04,.38,.48,.58,.94,.58,1.37,0,.24-.12,.6-.36,1.08-.24,.48-.52,.98-.83,1.51s-.64,1.07-.97,1.62c-.34,.55-.6,1.02-.79,1.4,.82-1.15,1.64-2.26,2.48-3.31,.84-1.06,1.67-1.98,2.48-2.77s1.62-1.43,2.41-1.91c.79-.48,1.55-.72,2.27-.72,1.01,0,1.91,.35,2.7,1.04,.79,.7,1.19,1.52,1.19,2.48,0,.48-.31,1.45-.94,2.92-.62,1.46-1.32,3.1-2.09,4.9s-1.48,3.61-2.12,5.44c-.65,1.82-1,3.38-1.04,4.68,.91-.58,1.76-1.37,2.56-2.38s1.55-2.05,2.27-3.13,1.4-2.12,2.05-3.13c.65-1.01,1.28-1.82,1.91-2.45Zm-11.81,11.52s-.04-.23-.11-.54c-.07-.31-.11-.68-.11-1.12,0-.53,.07-1.21,.22-2.05,.14-.84,.31-1.69,.5-2.56,.19-.96,.43-2.02,.72-3.17-.38,1.1-.68,2.04-.9,2.81-.22,.77-.42,1.54-.61,2.3-.19,.77-.29,1.39-.29,1.87,0,.05,.01,.2,.04,.47,.02,.26,.06,.54,.11,.83s.11,.55,.18,.79c.07,.24,.16,.36,.25,.36Zm1.73-6.84s-.11,.14-.18,.43c-.07,.29-.16,.65-.25,1.08-.1,.43-.18,.88-.25,1.33-.07,.46-.11,.85-.11,1.19v.58c0,.19,.02,.41,.07,.65,0,.24,.02,.5,.07,.79,.05,0,.1-.25,.14-.76s.1-1.08,.14-1.73c.05-.65,.1-1.27,.14-1.87,.05-.6,.12-1.02,.22-1.26v-.43Z"/><path class="cls-2" d="M400.97,31.02c.48,.38,.85,.86,1.12,1.44s.44,1.08,.54,1.51c-.72,1.39-1.56,3.46-2.52,6.19-.96,2.74-1.88,5.8-2.77,9.18-.89,3.38-1.64,6.94-2.27,10.66-.62,3.72-.94,7.24-.94,10.55,0,.53,.02,1.09,.07,1.69,.05,.6,.13,1.18,.25,1.73,.12,.55,.3,1.02,.54,1.4,.24,.38,.55,.65,.94,.79,.24,.1,.47,.2,.68,.32,.22,.12,.32,.32,.32,.61,0,.38-.29,.71-.86,.97-.58,.26-1.3,.4-2.16,.4-.72,0-1.46-.12-2.23-.36-.77-.24-1.48-.65-2.12-1.22-.65-.58-1.18-1.36-1.58-2.34-.41-.98-.61-2.22-.61-3.71,0-1.01,.06-2.17,.18-3.49,.12-1.32,.26-2.62,.43-3.89,.17-1.27,.33-2.42,.5-3.46,.17-1.03,.32-1.74,.47-2.12-1.01,.14-1.99,.22-2.95,.22s-1.82-.05-2.74-.14-1.78-.19-2.59-.29c-.34,1.06-.85,2.6-1.55,4.61-.7,2.02-1.56,4.02-2.59,6.01-1.03,1.99-2.22,3.73-3.56,5.22-1.34,1.49-2.81,2.23-4.39,2.23-.24,0-.54-.05-.9-.14-.36-.1-.72-.24-1.08-.43-.36-.19-.67-.44-.94-.76-.26-.31-.4-.68-.4-1.12,0-.29,.08-.5,.25-.65,.17-.14,.35-.24,.54-.29,.43-.1,.77-.42,1.01-.97,.24-.55,.42-1.18,.54-1.87,.12-.7,.2-1.37,.25-2.02,.05-.65,.07-1.12,.07-1.4,0-.72-.07-1.43-.22-2.12-.14-.7-.29-1.43-.43-2.2-.14-.77-.29-1.59-.43-2.48-.14-.89-.22-1.89-.22-3.01,0-1.26,.28-2.24,.83-2.92,.55-.68,1.5-1.02,2.84-1.02,.82,0,1.61,.05,2.38,.14,.77,.1,1.56,.19,2.38,.29l.22-.86c.72-2.44,1.37-4.84,1.94-7.21s.86-4.99,.86-7.86c0-.96-.11-1.83-.32-2.62s-.66-1.18-1.33-1.18c-.72,0-1.49,.3-2.3,.9-.82,.6-1.68,1.43-2.59,2.48-.91,1.06-1.86,2.28-2.84,3.67-.98,1.39-2,2.91-3.06,4.54-.62,.96-1.21,1.97-1.76,3.02-.55,1.06-.95,2.14-1.19,3.24-.1,.58-.17,.89-.22,.94-.05,.05-.07,.12-.07,.22,0,.43,.06,.68,.18,.76,.12,.07,.18,.3,.18,.68,0,.05-.05,.14-.14,.29-.1,.14-.24,.22-.43,.22-.05,0-.08-.02-.11-.07-.03-.05-.06-.07-.11-.07s-.1,.03-.14,.07v.07s-.29-.02-.86-.22c-.58-.19-1.22-.5-1.94-.94s-1.38-.97-1.98-1.62c-.6-.65-.9-1.43-.9-2.34,0-1.06,.3-2.15,.9-3.28,.6-1.13,1.34-2.23,2.23-3.31,.89-1.08,1.87-2.11,2.95-3.1,1.08-.98,2.1-1.86,3.06-2.63,.72-.58,1.56-1.2,2.52-1.87,.96-.67,1.98-1.31,3.06-1.91,1.08-.6,2.18-1.09,3.31-1.48,1.13-.38,2.24-.58,3.35-.58,1.2,0,2.21,.25,3.02,.76,.82,.5,1.48,1.19,1.98,2.05s.86,1.87,1.08,3.02c.22,1.15,.32,2.38,.32,3.67,0,2.16-.22,4.4-.65,6.73-.43,2.33-.91,4.53-1.44,6.59,.38,.05,.74,.07,1.08,.07h1.08c1.05,0,2.09-.06,3.1-.18,1.01-.12,1.99-.32,2.95-.61,.96-3.46,1.93-6.91,2.92-10.37,.98-3.46,2.1-6.89,3.35-10.3l.58-1.58c0-.24,.17-.46,.5-.65,.33-.19,.53-.26,.58-.22,.19,0,.29-.05,.29-.14,.14,.24,.33,.36,.58,.36s.43,.1,.58,.29c0,.19,.09,.29,.29,.29,.29,.05,.48,.19,.58,.43,.1,.24,.14,.5,.14,.79s.01,.59,.04,.9c.02,.31,.11,.54,.25,.68v-.29c.05-.19,.11-.47,.18-.83s.11-.76,.11-1.19Zm-42.91,19.8c-.24-.58-.36-1.15-.36-1.73,0-1.49,.62-3.36,1.87-5.62-1.58,2.16-2.38,3.91-2.38,5.26,0,.91,.29,1.61,.86,2.09Zm11.95,8.71c.24,1.06,.43,2.04,.58,2.95,.14,.91,.22,1.85,.22,2.81,.62-1.39,1.19-2.81,1.69-4.25s1-2.9,1.48-4.39c-.34-.1-.68-.17-1.04-.22-.36-.05-.73-.07-1.12-.07-1.34,0-2.02,.58-2.02,1.73,0,.24,.02,.49,.07,.76,.05,.26,.1,.49,.14,.68Zm5.26-2.66c-.67,2.16-1.38,4.26-2.12,6.3-.75,2.04-1.6,4.07-2.56,6.08,2.16-3.55,3.84-7.68,5.04-12.38h-.36Zm1.22,2.16c.24-.67,.37-1.14,.4-1.4,.02-.26,.04-.52,.04-.76-.1,0-.26,.5-.5,1.51-.38,1.58-.89,3.2-1.51,4.86-.62,1.66-1.42,3.13-2.38,4.43,.05-.1,.12-.19,.22-.29s.18-.19,.25-.29c.07-.1,.18-.24,.32-.43,.19-.19,.58-.8,1.15-1.84,.58-1.03,1.25-2.96,2.02-5.8Zm.07-5.83c.72-2.74,1.26-5.34,1.62-7.81,.36-2.47,.59-4.79,.68-6.95-.48,4.71-1.34,9.62-2.59,14.76h.29Zm16.56,12.74c.77-7.39,2.42-15.19,4.97-23.4-3.12,9.07-4.78,16.87-4.97,23.4Z"/><path class="cls-2" d="M416.73,57.37c1.15-.96,1.92-1.44,2.3-1.44,.14,0,.22,.1,.22,.29,0,.43-.26,1.13-.79,2.09l-.86,1.51c-.77,1.39-1.57,2.81-2.41,4.25-.84,1.44-1.76,2.75-2.77,3.92-1.01,1.18-2.11,2.14-3.31,2.88-1.2,.74-2.54,1.12-4.03,1.12-1.15,0-2.22-.19-3.2-.58-.98-.38-1.84-.89-2.56-1.51-.72-.62-1.28-1.33-1.69-2.12-.41-.79-.61-1.62-.61-2.48,0-1.73,.38-3.66,1.15-5.8,.77-2.14,1.78-4.14,3.02-6.01,1.25-1.87,2.65-3.44,4.21-4.72,1.56-1.27,3.11-1.91,4.64-1.91,1.36,0,2.52,.46,3.47,1.37,.95,.91,1.42,1.97,1.42,3.17s-.35,2.46-1.05,3.78c-.7,1.32-1.58,2.53-2.64,3.64-1.06,1.11-2.22,2.02-3.48,2.74-1.25,.72-2.42,1.08-3.48,1.08-.43,0-.82-.07-1.16-.22-.1,.34-.17,.67-.22,1.01-.05,.34-.07,.67-.07,1.01,0,.96,.24,1.79,.72,2.48,.48,.7,1.37,1.04,2.66,1.04,1.15,0,2.26-.47,3.31-1.4,1.05-.94,2.04-2.02,2.95-3.24,.91-1.22,1.73-2.41,2.45-3.56,.72-1.15,1.32-1.94,1.8-2.38Zm-15.95-1.08c.19-.33,.53-.83,1.01-1.48,.48-.65,.96-1.3,1.44-1.94,.48-.65,.9-1.22,1.26-1.73,.36-.5,.54-.8,.54-.9-1.78,1.58-3.08,3.16-3.92,4.72-.84,1.56-1.26,2.65-1.26,3.28,.1,0,.22-.26,.36-.79,.14-.53,.34-.91,.58-1.15Zm2.06-.22s.3-.28,.76-.83c.46-.55,.94-1.18,1.44-1.87,.5-.7,1.16-1.64,1.98-2.84-.05,0-.29,.22-.72,.65-.43,.43-.9,.95-1.4,1.55-.5,.6-.97,1.21-1.4,1.84-.43,.62-.65,1.13-.65,1.51Zm7.49-4.32c-.14-.14-.29-.22-.43-.22-.48,0-1.07,.42-1.76,1.26-.7,.84-1.37,1.8-2.02,2.88-.65,1.08-1.21,2.11-1.69,3.1-.48,.98-.75,1.62-.79,1.91,.1,.05,.26,.07,.5,.07,.86,0,1.68-.35,2.45-1.04,.77-.7,1.44-1.5,2.02-2.41,.58-.91,1.03-1.84,1.37-2.77,.33-.94,.5-1.67,.5-2.2,0-.19-.05-.38-.14-.58Zm-4,8.93c2.29-1.1,3.78-3.29,4.5-6.55-.9,2.78-2.4,4.97-4.5,6.55Z"/><path class="cls-2" d="M428.47,57.37c.48-.48,.92-.86,1.33-1.15,.41-.29,.73-.43,.97-.43s.36,.12,.36,.36-.19,.75-.58,1.51c-.62,1.1-1.32,2.47-2.09,4.1-.77,1.63-1.62,3.2-2.56,4.72-.94,1.51-1.93,2.81-2.99,3.89-1.06,1.08-2.16,1.62-3.31,1.62-1.65,0-2.81-.65-3.47-1.94s-.99-3-.99-5.11c0-1.87,.22-3.95,.67-6.23,.45-2.28,1-4.6,1.67-6.95,.66-2.35,1.41-4.66,2.24-6.91,.83-2.26,1.63-4.27,2.4-6.05,.77-1.78,1.45-3.21,2.05-4.32,.6-1.1,1.02-1.7,1.26-1.8,.1-.05,.26-.07,.5-.07,.67,0,1.32,.46,1.94,1.37,.62,.91,.94,1.94,.94,3.1,0,.82-.12,1.49-.36,2.02-.67,1.58-1.51,3.58-2.52,5.98-1.01,2.4-1.98,4.93-2.92,7.6-.94,2.66-1.74,5.28-2.41,7.85-.67,2.57-1.01,4.79-1.01,6.66,0,.29,.01,.56,.04,.83,.02,.26,.06,.52,.11,.76,.96-.48,1.84-1.22,2.63-2.23,.79-1.01,1.52-2.09,2.2-3.24,.67-1.15,1.32-2.27,1.94-3.35,.62-1.08,1.27-1.93,1.94-2.56Zm-11.69,2.59c.53-2.69,1.27-5.59,2.23-8.71,.96-3.12,2.11-6.58,3.46-10.37-1.49,3.46-2.71,6.82-3.67,10.08-.96,3.26-1.63,6.26-2.02,9Z"/><path class="cls-2" d="M445.32,51.32c.05,.24,.07,.48,.07,.72v.72c0,1.78-.29,3.64-.86,5.58-.58,1.94-1.27,3.78-2.09,5.51-.82,1.73-1.72,3.22-2.7,4.46-.98,1.25-1.86,2.09-2.63,2.52-.82,.43-1.58,.65-2.3,.65-1.25,0-2.39-.43-3.42-1.3-1.03-.86-1.88-1.82-2.56-2.88-.72,2.4-1.32,4.68-1.8,6.84-.48,2.16-.72,4.22-.72,6.19,0,1.58,.17,2.98,.5,4.18,.58,.1,.86,.31,.86,.65,0,.53-.55,.79-1.66,.79s-2.04-.18-2.81-.54c-.77-.36-1.39-.85-1.87-1.48-.48-.62-.83-1.36-1.04-2.2-.22-.84-.32-1.74-.32-2.7,0-1.58,.22-3.32,.65-5.22,.43-1.9,.98-3.85,1.66-5.87,.67-2.02,1.4-4.03,2.2-6.05,.79-2.02,1.55-3.91,2.27-5.69,.72-1.78,1.34-3.4,1.87-4.86,.53-1.46,.86-2.65,1.01-3.56,0-.19,.12-.29,.36-.29,.29,0,.66,.11,1.12,.32s.91,.48,1.37,.79c.46,.31,.85,.67,1.19,1.08,.33,.41,.55,.8,.65,1.19,1.01-1.15,2.12-2.17,3.35-3.06,1.22-.89,2.39-1.33,3.49-1.33,.62,0,1.17,.19,1.66,.58,.48,.38,.9,.83,1.26,1.33,.36,.5,.65,1.03,.86,1.58s.35,1,.4,1.33Zm-23.18,21.6c-.1,0-.2,.25-.32,.76s-.23,1.08-.32,1.73c-.1,.65-.19,1.28-.29,1.91-.1,.62-.14,1.08-.14,1.37,0,.34,.04,.72,.11,1.15s.14,.83,.22,1.19c.07,.36,.21,.8,.4,1.33,0,.05-.01-.02-.04-.22-.02-.19-.06-.41-.11-.65-.05-.24-.08-.48-.11-.72s-.04-.41-.04-.5c0-.96,.05-2.12,.14-3.49,.1-1.37,.26-2.53,.5-3.49v-.36Zm10.8-5.62c.29,0,.68-.36,1.19-1.08,.5-.72,1.04-1.64,1.62-2.77,.58-1.13,1.16-2.39,1.76-3.78,.6-1.39,1.14-2.74,1.62-4.03,.48-1.3,.88-2.47,1.19-3.53,.31-1.06,.47-1.85,.47-2.38,0-.29-.07-.48-.22-.58-1.11,.53-2.1,1.33-2.99,2.41-.89,1.08-1.67,2.21-2.34,3.38-.67,1.18-1.22,2.28-1.66,3.31-.43,1.03-.72,1.79-.86,2.27-.05,.1-.22,.19-.5,.29-.29,.1-.62,.17-1.01,.22-.14,.48-.26,.94-.36,1.37-.1,.43-.14,.84-.14,1.22,0,1.63,.74,2.86,2.23,3.67Zm0-11.74s-.01,.08-.04,.11c-.03,.03-.04,.06-.04,.11v.07c.38-.67,.92-1.58,1.62-2.74,.7-1.15,1.52-2.28,2.48-3.38-.91,.82-1.66,1.68-2.23,2.59-.58,.91-1.18,1.99-1.8,3.24Zm6.98,2.66c-.05,.1-.07,.24-.07,.43,.1,0,.29-.31,.58-.94,.29-.62,.58-1.34,.86-2.16s.55-1.66,.79-2.52c.24-.86,.36-1.54,.36-2.02,0-.38-.04-.76-.11-1.12s-.16-.54-.25-.54v.29c0,.14,.02,.34,.07,.58,0,.58-.08,1.21-.25,1.91-.17,.7-.37,1.4-.61,2.12-.24,.72-.49,1.43-.76,2.12-.26,.7-.47,1.31-.61,1.84Zm3.46-6.34s.01,.12-.11,.36c-.12,.24-.18,.53-.18,.86,0,.1-.05,.34-.14,.72-.1,.38-.22,.83-.36,1.33-.14,.5-.29,.98-.43,1.44-.14,.46-.24,.78-.29,.97-.05,.1-.03,.19,.07,.29,.19-.1,.37-.42,.54-.97s.32-1.14,.47-1.76c.14-.62,.25-1.19,.32-1.69,.07-.5,.11-.78,.11-.83v-.72Z"/></g></g></svg>