<?xml version="1.0" encoding="UTF-8"?><svg id="Layer_2" xmlns="http://www.w3.org/2000/svg" viewBox="0 0 466.66 153.14"><defs><style>.cls-1{fill:#fff;}.cls-2{fill:#3e374a;}</style></defs><g id="Layer_1-2"><g><path class="cls-1" d="M452.32,132.18c-11.76-5.98-8.08-18.51-12.4-26.67l5.96-3.46c7.89,4.23,20.01,11.62,17.67,20.44-.76,1.51-6.26,11.35-11.23,9.69Z"/><path class="cls-1" d="M465.84,93.42c-1.11,.2-1.29-1.17-2.39-.94l3.21-10.48-.82,11.42Z"/><path class="cls-1" d="M431.15,109.97l-5.56,1.08c-1.29-1.15,1.87-3.18,1.69-4.54l-6.25-4.4c8.48,3.96,8.36-5.85,10.12,7.86Z"/><path class="cls-1" d="M357.9,53.95c-4.21-6.21,3.22-10.47,4.92-15.01,3.51,.71,6.61,7.13,3.8,11.91-4.63-.51-6.5,2.67-8.72,3.11Z"/><g><path class="cls-1" d="M398.56,113.5c2.11-10.25,14.27-4.18,13.05-13.78-.53-4.13-1.06-8.23-2.53-10.75l-6.13,5.41c-15.33-4.05,6.38-12.5-3.92-21.72-2.22,.42-3.33,.64-4.27,2.22-5.03,5.2-3.57,7.73-.64,12.78-14.63,1.44-9.06-26.36-17.03-26.21-10.93,3.54-4.2,20.51-6.84,26.65,.12-16.9-19.77-29.89-35.85-30.97-15.05,7.14-31.95-9.24-49.97,1.3-7.69-2.16-17.74-5.93-27.84-7.35,0-.88-.02-1.75,0-2.64-.25,.72-.4,1.52-.4,2.46-7.43-12.23-24.76,5.54-26.55-13.63l-1.81,1.67c-9.01,1.38,0-6.94-5.18-10.83-8.33,2.49-19.34-13.34-23.62,2.75-.68-1.1,.22-1.94-.46-3.05l-6.75,2.77c-.45,3.89-1.81,8.6-.68,12.77-1.57-.27-2.93,4.44-5.17,3.05-5.63,0-.68-8.05-2.7-11.39-14.18,4.44-30.4,5.54-43.89-2.81,0-13.89-15.52-11.68-22.05-10.84-13.05-12.24-28.13,13.86-38.03,2.18,5.86-8.88,15.98,.85,17.1-8.87l-2.7-4.45c-6.08-3.06-15.75-9.73-19.35,.54,3.37,5.57,3.6,10.57,4.72,14.72-2.7,2.5-3.15,6.38-6.53,7.78-4.95,1.09-10.36-.85-10.36-7.8,2.71-2.49,5.63,.01,8.11-.55,.91-7.78-7.87-8.34-10.8-10.84,5.17,17.77-8.56,25.27,5.39,36.67l-7.66,3.61c-5.86,15.82,24.75,15.29,11.46,32.77-1.35,4.74,.45,10.01-4.06,14.17,2.47,6.4,7.43,5.29,9.45,1.68,3.38,12.49,19.12,1.4,19.58,18.33,12.84-13.59,18.9,10.29,30.6,13.35,14.85,3.62,5.18-9.99,9.46-19.15,7.43,5.27,14.86-3.33,19.37-7.48,4.05-.27,6.52,6.11,3.82,8.6,30.38,15.3,61.21,19.77,91.59,21.18,12.37,11.12,23.86-4.71,36,15.31l-2.02-3.35c-.29-1.98,1.27-2.79,2.49-3.64-2.01-3.64-3.95-7.31-5.81-11.02,3.61,1.45,7.25,2.59,10.83,2.35,3.98-13.43,20.54,.21,25.62-13.43,19.95,4.55,11.58,10.4,31.71,16.32,10.76-4.91,23.57-11.62,36.33-9.9,4.62,.51,8.84,6.72,8.08,9.69,5.55-1.1,13.51-1.24,19.25-.95,24.51-13.22-3.16-24.69-12.41-25.7Z"/><path class="cls-1" d="M155.14,14.16c.9-7.78-5.17-10.82-7.2-14.16l-2.7,2.51c-6.75,2.76-6.98,11.65-2.7,16.37,1.57-6.66,8.77-6.38,12.6-4.72Z"/><path class="cls-1" d="M209.61,8.93l-.9,7.78,8.33-2.48c-.22-5.01-4.27-4.73-7.43-5.29Z"/><path class="cls-1" d="M34.7,68.24c7.88,1.39,11.03,8.9,19.36,6.41l-1.57-14.18c-8.1-6.38-16.64-15.83-26.32-15.57-6.53,14.73,11.69,10.01,8.54,23.34Z"/><path class="cls-1" d="M51.79,94.09c-14.41,13.32-31.28-7.54-43.44,14.12,3.36,33.33,24.32-1.64,33.53,8.91,6.09-3.88,9.69-7.22,17.34-10.81,5.63-6.94-3.6-10.57-7.43-12.22Z"/><path class="cls-1" d="M4.53,92.65c-1.57-.27-3.38,1.39-4.28,2.23-1.12,2.76,1.81,5.28,3.15,7.5,1.57,.28,5.63-6.94,1.13-9.73Z"/></g></g><g><path class="cls-2" d="M131.94,65.79c.38,.77,.66,1.58,.83,2.45,.17,.86,.25,1.75,.25,2.66,0,1.82-.26,3.66-.79,5.51-.53,1.85-1.08,3.54-1.66,5.08-1.73,4.51-3.86,8.84-6.41,13-2.54,4.15-5.11,8.24-7.7,12.28l-.43,.22c-.1,0-.2,.01-.32,.04-.12,.02-.23,.04-.32,.04-1.3,0-2.38-.46-3.24-1.37-.86-.91-1.56-1.94-2.09-3.1-.19-.72-.29-1.61-.29-2.66,0-2.59,.25-5.2,.76-7.81,.5-2.62,1-5.19,1.48-7.74-2.16,4.22-4.31,8.45-6.44,12.67-2.14,4.22-3.97,8.59-5.51,13.1,.14,.19,.3,.34,.47,.43,.17,.1,.25,.26,.25,.5,0,.38-.18,.65-.54,.79-.36,.14-.76,.22-1.19,.22-.86,0-1.67-.19-2.41-.58-.74-.38-1.39-.88-1.94-1.48-.55-.6-.98-1.31-1.3-2.12-.31-.82-.47-1.66-.47-2.52,0-.91,.11-1.84,.32-2.77,.22-.94,.48-1.86,.79-2.77,.31-.91,.64-1.8,.97-2.66,.34-.86,.62-1.66,.86-2.38l.36-1.08c1.2-3.6,2.29-7.27,3.28-11.02,.98-3.74,1.48-7.61,1.48-11.59,0-1.1-.12-2.09-.36-2.95-.24-.86-.72-1.3-1.44-1.3-.96,0-1.99,.43-3.1,1.3-1.1,.86-2.21,1.96-3.31,3.28-1.1,1.32-2.16,2.78-3.17,4.39-1.01,1.61-1.91,3.16-2.7,4.64-.79,1.49-1.42,2.83-1.87,4.03-.46,1.2-.68,2.04-.68,2.52,0,.29,.06,.55,.18,.79,.12,.24,.18,.48,.18,.72,0,.62-.34,.94-1.01,.94-.72,0-1.44-.19-2.16-.58-.72-.38-1.39-.86-2.02-1.44-.62-.58-1.13-1.19-1.51-1.84-.38-.65-.58-1.24-.58-1.76,0-1.15,.31-2.33,.94-3.53,.62-1.2,1.43-2.38,2.41-3.53,.98-1.15,2.05-2.26,3.2-3.31,1.15-1.06,2.23-2.02,3.24-2.88,.72-.62,1.6-1.3,2.63-2.02,1.03-.72,2.14-1.39,3.31-2.02,1.18-.62,2.39-1.14,3.64-1.55,1.25-.41,2.45-.61,3.6-.61,1.3,0,2.4,.28,3.31,.83,.91,.55,1.64,1.28,2.2,2.2,.55,.91,.96,1.97,1.22,3.17,.26,1.2,.4,2.47,.4,3.82,0,2.4-.29,4.81-.86,7.24s-1.13,4.55-1.66,6.37c-.05,.1-.07,.22-.07,.36-.14,.58-.38,1.25-.72,2.02-.34,.77-.67,1.49-1.01,2.16-.34,.67-.74,1.51-1.22,2.52,.29,0,.77-.65,1.44-1.94,.67-1.3,1.44-2.86,2.3-4.68,.86-1.82,1.75-3.74,2.66-5.76,.91-2.02,1.7-3.72,2.38-5.11-1.39,4.27-2.81,7.86-4.25,10.76s-2.9,5.53-4.39,7.88c-.29,.43-.44,.71-.47,.83-.02,.12-.08,.23-.18,.32,.34,0,.77-.42,1.3-1.26,.53-.84,1.12-1.97,1.76-3.38,.65-1.42,1.34-3.01,2.09-4.79,.74-1.78,1.5-3.59,2.27-5.44,.77-1.85,1.52-3.67,2.27-5.47,.74-1.8,1.48-3.39,2.2-4.79l.14-.29h.43c1.06,.14,1.93,.45,2.63,.9,.7,.46,1.24,1.03,1.62,1.73,.38,.7,.65,1.48,.79,2.34,.14,.86,.22,1.75,.22,2.66v1.19c0,.41-.02,.83-.07,1.26-.43,2.88-.84,5.77-1.22,8.68-.38,2.9-.77,5.77-1.15,8.6,1.2-2.16,2.29-4.42,3.28-6.77,.98-2.35,1.84-4.72,2.56-7.09,.72-2.38,1.28-4.74,1.69-7.09,.41-2.35,.61-4.61,.61-6.77,0-.62-.07-1.36-.22-2.2-.14-.84-.5-1.38-1.08-1.62-.14,0-.43-.05-.86-.14-.43-.1-.65-.36-.65-.79,0-.38,.23-.76,.68-1.12,.46-.36,1.01-.67,1.66-.94s1.34-.48,2.09-.65c.74-.17,1.38-.25,1.91-.25,.67,0,1.33,.14,1.98,.43s1.16,.77,1.55,1.44Zm-52.78,20.09c-.29-.48-.43-1.1-.43-1.87,0-1.68,.86-3.94,2.59-6.77-2.02,2.74-3.02,4.92-3.02,6.55,0,.82,.29,1.51,.86,2.09Zm20.02,.22c1.82-4.94,2.74-9.5,2.74-13.68,0-1.2-.07-2.42-.22-3.67,.05,.38,.07,.77,.07,1.15v1.15c0,4.08-.86,9.1-2.59,15.05Zm25.56,5.9c4.8-8.35,7.32-15.48,7.56-21.38-.67,3.84-1.69,7.48-3.06,10.91-1.37,3.43-2.87,6.92-4.5,10.48Zm.79-4.54s.1-.24,.29-.58c1.1-2.3,1.96-4.49,2.56-6.55,.6-2.06,1.09-4.27,1.48-6.62-.1,.1-.17,.29-.22,.58-.19,.96-.4,1.86-.61,2.7-.22,.84-.47,1.73-.76,2.66-.29,.94-.62,1.94-1.01,3.02-.38,1.08-.84,2.34-1.37,3.78-.24,.72-.36,1.06-.36,1.01Z"/><path class="cls-2" d="M146.99,91.2c1.15-.96,1.92-1.44,2.3-1.44,.14,0,.22,.1,.22,.29,0,.43-.26,1.13-.79,2.09l-.86,1.51c-.77,1.39-1.57,2.81-2.41,4.25-.84,1.44-1.76,2.75-2.77,3.92-1.01,1.18-2.11,2.14-3.31,2.88-1.2,.74-2.54,1.12-4.03,1.12-1.15,0-2.22-.19-3.2-.58-.98-.38-1.84-.89-2.56-1.51-.72-.62-1.29-1.33-1.69-2.12-.41-.79-.61-1.62-.61-2.48,0-1.73,.38-3.66,1.15-5.8,.77-2.14,1.78-4.14,3.02-6.01,1.25-1.87,2.65-3.44,4.21-4.72,1.56-1.27,3.11-1.91,4.64-1.91,1.36,0,2.52,.46,3.47,1.37,.95,.91,1.43,1.97,1.43,3.17s-.35,2.46-1.05,3.78c-.7,1.32-1.58,2.53-2.64,3.64-1.06,1.11-2.22,2.02-3.48,2.74-1.26,.72-2.42,1.08-3.48,1.08-.43,0-.82-.07-1.16-.22-.1,.34-.17,.67-.22,1.01-.05,.34-.07,.67-.07,1.01,0,.96,.24,1.79,.72,2.48,.48,.7,1.37,1.04,2.66,1.04,1.15,0,2.26-.47,3.31-1.4,1.06-.94,2.04-2.02,2.95-3.24,.91-1.22,1.73-2.41,2.45-3.56,.72-1.15,1.32-1.94,1.8-2.38Zm-15.95-1.08c.19-.33,.53-.83,1.01-1.48,.48-.65,.96-1.3,1.44-1.94,.48-.65,.9-1.22,1.26-1.73,.36-.5,.54-.8,.54-.9-1.78,1.58-3.08,3.16-3.92,4.72-.84,1.56-1.26,2.65-1.26,3.28,.1,0,.22-.26,.36-.79s.33-.91,.58-1.15Zm2.06-.22s.3-.28,.76-.83c.46-.55,.94-1.18,1.44-1.87,.5-.7,1.16-1.64,1.98-2.84-.05,0-.29,.22-.72,.65-.43,.43-.9,.95-1.4,1.55-.5,.6-.97,1.21-1.4,1.84-.43,.62-.65,1.13-.65,1.51Zm7.49-4.32c-.14-.14-.29-.22-.43-.22-.48,0-1.07,.42-1.76,1.26-.7,.84-1.37,1.8-2.02,2.88s-1.21,2.11-1.69,3.1c-.48,.98-.74,1.62-.79,1.91,.1,.05,.26,.07,.5,.07,.86,0,1.68-.35,2.45-1.04,.77-.7,1.44-1.5,2.02-2.41,.58-.91,1.03-1.84,1.37-2.77,.34-.94,.5-1.67,.5-2.2,0-.19-.05-.38-.14-.58Zm-3.99,8.93c2.28-1.1,3.78-3.29,4.5-6.55-.9,2.78-2.4,4.97-4.5,6.55Z"/><path class="cls-2" d="M164.27,85.73c.05,.24,.07,.48,.07,.72v.72c0,1.73-.28,3.53-.83,5.4-.55,1.87-1.24,3.64-2.05,5.29-.82,1.66-1.69,3.1-2.63,4.32-.94,1.22-1.76,2.05-2.48,2.48-.72,.38-1.49,.58-2.3,.58-.86,0-1.67-.2-2.41-.61-.74-.41-1.4-.95-1.98-1.62,0,.53,.06,1.06,.18,1.58,.12,.53,.18,.94,.18,1.22,0,.58-.22,.86-.65,.86-.48,0-.94-.36-1.37-1.08-.96-.33-1.63-1.05-2.02-2.16-.38-1.1-.58-2.45-.58-4.03,0-1.97,.22-4.12,.65-6.44,.43-2.33,1-4.68,1.69-7.06,.7-2.38,1.46-4.68,2.3-6.91,.84-2.23,1.66-4.21,2.45-5.94,.79-1.73,1.51-3.11,2.16-4.14,.65-1.03,1.14-1.55,1.48-1.55s.67,.16,1.01,.47c.34,.31,.64,.71,.9,1.19,.26,.48,.48,1,.65,1.55,.17,.55,.25,1.07,.25,1.55,0,.29-.05,.58-.14,.86l-4.82,11.88c.96-1.01,1.97-1.88,3.02-2.63,1.06-.74,2.11-1.12,3.17-1.12,.58,0,1.12,.18,1.62,.54s.94,.79,1.3,1.3c.36,.5,.64,1.01,.83,1.51,.19,.5,.31,.92,.36,1.26Zm-16.7,4.1c.77-2.11,1.58-4.46,2.45-7.06,.86-2.59,1.8-5.42,2.81-8.5-1.34,3.07-2.45,5.9-3.31,8.5-.86,2.59-1.51,4.94-1.94,7.06Zm4.68,11.45c.29,0,.67-.34,1.15-1.01,.48-.67,1-1.54,1.55-2.59,.55-1.05,1.1-2.22,1.66-3.49,.55-1.27,1.06-2.52,1.51-3.74,.46-1.22,.83-2.34,1.12-3.35,.29-1.01,.43-1.75,.43-2.23,0-.29-.07-.48-.22-.58-.1,0-.38,.19-.86,.58-.48,.38-1.07,.91-1.76,1.58-.7,.67-1.44,1.46-2.23,2.38-.79,.91-1.52,1.87-2.2,2.88-.67,1.01-1.22,2.03-1.66,3.06-.43,1.03-.65,2-.65,2.92,0,.72,.17,1.39,.5,2.02,.33,.62,.89,1.15,1.66,1.58Zm3.89-16.06c-.53,.34-1.08,.77-1.66,1.3-.58,.53-1.09,1.07-1.55,1.62-.46,.55-.84,1.08-1.15,1.58-.31,.5-.47,.88-.47,1.12,.43-.67,1.08-1.54,1.94-2.59,.86-1.06,1.82-2.06,2.88-3.02Zm5.54,7.99c1.1-2.21,1.66-4.18,1.66-5.9,0-1.01-.17-1.92-.5-2.74,.05,.29,.07,.59,.07,.9v.9c0,2.3-.41,4.58-1.22,6.84Z"/><path class="cls-2" d="M179.39,79.97c0,.62-.31,1.37-.94,2.23,.05,.14,.07,.36,.07,.65,0,.62-.23,1.25-.68,1.87-.46,.62-1,1.21-1.62,1.76-.62,.55-1.27,1.07-1.94,1.55-.67,.48-1.2,.89-1.58,1.22-.14,.72-.22,1.44-.22,2.16,0,1.01,.1,2.06,.29,3.17,.19,1.1,.43,2.2,.72,3.28s.59,2.12,.9,3.13c.31,1.01,.59,1.94,.83,2.81,.05,.19,.07,.46,.07,.79,0,.82-.4,1.39-1.19,1.73-.79,.33-1.72,.5-2.77,.5-.96,0-1.88-.11-2.77-.32-.89-.22-1.57-.47-2.05-.76-.48-.29-.97-.68-1.48-1.19-.5-.5-.96-1.04-1.37-1.62-.41-.58-.74-1.14-1.01-1.69-.26-.55-.4-1.04-.4-1.48,0-.58,.11-1.14,.32-1.69,.22-.55,.59-.88,1.12-.97l.22,.07c.38,.29,.77,.65,1.15,1.08,.38,.43,.79,.88,1.22,1.33,.43,.46,.86,.89,1.3,1.3,.43,.41,.89,.76,1.37,1.04-.67-1.44-1.24-3.21-1.69-5.33-.46-2.11-.68-4.1-.68-5.98,0-1.49,.17-2.71,.5-3.67,.38-1.01,1.04-2.03,1.98-3.06,.94-1.03,1.93-1.96,2.99-2.77,1.06-.82,2.09-1.49,3.1-2.02,1.01-.53,1.78-.79,2.3-.79,.05,0,.17,.05,.36,.14,.19,0,.29,.07,.29,.22,0,.1-.02,.19-.07,.29l.36-.22,.29,.07c.1,.1,.23,.29,.4,.58,.17,.29,.28,.48,.32,.58Zm-11.02,6.48c1.68-2.11,3.89-4.22,6.62-6.34-1.54,.82-2.86,1.76-3.96,2.84-1.1,1.08-1.99,2.24-2.66,3.49Zm1.44-.58c.48-.58,1.01-1.15,1.58-1.73,.58-.58,1.25-1.15,2.02-1.73-1.68,.96-2.88,2.11-3.6,3.46Zm3.82,15.91c-1.2-3.12-1.9-6.38-2.09-9.79,0,.24-.01,.47-.04,.68-.02,.22-.04,.44-.04,.68,0,3.12,.72,5.93,2.16,8.42Z"/><path class="cls-2" d="M190.47,91.2c.48-.38,.92-.73,1.33-1.04,.41-.31,.73-.47,.97-.47s.36,.12,.36,.36c0,.19-.19,.72-.58,1.58-.38,.86-.89,1.87-1.51,3.02-.62,1.15-1.34,2.38-2.16,3.67-.82,1.3-1.67,2.5-2.56,3.6-.89,1.11-1.76,2.02-2.63,2.74-.86,.72-1.66,1.08-2.38,1.08-1.63,0-2.8-.6-3.49-1.8-.7-1.2-1.04-2.57-1.04-4.1,0-2.45,.56-5.29,1.69-8.53,1.13-3.24,2.46-6.56,4-9.97,.14-.38,.55-.58,1.22-.58,.43,0,.89,.08,1.37,.25,.48,.17,.92,.4,1.33,.68,.41,.29,.76,.65,1.04,1.08,.29,.43,.43,.89,.43,1.37s-.12,.94-.36,1.37c-1.68,3.07-3.07,6.11-4.18,9.11-1.1,3-1.66,5.58-1.66,7.74,.91-.58,1.76-1.36,2.56-2.34,.79-.98,1.55-2.03,2.27-3.13,.72-1.1,1.4-2.17,2.05-3.2,.65-1.03,1.28-1.86,1.91-2.48Zm-9.29,8.35c.05-.53,.26-1.39,.65-2.59,.38-1.2,.79-2.4,1.22-3.6,.43-1.2,.83-2.26,1.19-3.17,.36-.91,.56-1.34,.61-1.3-.29,0-.65,.44-1.08,1.33-.43,.89-.86,1.93-1.3,3.13-.43,1.2-.8,2.41-1.12,3.64-.31,1.22-.47,2.15-.47,2.77,0,.48,.02,.72,.07,.72s.12-.31,.22-.94Zm7.7-20.3c-.14,.14-.34,.22-.58,.22s-.54-.07-.9-.22c-.36-.14-.7-.32-1.01-.54-.31-.22-.58-.47-.79-.76-.22-.29-.32-.58-.32-.86s.11-.82,.32-1.58c.22-.77,.49-1.55,.83-2.34,.34-.79,.71-1.49,1.12-2.09,.41-.6,.78-.9,1.12-.9s.76,.11,1.26,.32,1,.48,1.48,.79c.48,.31,.89,.64,1.22,.97,.34,.34,.5,.62,.5,.86,0,.1-.02,.17-.07,.22-.77,.86-1.43,1.72-1.98,2.56-.55,.84-1.28,1.96-2.2,3.35Zm-2.45-3.53s-.01,.1-.04,.14c-.02,.05-.04,.12-.04,.22,.24,0,.41-.18,.5-.54,.1-.36,.14-.52,.14-.47,.05,0,.17-.17,.36-.5,.19-.34,.38-.71,.58-1.12,.19-.41,.36-.79,.5-1.15,.14-.36,.22-.59,.22-.68-.1,0-.26,.19-.5,.58-.24,.38-.49,.83-.76,1.33-.26,.5-.49,.97-.68,1.4-.19,.43-.29,.7-.29,.79Z"/><path class="cls-2" d="M205.38,79.61c-.38-.14-1.13-.22-2.23-.22-.53,0-1.14,.01-1.84,.04-.7,.03-1.4,.04-2.12,.04-.67,1.63-1.37,3.37-2.09,5.22-.72,1.85-1.37,3.7-1.94,5.54s-1.06,3.65-1.44,5.4c-.38,1.75-.58,3.3-.58,4.64,0,.77,.07,1.44,.22,2.02,1.34-.62,2.56-1.66,3.64-3.1,1.08-1.44,2.08-2.89,2.99-4.36,.91-1.46,1.77-2.75,2.59-3.85,.82-1.1,1.66-1.66,2.52-1.66,.24,0,.36,.1,.36,.29s-.17,.64-.5,1.33c-.34,.7-.77,1.52-1.3,2.48-.53,.96-1.12,1.98-1.76,3.06s-1.28,2.1-1.91,3.06c-.38,.58-.83,1.21-1.33,1.91-.5,.7-1.07,1.34-1.69,1.94-.62,.6-1.28,1.1-1.98,1.51-.7,.41-1.4,.61-2.12,.61-1.1,0-2.1-.61-2.99-1.84-.89-1.22-1.33-3.06-1.33-5.51,0-1.34,.12-2.81,.36-4.39,.24-1.58,.56-3.2,.97-4.86,.41-1.66,.88-3.32,1.4-5,.53-1.68,1.08-3.29,1.66-4.82-1.2-.24-2.22-.61-3.06-1.12-.84-.5-1.26-1.26-1.26-2.27,0-.33,.08-.64,.25-.9,.17-.26,.35-.4,.54-.4,.14,0,.29,.1,.43,.29,.24,.53,.74,.9,1.51,1.12,.77,.22,1.68,.32,2.74,.32,1.15-2.83,2.08-4.81,2.77-5.94,.7-1.13,1.24-1.69,1.62-1.69,.72,0,1.39,.46,2.02,1.37,.62,.91,.94,1.97,.94,3.17,0,.77-.12,1.42-.36,1.94-.1,.19-.14,.38-.14,.58,0,.05,.02,.07,.07,.07h.43c.38-.05,.73-.08,1.04-.11,.31-.02,.61-.04,.9-.04,.96,0,1.61,.14,1.94,.43,.34,.29,.5,.98,.5,2.09,0,.1-.02,.38-.07,.86-.05,.48-.17,.72-.36,.72Zm-14.98,13.75c.86-4.08,2.18-8.76,3.96-14.04l-.29-.07c-.96,2.59-1.75,5.08-2.38,7.45-.62,2.38-1.06,4.6-1.3,6.66Z"/><path class="cls-2" d="M218.62,91.2c1.15-.96,1.92-1.44,2.3-1.44,.14,0,.22,.1,.22,.29,0,.43-.26,1.13-.79,2.09l-.86,1.51c-.77,1.39-1.57,2.81-2.41,4.25-.84,1.44-1.76,2.75-2.77,3.92-1.01,1.18-2.11,2.14-3.31,2.88-1.2,.74-2.54,1.12-4.03,1.12-1.15,0-2.22-.19-3.2-.58-.98-.38-1.84-.89-2.56-1.51-.72-.62-1.29-1.33-1.69-2.12-.41-.79-.61-1.62-.61-2.48,0-1.73,.38-3.66,1.15-5.8,.77-2.14,1.78-4.14,3.02-6.01,1.25-1.87,2.65-3.44,4.21-4.72,1.56-1.27,3.11-1.91,4.64-1.91,1.36,0,2.52,.46,3.47,1.37,.95,.91,1.43,1.97,1.43,3.17s-.35,2.46-1.05,3.78c-.7,1.32-1.58,2.53-2.64,3.64-1.06,1.11-2.22,2.02-3.48,2.74-1.26,.72-2.42,1.08-3.48,1.08-.43,0-.82-.07-1.16-.22-.1,.34-.17,.67-.22,1.01-.05,.34-.07,.67-.07,1.01,0,.96,.24,1.79,.72,2.48,.48,.7,1.37,1.04,2.66,1.04,1.15,0,2.26-.47,3.31-1.4,1.05-.94,2.04-2.02,2.95-3.24,.91-1.22,1.73-2.41,2.45-3.56,.72-1.15,1.32-1.94,1.8-2.38Zm-15.95-1.08c.19-.33,.53-.83,1.01-1.48,.48-.65,.96-1.3,1.44-1.94,.48-.65,.9-1.22,1.26-1.73,.36-.5,.54-.8,.54-.9-1.78,1.58-3.08,3.16-3.92,4.72-.84,1.56-1.26,2.65-1.26,3.28,.1,0,.22-.26,.36-.79s.33-.91,.58-1.15Zm2.06-.22s.3-.28,.76-.83c.46-.55,.94-1.18,1.44-1.87,.5-.7,1.16-1.64,1.98-2.84-.05,0-.29,.22-.72,.65-.43,.43-.9,.95-1.4,1.55-.5,.6-.97,1.21-1.4,1.84-.43,.62-.65,1.13-.65,1.51Zm7.49-4.32c-.14-.14-.29-.22-.43-.22-.48,0-1.07,.42-1.76,1.26-.7,.84-1.37,1.8-2.02,2.88-.65,1.08-1.21,2.11-1.69,3.1-.48,.98-.74,1.62-.79,1.91,.1,.05,.26,.07,.5,.07,.86,0,1.68-.35,2.45-1.04,.77-.7,1.44-1.5,2.02-2.41,.58-.91,1.03-1.84,1.37-2.77,.34-.94,.5-1.67,.5-2.2,0-.19-.05-.38-.14-.58Zm-4,8.93c2.29-1.1,3.79-3.29,4.5-6.55-.9,2.78-2.4,4.97-4.5,6.55Z"/><path class="cls-2" d="M273.78,65.86c.67,.24,1.33,.52,1.98,.83,.65,.31,1.23,.68,1.76,1.12,.53,.43,.96,.95,1.29,1.55,.34,.6,.5,1.26,.5,1.98,0,1.63-.72,3.17-2.16,4.61l-.29,.29c-.24,0-.46,.11-.65,.32s-.41,.32-.65,.32c-.1,0-.14-.05-.14-.14s-.05-.14-.14-.14-.16,.04-.18,.11c-.03,.07-.06,.11-.11,.11s-.17-.07-.36-.22c-.19-.14-.29-.41-.29-.79,0-.14,.01-.31,.04-.5,.02-.19,.04-.43,.04-.72,0-.19-.01-.37-.04-.54-.02-.17-.11-.37-.25-.61-.34-.72-.9-1.28-1.69-1.69-.79-.41-1.67-.72-2.63-.94s-1.92-.36-2.88-.43c-.96-.07-1.75-.11-2.38-.11-3.94,0-7.68,.31-11.23,.94-.82,1.68-1.61,3.37-2.38,5.08-.77,1.71-1.54,3.42-2.3,5.15,.96-.1,1.91-.17,2.84-.22,.94-.05,1.88-.07,2.85-.07,.29-.77,.68-1.58,1.19-2.45s1.14-1.3,1.91-1.3c.81,0,1.58,.34,2.3,1.01,.72,.67,1.08,1.37,1.08,2.09,0,.48-.19,.89-.58,1.22-.53,.43-1,1.16-1.4,2.2-.41,1.03-.77,2.08-1.08,3.13-.31,1.06-.62,1.98-.94,2.77s-.64,1.19-.97,1.19c-.14,0-.3-.13-.47-.4-.17-.26-.28-.37-.32-.32-.24,0-.43-.26-.58-.79-.14-.53-.31-.91-.5-1.15l-.14-.43c-.05-.29-.1-.56-.14-.83-.05-.26-.07-.54-.07-.83-1.25,.1-2.48,.22-3.71,.36-1.22,.14-2.44,.34-3.63,.58-.58,1.44-1.13,2.89-1.66,4.36-.53,1.46-1.01,2.94-1.44,4.43-.24,.77-.49,1.75-.76,2.95-.26,1.2-.4,2.4-.4,3.6,0,.82,.11,1.6,.32,2.34,.22,.74,.61,1.31,1.19,1.69l.5,.36-.5,.43c-.91,.62-1.9,.94-2.95,.94-1.68,0-2.93-.58-3.74-1.73-.82-1.15-1.22-2.62-1.22-4.39,0-2.21,.28-4.32,.83-6.34,.55-2.02,1.16-4.06,1.84-6.12-.53,.24-1.09,.56-1.69,.97-.6,.41-1.16,.82-1.69,1.22-.53,.41-.98,.77-1.37,1.08-.38,.31-.62,.47-.72,.47-.34,0-.56-.14-.68-.43-.12-.29-.18-.62-.18-1.01,0-1.01,.25-2.04,.76-3.1s1.16-1.99,1.98-2.81c1.34-.96,2.86-1.78,4.54-2.45-1.06-.19-2.17-.36-3.35-.5-1.18-.14-2.25-.22-3.2-.22-.38,0-.75,.05-1.08,.14-.34,.1-.6,.14-.79,.14-.53,0-.85-.32-.97-.97-.12-.65-.18-1.14-.18-1.48,0-1.82,.54-3.48,1.62-4.97,1.08-1.49,2.48-2.81,4.21-3.96,1.73-1.15,3.66-2.16,5.8-3.02,2.14-.86,4.26-1.58,6.37-2.16,.14-.34,.29-.71,.43-1.12,.14-.41,.31-.78,.5-1.12,.19-.33,.44-.61,.76-.83,.31-.22,.68-.32,1.12-.32,.58,0,1.18,.24,1.8,.72,.62,.48,1.05,.91,1.29,1.3,1.54-.24,3.13-.44,4.79-.61,1.65-.17,3.32-.25,5-.25,1.82,0,3.62,.11,5.4,.32s3.46,.59,5.04,1.12Zm-32.26,14.98c.48-1.25,.97-2.47,1.48-3.67,.5-1.2,1.02-2.4,1.55-3.6-1.92,.67-3.82,1.48-5.69,2.41-1.87,.94-3.48,2.05-4.82,3.35,1.25,.24,2.5,.48,3.74,.72,1.25,.24,2.5,.5,3.74,.79Zm5.54-12.89l-.86,.22c-.86,.14-1.92,.5-3.17,1.08-1.25,.58-2.76,1.34-4.54,2.3-.14,.1-.43,.26-.86,.5-.43,.24-.88,.49-1.33,.76-.46,.26-.86,.52-1.22,.76-.36,.24-.57,.38-.61,.43,2.35-1.49,4.63-2.71,6.84-3.67,2.21-.96,4.08-1.63,5.62-2.02l.14-.36Zm-.72,1.51l-.36,.14c-.34,.1-.67,.21-1.01,.32-.34,.12-.7,.25-1.08,.4,.05-.05-.34,.12-1.15,.5-.82,.38-1.74,.84-2.77,1.37s-1.98,1.06-2.84,1.58-1.27,.89-1.22,1.08c-.05-.1,.16-.28,.61-.54s1.02-.58,1.69-.94c.67-.36,1.43-.73,2.27-1.12,.84-.38,1.64-.74,2.41-1.08,.77-.33,1.45-.62,2.05-.86,.6-.24,1.02-.41,1.26-.5l.14-.36Zm-9.58,31.82c.43-2.88,1.22-6.82,2.38-11.81-1.58,5.14-2.38,9.07-2.38,11.81Zm41.76-29.88c0-1.73-1.09-3.19-3.28-4.39-2.19-1.2-5.32-1.8-9.4-1.8-.34,0-.66,.01-.97,.04-.31,.02-.64,.04-.97,.04,2.06,0,3.98,.16,5.76,.47,1.78,.31,3.31,.75,4.61,1.3,1.29,.55,2.33,1.2,3.1,1.94s1.15,1.55,1.15,2.41Z"/><path class="cls-2" d="M277.59,91.2c1.15-.96,1.92-1.44,2.3-1.44,.14,0,.22,.1,.22,.29,0,.43-.26,1.13-.79,2.09l-.86,1.51c-.77,1.39-1.57,2.81-2.41,4.25-.84,1.44-1.76,2.75-2.77,3.92-1.01,1.18-2.11,2.14-3.31,2.88-1.2,.74-2.54,1.12-4.03,1.12-1.15,0-2.22-.19-3.2-.58-.98-.38-1.84-.89-2.56-1.51-.72-.62-1.28-1.33-1.69-2.12-.41-.79-.61-1.62-.61-2.48,0-1.73,.38-3.66,1.15-5.8,.77-2.14,1.78-4.14,3.02-6.01,1.25-1.87,2.65-3.44,4.21-4.72,1.56-1.27,3.11-1.91,4.64-1.91,1.36,0,2.52,.46,3.47,1.37,.95,.91,1.42,1.97,1.42,3.17s-.35,2.46-1.05,3.78c-.7,1.32-1.58,2.53-2.64,3.64-1.06,1.11-2.22,2.02-3.48,2.74-1.25,.72-2.42,1.08-3.48,1.08-.43,0-.82-.07-1.16-.22-.1,.34-.17,.67-.22,1.01-.05,.34-.07,.67-.07,1.01,0,.96,.24,1.79,.72,2.48,.48,.7,1.37,1.04,2.66,1.04,1.15,0,2.26-.47,3.31-1.4,1.05-.94,2.04-2.02,2.95-3.24,.91-1.22,1.73-2.41,2.45-3.56,.72-1.15,1.32-1.94,1.8-2.38Zm-15.95-1.08c.19-.33,.53-.83,1.01-1.48,.48-.65,.96-1.3,1.44-1.94,.48-.65,.9-1.22,1.26-1.73,.36-.5,.54-.8,.54-.9-1.78,1.58-3.08,3.16-3.92,4.72-.84,1.56-1.26,2.65-1.26,3.28,.1,0,.22-.26,.36-.79,.14-.53,.34-.91,.58-1.15Zm2.06-.22s.3-.28,.76-.83c.46-.55,.94-1.18,1.44-1.87,.5-.7,1.16-1.64,1.98-2.84-.05,0-.29,.22-.72,.65-.43,.43-.9,.95-1.4,1.55-.5,.6-.97,1.21-1.4,1.84-.43,.62-.65,1.13-.65,1.51Zm7.49-4.32c-.14-.14-.29-.22-.43-.22-.48,0-1.07,.42-1.76,1.26-.7,.84-1.37,1.8-2.02,2.88-.65,1.08-1.21,2.11-1.69,3.1-.48,.98-.75,1.62-.79,1.91,.1,.05,.26,.07,.5,.07,.86,0,1.68-.35,2.45-1.04,.77-.7,1.44-1.5,2.02-2.41,.58-.91,1.03-1.84,1.37-2.77,.33-.94,.5-1.67,.5-2.2,0-.19-.05-.38-.14-.58Zm-4,8.93c2.29-1.1,3.78-3.29,4.5-6.55-.9,2.78-2.4,4.97-4.5,6.55Z"/><path class="cls-2" d="M300.99,91.2c.48-.43,.92-.79,1.33-1.08,.41-.29,.73-.43,.97-.43s.36,.12,.36,.36c0,.1-.16,.48-.47,1.15-.31,.67-.71,1.51-1.19,2.52-.48,1.01-1.04,2.11-1.69,3.31-.65,1.2-1.3,2.36-1.94,3.49-.65,1.13-1.3,2.14-1.94,3.02-.65,.89-1.24,1.55-1.76,1.98-.34,.24-.67,.41-1.01,.5-.34,.1-.65,.14-.94,.14-.43,0-.86-.07-1.3-.22l-.29-.14c-.96-.29-1.7-.83-2.23-1.62s-.89-1.74-1.08-2.84c-.86,1.01-1.9,2-3.1,2.99-1.2,.98-2.45,1.55-3.74,1.69-.91,0-1.68-.24-2.3-.72-.62-.48-1.14-1.07-1.55-1.76-.41-.7-.7-1.43-.86-2.2-.17-.77-.25-1.42-.25-1.94,0-2.06,.32-4.21,.97-6.44,.65-2.23,1.51-4.27,2.59-6.12,1.08-1.85,2.31-3.37,3.71-4.57,1.39-1.2,2.81-1.8,4.25-1.8,.62,0,1.27,.12,1.94,.36,.67,.24,1.28,.6,1.84,1.08,.55,.48,1.03,1.08,1.44,1.8,.41,.72,.68,1.56,.83,2.52,.67,.24,1.38,.68,2.12,1.33,.74,.65,1.12,1.36,1.12,2.12,0,.19-.05,.43-.14,.72-.96,1.87-1.76,3.86-2.41,5.98-.65,2.11-.97,4.08-.97,5.9,.77-.67,1.5-1.51,2.2-2.52,.7-1.01,1.34-2.05,1.94-3.13,.6-1.08,1.2-2.11,1.8-3.1,.6-.98,1.19-1.76,1.76-2.34Zm-20.16-2.59c.19-.34,.47-.8,.83-1.4,.36-.6,.73-1.19,1.12-1.76,.38-.58,.73-1.08,1.04-1.51,.31-.43,.52-.65,.61-.65l-1.33,1.33c-.5,.5-.97,1.06-1.4,1.66-.43,.6-.8,1.25-1.12,1.94-.31,.7-.49,1.4-.54,2.12,.05-.05,.17-.3,.36-.76,.19-.46,.34-.78,.43-.97Zm7.56,3.74c.14-.34,.28-.77,.4-1.3,.12-.53,.24-1.09,.36-1.69,.12-.6,.2-1.19,.25-1.76,.05-.58,.07-1.08,.07-1.51,0-.67-.14-1.01-.43-1.01-.38,0-.84,.35-1.37,1.04-.53,.7-1.08,1.58-1.66,2.66s-1.15,2.28-1.73,3.6c-.58,1.32-1.09,2.59-1.55,3.82-.46,1.22-.83,2.34-1.12,3.35s-.43,1.75-.43,2.23c0,.34,.07,.5,.22,.5,.19,0,.71-.37,1.55-1.12,.84-.74,1.7-1.61,2.59-2.59,.89-.98,1.69-1.93,2.41-2.84,.72-.91,1.08-1.51,1.08-1.8-.14-.1-.31-.25-.5-.47-.19-.22-.29-.44-.29-.68,0-.1,.05-.24,.14-.43Zm-2.88-8.06c-.1,0-.43,.26-1.01,.79-.58,.53-1.06,1.03-1.44,1.51,0,.05-.08,.19-.25,.43-.17,.24-.34,.5-.5,.79-.17,.29-.32,.55-.47,.79s-.19,.36-.14,.36c-.14,0,.18-.42,.97-1.26,.79-.84,1.64-1.88,2.56-3.13l.29-.29Zm7.06,10.08c.29-.96,.54-1.85,.76-2.66,.22-.82,.32-1.37,.32-1.66,0-.05,.01-.07,.04-.07s.04-.02,.04-.07v-.07s-.13,.06-.25,.18c-.12,.12-.23,.37-.32,.76-.43,1.73-.82,3.29-1.15,4.68-.29,1.2-.55,2.29-.79,3.28-.24,.98-.34,1.52-.29,1.62,.14-.62,.4-1.52,.76-2.7,.36-1.18,.66-2.27,.9-3.28Z"/><path class="cls-2" d="M315.39,79.61c-.38-.14-1.13-.22-2.23-.22-.53,0-1.14,.01-1.84,.04-.7,.03-1.4,.04-2.12,.04-.67,1.63-1.37,3.37-2.09,5.22-.72,1.85-1.37,3.7-1.94,5.54s-1.06,3.65-1.44,5.4c-.38,1.75-.58,3.3-.58,4.64,0,.77,.07,1.44,.22,2.02,1.34-.62,2.56-1.66,3.64-3.1,1.08-1.44,2.08-2.89,2.99-4.36,.91-1.46,1.78-2.75,2.59-3.85,.82-1.1,1.66-1.66,2.52-1.66,.24,0,.36,.1,.36,.29s-.17,.64-.5,1.33c-.34,.7-.77,1.52-1.3,2.48-.53,.96-1.12,1.98-1.76,3.06-.65,1.08-1.29,2.1-1.91,3.06-.38,.58-.83,1.21-1.33,1.91-.5,.7-1.07,1.34-1.69,1.94-.62,.6-1.28,1.1-1.98,1.51-.7,.41-1.4,.61-2.12,.61-1.11,0-2.1-.61-2.99-1.84-.89-1.22-1.33-3.06-1.33-5.51,0-1.34,.12-2.81,.36-4.39,.24-1.58,.56-3.2,.97-4.86,.41-1.66,.88-3.32,1.4-5,.53-1.68,1.08-3.29,1.66-4.82-1.2-.24-2.22-.61-3.06-1.12-.84-.5-1.26-1.26-1.26-2.27,0-.33,.08-.64,.25-.9,.17-.26,.35-.4,.54-.4,.14,0,.29,.1,.43,.29,.24,.53,.74,.9,1.51,1.12s1.68,.32,2.74,.32c1.15-2.83,2.08-4.81,2.77-5.94,.7-1.13,1.23-1.69,1.62-1.69,.72,0,1.39,.46,2.02,1.37,.62,.91,.94,1.97,.94,3.17,0,.77-.12,1.42-.36,1.94-.1,.19-.14,.38-.14,.58,0,.05,.02,.07,.07,.07h.43c.38-.05,.73-.08,1.04-.11,.31-.02,.61-.04,.9-.04,.96,0,1.61,.14,1.94,.43,.33,.29,.5,.98,.5,2.09,0,.1-.03,.38-.07,.86-.05,.48-.17,.72-.36,.72Zm-14.98,13.75c.86-4.08,2.18-8.76,3.96-14.04l-.29-.07c-.96,2.59-1.75,5.08-2.38,7.45-.62,2.38-1.06,4.6-1.3,6.66Z"/><path class="cls-2" d="M334.61,90.84c.43-.43,.86-.79,1.3-1.08s.77-.43,1.01-.43c.19,0,.29,.1,.29,.29-.05,0-.24,.4-.58,1.19s-.79,1.78-1.37,2.95c-.58,1.18-1.26,2.45-2.05,3.82s-1.66,2.64-2.59,3.82c-.94,1.18-1.92,2.16-2.95,2.95s-2.08,1.19-3.13,1.19c-.86,0-1.72-.5-2.56-1.51-.84-1.01-1.26-2.62-1.26-4.82-.96,1.49-2.03,2.83-3.2,4.03-1.18,1.2-2.39,1.8-3.64,1.8-.67,0-1.31-.17-1.91-.5-.6-.34-1.12-.76-1.55-1.26-.43-.5-.78-1.03-1.04-1.58-.26-.55-.4-1.04-.4-1.48,0-1.54,.24-3.26,.72-5.18,.48-1.92,1.03-3.77,1.66-5.54,.62-1.77,1.22-3.38,1.8-4.82,.58-1.44,.98-2.45,1.22-3.02,.19-.38,.53-.58,1.01-.58,.19,0,.43,.1,.72,.29,.14,.1,.29,.17,.43,.22,.1,0,.14-.05,.14-.14,.19,.14,.37,.26,.54,.36,.17,.1,.25,.19,.25,.29-.34,.24-.71,.8-1.12,1.69-.41,.89-.78,1.83-1.12,2.81-.34,.98-.62,1.9-.86,2.74-.24,.84-.36,1.33-.36,1.48,.05,0,.22-.37,.5-1.12s.64-1.6,1.04-2.56c.41-.96,.8-1.9,1.19-2.81,.38-.91,.67-1.56,.86-1.94,.1,.14,.25,.26,.47,.36,.22,.1,.3,.14,.25,.14,0,.05,.14,.17,.43,.36,.29,.19,.5,.62,.65,1.3-.05,.14-.07,.36-.07,.65v.58c-.43,.77-.94,1.8-1.51,3.1s-1.1,2.64-1.58,4.03c-.48,1.39-.89,2.7-1.22,3.92-.34,1.22-.5,2.12-.5,2.7,0,.34,.06,.54,.18,.61,.12,.07,.23,.11,.32,.11,.86,0,1.8-.62,2.81-1.87,1.01-1.25,1.99-2.76,2.95-4.54,.96-1.78,1.86-3.62,2.7-5.54,.84-1.92,1.55-3.55,2.12-4.9,.1-.24,.18-.44,.25-.61,.07-.17,.16-.35,.25-.54l.14-.22c.19-.43,.58-.65,1.15-.65,.38,0,.82,.11,1.3,.32,.48,.22,.92,.49,1.33,.83,.41,.34,.74,.7,1.01,1.08,.26,.38,.4,.74,.4,1.08,0,.19-.02,.34-.07,.43-.82,1.34-1.54,2.77-2.16,4.28s-1.16,3-1.62,4.46c-.46,1.46-.83,2.89-1.12,4.28-.29,1.39-.5,2.64-.65,3.74,.91-.58,1.76-1.37,2.56-2.38,.79-1.01,1.55-2.05,2.27-3.13s1.4-2.12,2.05-3.13c.65-1.01,1.28-1.8,1.91-2.38Zm-10.22,8.35c0-.96,.18-2.17,.54-3.64,.36-1.46,.78-2.89,1.26-4.28,.53-1.58,1.13-3.22,1.8-4.9-.1,0-.29,.29-.58,.86-.1,.29-.32,.86-.68,1.73-.36,.86-.72,1.84-1.08,2.92-.36,1.08-.68,2.18-.97,3.31-.29,1.13-.43,2.1-.43,2.92,0,.34,.05,.7,.14,1.08Z"/><path class="cls-2" d="M350.67,81.84c.48,.48,.72,.96,.72,1.44,0,.53-.18,1.12-.54,1.76-.36,.65-.76,1.39-1.19,2.23s-.83,1.8-1.19,2.88c-.36,1.08-.54,2.34-.54,3.78,0,.29,.01,.58,.04,.86,.02,.29,.06,.6,.11,.94,0,.67-.34,1.01-1.01,1.01-1.06,0-1.85-.59-2.38-1.76-.53-1.18-.79-2.84-.79-5v-.76c0-.26,.02-.54,.07-.83-1.68,2.79-3.22,5.57-4.61,8.35-1.39,2.78-2.35,5.47-2.88,8.06-.14,.62-.53,.94-1.15,.94-1.49,0-2.52-.55-3.1-1.66-.58-1.1-.86-2.52-.86-4.25s.22-3.64,.65-5.72c.43-2.09,.94-4.07,1.51-5.94s1.14-3.48,1.69-4.82,.95-2.16,1.19-2.45c.19-.29,.62-.43,1.3-.43,.43,0,.88,.07,1.33,.22,.46,.14,.89,.34,1.3,.58,.41,.24,.74,.52,1.01,.83,.26,.31,.4,.66,.4,1.04,0,.24-.03,.41-.07,.5-.67,1.68-1.46,3.62-2.38,5.83-.91,2.21-1.56,4.39-1.94,6.55,.14-.53,.42-1.26,.83-2.2,.41-.94,.9-1.97,1.48-3.1s1.22-2.26,1.94-3.38c.72-1.13,1.48-2.16,2.27-3.1,.79-.94,1.59-1.7,2.41-2.3,.82-.6,1.63-.9,2.45-.9,.72,0,1.37,.26,1.94,.79Zm-16.49,9.86c.58-3.12,1.7-6.24,3.38-9.36-2.16,2.98-3.29,6.1-3.38,9.36Zm10.8-3.6c-.29,.82-.43,1.58-.43,2.3,0,.86,.24,1.73,.72,2.59-.14-.67-.23-1.42-.25-2.23-.02-.82-.04-1.7-.04-2.66Z"/><path class="cls-2" d="M368.6,91.2c1.15-.96,1.92-1.44,2.3-1.44,.14,0,.22,.1,.22,.29,0,.43-.26,1.13-.79,2.09l-.86,1.51c-.77,1.39-1.57,2.81-2.41,4.25-.84,1.44-1.76,2.75-2.77,3.92-1.01,1.18-2.11,2.14-3.31,2.88-1.2,.74-2.54,1.12-4.03,1.12-1.15,0-2.22-.19-3.2-.58-.98-.38-1.84-.89-2.56-1.51-.72-.62-1.28-1.33-1.69-2.12-.41-.79-.61-1.62-.61-2.48,0-1.73,.38-3.66,1.15-5.8,.77-2.14,1.78-4.14,3.02-6.01,1.25-1.87,2.65-3.44,4.21-4.72,1.56-1.27,3.11-1.91,4.64-1.91,1.36,0,2.52,.46,3.47,1.37,.95,.91,1.42,1.97,1.42,3.17s-.35,2.46-1.05,3.78c-.7,1.32-1.58,2.53-2.64,3.64-1.06,1.11-2.22,2.02-3.48,2.74-1.25,.72-2.42,1.08-3.48,1.08-.43,0-.82-.07-1.16-.22-.1,.34-.17,.67-.22,1.01-.05,.34-.07,.67-.07,1.01,0,.96,.24,1.79,.72,2.48,.48,.7,1.37,1.04,2.66,1.04,1.15,0,2.26-.47,3.31-1.4,1.05-.94,2.04-2.02,2.95-3.24,.91-1.22,1.73-2.41,2.45-3.56,.72-1.15,1.32-1.94,1.8-2.38Zm-15.95-1.08c.19-.33,.53-.83,1.01-1.48,.48-.65,.96-1.3,1.44-1.94,.48-.65,.9-1.22,1.26-1.73,.36-.5,.54-.8,.54-.9-1.78,1.58-3.08,3.16-3.92,4.72-.84,1.56-1.26,2.65-1.26,3.28,.1,0,.22-.26,.36-.79,.14-.53,.34-.91,.58-1.15Zm2.06-.22s.3-.28,.76-.83c.46-.55,.94-1.18,1.44-1.87,.5-.7,1.16-1.64,1.98-2.84-.05,0-.29,.22-.72,.65-.43,.43-.9,.95-1.4,1.55-.5,.6-.97,1.21-1.4,1.84-.43,.62-.65,1.13-.65,1.51Zm7.49-4.32c-.14-.14-.29-.22-.43-.22-.48,0-1.07,.42-1.76,1.26-.7,.84-1.37,1.8-2.02,2.88-.65,1.08-1.21,2.11-1.69,3.1-.48,.98-.75,1.62-.79,1.91,.1,.05,.26,.07,.5,.07,.86,0,1.68-.35,2.45-1.04,.77-.7,1.44-1.5,2.02-2.41,.58-.91,1.03-1.84,1.37-2.77,.33-.94,.5-1.67,.5-2.2,0-.19-.05-.38-.14-.58Zm-4,8.93c2.29-1.1,3.78-3.29,4.5-6.55-.9,2.78-2.4,4.97-4.5,6.55Z"/><path class="cls-2" d="M380.69,79.97c0,.62-.31,1.37-.94,2.23,.05,.14,.07,.36,.07,.65,0,.62-.23,1.25-.68,1.87-.46,.62-1,1.21-1.62,1.76-.62,.55-1.27,1.07-1.94,1.55-.67,.48-1.2,.89-1.58,1.22-.14,.72-.22,1.44-.22,2.16,0,1.01,.1,2.06,.29,3.17,.19,1.1,.43,2.2,.72,3.28s.59,2.12,.9,3.13c.31,1.01,.59,1.94,.83,2.81,.05,.19,.07,.46,.07,.79,0,.82-.4,1.39-1.19,1.73-.79,.33-1.72,.5-2.77,.5-.96,0-1.88-.11-2.77-.32-.89-.22-1.57-.47-2.05-.76-.48-.29-.97-.68-1.48-1.19s-.96-1.04-1.37-1.62c-.41-.58-.74-1.14-1.01-1.69-.26-.55-.4-1.04-.4-1.48,0-.58,.11-1.14,.32-1.69,.22-.55,.59-.88,1.12-.97l.22,.07c.38,.29,.77,.65,1.15,1.08,.38,.43,.79,.88,1.22,1.33,.43,.46,.86,.89,1.3,1.3,.43,.41,.89,.76,1.37,1.04-.67-1.44-1.24-3.21-1.69-5.33-.46-2.11-.68-4.1-.68-5.98,0-1.49,.17-2.71,.5-3.67,.38-1.01,1.04-2.03,1.98-3.06,.94-1.03,1.93-1.96,2.99-2.77,1.05-.82,2.09-1.49,3.1-2.02s1.78-.79,2.3-.79c.05,0,.17,.05,.36,.14,.19,0,.29,.07,.29,.22,0,.1-.02,.19-.07,.29l.36-.22,.29,.07c.1,.1,.23,.29,.4,.58,.17,.29,.28,.48,.32,.58Zm-11.02,6.48c1.68-2.11,3.89-4.22,6.62-6.34-1.54,.82-2.86,1.76-3.96,2.84-1.11,1.08-1.99,2.24-2.66,3.49Zm1.44-.58c.48-.58,1.01-1.15,1.58-1.73,.58-.58,1.25-1.15,2.02-1.73-1.68,.96-2.88,2.11-3.6,3.46Zm3.82,15.91c-1.2-3.12-1.9-6.38-2.09-9.79,0,.24-.01,.47-.04,.68-.02,.22-.04,.44-.04,.68,0,3.12,.72,5.93,2.16,8.42Z"/></g></g></svg>