<?xml version="1.0" encoding="UTF-8"?><svg id="Layer_2" xmlns="http://www.w3.org/2000/svg" viewBox="0 0 519 98.2"><defs><style>.cls-1{letter-spacing:-.02em;}.cls-2{fill:#3e374a;fill-rule:evenodd;}.cls-3{fill:#f2f2f2;font-family:OraqleScript, 'Oraqle Script';font-size:72px;}.cls-4{fill:none;}.cls-5{letter-spacing:0em;}</style></defs><g id="Layer_1-2"><g><rect class="cls-4" x="0" y="0" width="466" height="98.2"/><path class="cls-2" d="M94.83,89.73c-.26,.33-.71,.43-1.23,.44,.13-.56,.81-.97,1.23-.44Z"/><path class="cls-2" d="M76.26,23.12c-.37,.29-1.54,.86-1.42-.29,.66-.12,.94,.19,1.42,.29Z"/><path class="cls-2" d="M74.26,21.62c-.1,.53-1,.06-1.42,.19,.02-.69,1.16-.53,1.42-.19Z"/><path class="cls-2" d="M68.56,31.76c-.29,.36-1.07,.65-1.43,.2,.1-.53,1-.07,1.43-.2Z"/><path class="cls-2" d="M65.96,21.11c-.49,.62-1.32,.82-2.45,.65,.4-.74,1.57-.51,2.45-.65Z"/><path class="cls-2" d="M58.89,73.47c-1.24,.05-3.78,.98-4.66-.15,1.51,.71,3.25-.44,4.66,.15Z"/><path class="cls-2" d="M55.56,50.55c-1.55,1.41-4.32-.17-6.31,.76-.28-1.18,2.9-.15,3.48-1.09,.47,.09,.83,.31,1.2,.52,.55-.09,1.06-.87,1.63-.19Z"/><path class="cls-2" d="M36.56,47.07c.04,.63-.1,1.03-.63,.94-.15-.22-.2-.55-.18-.96,.27,.01,.54,.02,.81,.03Z"/><path class="cls-2" d="M28.67,55.22c-1.25,1.08-4.11,1.15-5.69,.3-.21,.15-.22,.55-.62,.46-.94,.13-3.05-.31-1.01-.27,2.53-.75,4.53,0,7.31-.49Z"/><path class="cls-2" d="M27.72,43.19c-.3,.36-.8,.48-1.43,.44,.15-.58,1.19-.7,1.43-.44Z"/><path class="cls-2" d="M25.8,74.58c-.23,.54-1.27,.05-1.83,.18,.4-.32,1.38-.67,1.83-.18Z"/><path class="cls-2" d="M26.21,47.22c-.5,.61-1.63,.44-2.25,.89-.55-.95,1.48-.78,2.25-.89Z"/><path class="cls-2" d="M25.28,43.83c-.4,.74-1.57,.5-2.45,.65,.52-.59,1.66-.4,2.45-.65Z"/><path class="cls-2" d="M23.84,80.28c-.07,.81-.87,.72-1.44,.91,.12-.75,.94-.63,1.44-.91Z"/><path class="cls-2" d="M22.96,74.49c-.66,.67-2.94,.47-4.06,.35,1.43-.55,2.51-.5,4.06-.35Z"/><path class="cls-2" d="M22.42,44.46c-1.05,1.1-2.57,.23-3.45,.13,.96-.64,2.36,.53,3.45-.13Z"/><path class="cls-2" d="M19.73,55.66c-.4,.41-1.07,.47-1.64,.67-.11-1.05,.95-.62,1.64-.67Z"/><path class="cls-2" d="M17.96,53.2c-.48,.59-.91,.32-1.63,.19,.17-.54,1.14-.06,1.63-.19Z"/><path class="cls-2" d="M16.2,50.27c-.22,.63-1.75,.75-1.41-.53,.44-.1,.38,.35,.39,.73,.49,.11,.45-.43,1.02-.21Z"/><path class="cls-2" d="M11.93,68.62c1-.98,2.72,.51,0,0h0Z"/><path class="cls-2" d="M9.7,77.43c-.84,.49-1.66,.35-2.64,.16,.62-.32,2.23-.37,2.64-.16Z"/><path class="cls-2" d="M9.06,78.85c.29,.75-1.34,.7-1.01-.03,.34,0,.67,.02,1.01,.03Z"/><path class="cls-2" d="M7.15,91.51c-.29,.49-.93,.6-1.43,.44,.15-.59,1.2-.7,1.43-.44Z"/><path class="cls-2" d="M1.5,90.37c-1.69,1.1-2.28-.03,0,0h0Z"/><path class="cls-2" d="M47.13,90.86c-.34,.32-.81,.47-1.04,.93-.63-.97-1.78-.11-2.62-.56,1.04-1.06,2.15,.29,3.66-.37Z"/><path class="cls-2" d="M24.48,70.22c-.49,.08-.43-.45-1.01-.27-.05-.39,.2-.41,.22-.72-1.01-.19-1.57,.17-2.44,.17,.11-.19,.22-.38,.22-.71-1.15,1.29-2.48-.76-4.87-.16,2.29-1.37,7.35-.35,9.34-.66-.3,.94-2.05,.07-2.25,1.13-.05,.76,1.12,.14,.78,1.23Z"/><path class="cls-2" d="M22.35,47.58c-.23,.04-.12,.24,0,.24-.07,.56-.89,.11-1.02-.03,.25-.68,2.93-.29,1.02-.21Z"/><path class="cls-2" d="M7.28,50.23c0-.32,.01-.64,.02-.96-1.3,.05-3.37,.27-4.24-.62,1.53-.67,4.8,.99,5.9-.53,.26,.25,.74,.26,1,.51,3.58-1.51,7.46,.12,11.18-.84-1.67,2.55-5.45-.94-7.34,1.69-.31-.14,0-.25,.21-.23-1.64,.04-4.6-.55-6.72,.99Z"/><path class="cls-2" d="M8.61,80.76c-.32,.43-.89,.53-1.24,.92-.18-.05,.83-1.57,1.24-.92Z"/><path class="cls-2" d="M414.57,98.2c.91,0,1.91-.87,2.86-.87,2.23,0,4.23,.92,6.48,.45,1.99-.42,3.86-1.7,5.93-1.97,1.53-.2,2.04-.56,3.06-.86,3-.88,5.46-.43,6.76-2.9,2.1-1.63,4.74-2.59,6.58-4.11,.29-.24,.91-.12,1.02-.21,4.69-3.82,7.55-10.05,13.07-12.79,.48-1.41,.8-3.46,1.74-5.23,.42-.79,1.37-1.3,1.67-2.11,1.12-2.99,.14-6.8,2.23-9.05,.12-.75-.27-.95-.37-1.45,.06-5.97-.77-10.99-.26-15.61-1.44-2.73-1.13-5.9-2.24-8.47-.69-1.6-2.05-3.12-2.94-4.65-1.01-1.76-2.09-3.11-2.93-4.89,0-1.8-1.29-2.14-1.54-3.65-1.58-1.12-2.77-2.66-4.38-3.74-.15-.6-.53-.96-.57-1.7-3.37-3.07-6.77-6.86-11.38-8.04-.41-.1-1.3-.31-1.82-.3-3.42,.06-8.69-.57-10.48-2.97-.62-.19-.61,.4-1.22,.2-.39-1.15-2.2-3.31-3.78-3.24-.54,.02-1.49,1.56-2.68,1.84-1.77,.41-3.45-1.67-5.04-1.36-.73,.14-1.51,1.53-2.27,1.85-1.99,.82-6.03,.24-7.7-.24-1.32-.38-1.81-1.52-2.81-1.29-.9,.21-1.58,1.46-1.5,3.32-2.59,4.06-9.26,.92-13.25,2.7-2.93-1.46-5.73,.96-8.54,.69-.56-.06-1.23-.55-1.81-.54-.96,.02-2.24,.8-3.48,1.09-2.11,.5-3.96,.39-5.7,1.02-2.69-2.39-4.65,.37-6.91,.26-.84-.04-1.67-.81-2.62-.8-.8,0-1.57,.7-2.45,.64-.87-.05-1.78-.82-2.62-.8-.63,0-1.12,.48-1.63,.43-.67-.07-1.1-.64-1.81-.54-.75,.11-1.5,1.03-2.26,1.13-2.76,.38-5.74-.61-8.34,1.18-4.71-1.5-8.81,.9-14.39-.7-1.39,.48-2.41,.83-3.86,.36-.32,.17-.32,.75-.83,.7-2.9-.71-5.95,1.3-8.94,.44-.1,.28-.23,.54-.42,.71-4.12-1.15-9.34-1.31-12.58,.08-2.51-1.2-5.43,.17-8.53,.21-1.46,.02-2.89-.64-4.25-.38-2.67,.52-6.16-.11-8.73,.2-.76,.09-1.51,.78-2.25,.89-1.36,.2-2.81-.49-4.25-.14-5.57,1.36-11.97,.42-16.85,.43-1.51,0-2.8,.78-4.49,1.06-2.8,.46-5.7-.82-8.51-.51-.71,.08-1.39,.56-2.04,.66-1.68,.25-3.29-.21-5.07-.16-4.34,.11-8.7,1.44-12.79,.32-5.22,1.58-12.83,1.07-18.9,1.32-1.36,1.31-2.66,.18-4.06,.35-4.34,.52-9.88,2-14.43,.99-19.1,2.32-39.01,1.3-57.91,3.92-1.48-.99-3.78-.36-5.08,.32-.28-.62-1.15-.59-1.81-.78-2.37,1.6-5.35,.3-8.33,.69-.76,1.56-2.56,.38-3.69,1.57-.48-.86,.65-.73-.17-1.2-1.93,2.82-8.48,1.51-11.41,2.28,.2,0,.25,.43,0,.48-.71-.71-1.05,.7-1.84,.66-5.33,.32-9.14,3.1-13.69,4.13-.57-.4-2.1-1.6-2.62-.56,.82,.17,1.86,.09,1.8,1.26-1.37-.38-3.17,.14-4.08,1.07-1.69,.11-2.55-.52-4.07,.35-.37-.02,.36,1.22-.43,1.19-2.37-.62-3.56,.41-5.67-.18-.62,1.11-3.11,1.43-3.87,.84-.69,.48,.76,.93,.17,1.21-1.92,.35-3.71,.81-5.48,.07-.44,.52-.73,1.23-1.45,1.39-.49,.08,.14-1.09-.59-.74-.68,.63,.53,1.1,.36,1.93-.96,.39-.77,.98-1.25,1.64-1.34-.66-2.26,.69-3.48,1.09-1.25,.42-2.65,0-3.86,.36-1.04,.3-1.49,1.13-2.66,1.11-.96-.01-1.76-.88-2.82-.81-.56,.2,.38,.89-.43,.95-3.72,.29-7.44,.58-10.19,2.08,4.22-1.88,7.29,.12,10.99-1.57,.56,1.08,1.66-.67,2.22,.79,.25-.62-.6-1.05,.22-.95,.27,.09,.38,.36,.81,.27-.52,1.28,.26,1.28,.56,2.18,3.15-.07,5.61-.67,8.33-.7,.5-.3-.35-.73,.22-.95,1.04-.21,1.83-.03,3.05-.38,.37,.95,1.19,1.42,.75,2.67-3.67-.09-8.66,1.79-13.03,1.99-1.32,.06-2.7-.91-3.46,.61,1.96-.47,3.54,1.21,5.24,1.37,2.2,.2,4.56-1.32,6.72-.99,.61,.09,.86,.53,1.41,.52,.43,0,1.16-.71,1.64-.67,.52,.05,.55,.57,1,.51,.92-.11,1.63-.9,2.65-.88,1.71,.05,3.39,.95,5.26,.65,.34,.43,.19,1.49-.24,1.67-2.22-.06-2.6,0-4.87,.09,.25,.11,.41,.32,.39,.73-.7-.07-.95-.37-1.43,.2,1.69-.05,1.53,1.81,.96,2.67-4.19-.33-9.33,.52-12.78-.17-.38,.51-.62,1.19-1.25,1.4-3.88,.6-8.23-.01-12.39,.57,4.75,1.43,9.7,.58,15.22,0,.21,.23,.04,.89,.59,.74,2.35-.68,5.09-.5,6.91-.74,.81,1.04,1.6,2.1,2.36,3.2,5.78-.87,10.01,3.37,15.54,3.38-.03,.73,.41,.95,.57,1.46-.45,.59-.74,1.37-1.26,1.88-.91,.04-1.84,.43-2.64-.08-4.66,2.15-11.29,.62-17.08,1.86-.71,1.2-.15,2.11,.34,3.13,2.79,.69,5.35-.98,8.3,.5,1.06,2.83-.05,4.81-2.34,4.97-3.79,.26-10.32-.02-12.77-.41-11.11,1.68-22.14,.99-33.53,2.3,6.33,.54,12.18-.96,17.85,.09-.02-.52,.19-.76,.62-.7,5.57,.29,11.76,.25,16.65-.67,2.05,1.73,6.01-.3,8.08,1.46-.52,2.72-2.22,3.97-4.36,4.66,2.19-.16,4.23,.74,6.06,.91,1.51,.14,4.11-.68,4.87-.09,.18,.14-.17,.7,.18,.73-.62-.04,1.1-.15,1.23-.2,.82-.32,.67-.51,1.63-.43,1.25,.11,1.22,.15,2.01,.79,4.31,.43,8.49-.41,12.78,.17,.45,.06,1.35,.02,1.42,.04,.41,.17,.06,.65,.59,.74,.3,.05,.17-.52,.62-.46,1.67,.23,3.59,.47,5.26,.41,4.19-.15,9.15,.52,12.57,.4,.76,.17-.24,1,.79,.99,5.89,.59,12.12,1.05,18.43,1.31,.48,.09,.1,1.14,.79,.99,.87,.18,.66-.99,1.44-.92,.49,.31,.93,.67,1.19,1.24,7.23,.89,14.67-.09,22.12-.5,6.94-.38,13.91-.35,20.5-.55,5.2-.16,10.17-1.18,14.82-.49,6.24-.81,11.63-.76,17.47-.89,4.21-.09,8.84,.46,12.38-.09,.61-.1,1.33-.65,2.05-.66,1.07,0,2.15,.81,3.22,.82,2.89,.03,5.86-.97,8.74-.92,3.24,.05,6.35,.22,9.53,.3,1.79,.05,3.52-.73,5.29-.79,1.18-.04,2.41,.61,3.64,.59,3.43-.04,6.92-1.09,10.16-.88,4.33,.29,8.79,1.34,13.18,.18,4.86,.64,10.76,.67,15.41,.25,3.77,1.91,7.69-.06,11.96,.38,.45,.05,.75,.42,1.2,.52,6.46,1.42,13.63-1.14,18.86,.12,1.96-1.26,3.64,.13,5.47,.41,1.97,.31,3.8-.51,5.69-.54,.62,0,1.18,.48,1.81,.53,1.92,.19,3.79-.61,5.9-.77,3.16-.23,6.51,1.84,10.13,.56,2.79,.89,6.93,1.93,10.13,.8,5.4,1.81,10.87-.29,16.42,.52,1.87,.28,3.58,1.55,5.47,.41,1.96,1.29,4.29,.54,6.68,.69,2.36,.15,4.81,.9,7.27,1.19,3.51,.41,7.87-.62,10.5,2.01,1.2,5.46,3.53-2.57,6.32-1.48,1.48,1.1,1.29,2.64,1.92,4.62,1.33,.82,2.57,.32,3.86-.12,1.5,.53,2.6,3,4.6,3.03ZM59.46,39.4c.04-.28-.04-.43-.19-.49,.44-1.15,1.39,.53,.19,.49Zm-.42,.47c-1.69,.1-4.06,1.18-5.28,.31-.33,0,.29,1.37-.24,1.67-.72-.59-1.57-1.04-2.82-1.05-.08-1.99,2.38-.81,2.49-2.56,.95,.17,1.42,.26,1.84-.66,1.95,.67,2.38-.56,3.85,.12-.39,1.14,.26,.87,.15,2.16Z"/></g><text class="cls-3" transform="translate(73.98 73.63)"><tspan x="0" y="0">How </tspan><tspan class="cls-1" x="104.69" y="0">W</tspan><tspan class="cls-5" x="154.51" y="0">e Can Help</tspan></text></g></svg>