<?xml version="1.0" encoding="UTF-8"?><svg id="Layer_2" xmlns="http://www.w3.org/2000/svg" viewBox="0 0 466.66 153.14"><defs><style>.cls-1{letter-spacing:-.02em;}.cls-2{fill:#352000;}.cls-3{letter-spacing:-.01em;}.cls-4{letter-spacing:-.02em;}.cls-5{letter-spacing:-.02em;}.cls-6{fill:#bffff0;font-family:OraqleScript, 'Oraqle Script';font-size:72px;}</style></defs><g id="Layer_1-2"><g><path class="cls-2" d="M452.32,132.18c-11.76-5.98-8.08-18.51-12.4-26.67l5.96-3.46c7.89,4.23,20.01,11.62,17.67,20.44-.76,1.51-6.26,11.35-11.23,9.69Z"/><path class="cls-2" d="M465.84,93.42c-1.11,.2-1.29-1.17-2.39-.94l3.21-10.48-.82,11.42Z"/><path class="cls-2" d="M431.15,109.97l-5.56,1.08c-1.29-1.15,1.87-3.18,1.69-4.54l-6.25-4.4c8.48,3.96,8.36-5.85,10.12,7.86Z"/><path class="cls-2" d="M357.9,53.95c-4.21-6.21,3.22-10.47,4.92-15.01,3.51,.71,6.61,7.13,3.8,11.91-4.63-.51-6.5,2.67-8.72,3.11Z"/><g><path class="cls-2" d="M398.56,113.5c2.11-10.25,14.27-4.18,13.05-13.78-.53-4.13-1.06-8.23-2.53-10.75l-6.13,5.41c-15.33-4.05,6.38-12.5-3.92-21.72-2.22,.42-3.33,.64-4.27,2.22-5.03,5.2-3.57,7.73-.64,12.78-14.63,1.44-9.06-26.36-17.03-26.21-10.93,3.54-4.2,20.51-6.84,26.65,.12-16.9-19.77-29.89-35.85-30.97-15.05,7.14-31.95-9.24-49.97,1.3-7.69-2.16-17.74-5.93-27.84-7.35,0-.88-.02-1.75,0-2.64-.25,.72-.4,1.52-.4,2.46-7.43-12.23-24.76,5.54-26.55-13.63l-1.81,1.67c-9.01,1.38,0-6.94-5.18-10.83-8.33,2.49-19.34-13.34-23.62,2.75-.68-1.1,.22-1.94-.46-3.05l-6.75,2.77c-.45,3.89-1.81,8.6-.68,12.77-1.57-.27-2.93,4.44-5.17,3.05-5.63,0-.68-8.05-2.7-11.39-14.18,4.44-30.4,5.54-43.89-2.81,0-13.89-15.52-11.68-22.05-10.84-13.05-12.24-28.13,13.86-38.03,2.18,5.86-8.88,15.98,.85,17.1-8.87l-2.7-4.45c-6.08-3.06-15.75-9.73-19.35,.54,3.37,5.57,3.6,10.57,4.72,14.72-2.7,2.5-3.15,6.38-6.53,7.78-4.95,1.09-10.36-.85-10.36-7.8,2.71-2.49,5.63,.01,8.11-.55,.91-7.78-7.87-8.34-10.8-10.84,5.17,17.77-8.56,25.27,5.39,36.67l-7.66,3.61c-5.86,15.82,24.75,15.29,11.46,32.77-1.35,4.74,.45,10.01-4.06,14.17,2.47,6.4,7.43,5.29,9.45,1.68,3.38,12.49,19.12,1.4,19.58,18.33,12.84-13.59,18.9,10.29,30.6,13.35,14.85,3.62,5.18-9.99,9.46-19.15,7.43,5.27,14.86-3.33,19.37-7.48,4.05-.27,6.52,6.11,3.82,8.6,30.38,15.3,61.21,19.77,91.59,21.18,12.37,11.12,23.86-4.71,36,15.31l-2.02-3.35c-.29-1.98,1.27-2.79,2.49-3.64-2.01-3.64-3.95-7.31-5.81-11.02,3.61,1.45,7.25,2.59,10.83,2.35,3.98-13.43,20.54,.21,25.62-13.43,19.95,4.55,11.58,10.4,31.71,16.32,10.76-4.91,23.57-11.62,36.33-9.9,4.62,.51,8.84,6.72,8.08,9.69,5.55-1.1,13.51-1.24,19.25-.95,24.51-13.22-3.16-24.69-12.41-25.7Z"/><path class="cls-2" d="M155.14,14.16c.9-7.78-5.17-10.82-7.2-14.16l-2.7,2.51c-6.75,2.76-6.98,11.65-2.7,16.37,1.57-6.66,8.77-6.38,12.6-4.72Z"/><path class="cls-2" d="M209.61,8.93l-.9,7.78,8.33-2.48c-.22-5.01-4.27-4.73-7.43-5.29Z"/><path class="cls-2" d="M34.7,68.24c7.88,1.39,11.03,8.9,19.36,6.41l-1.57-14.18c-8.1-6.38-16.64-15.83-26.32-15.57-6.53,14.73,11.69,10.01,8.54,23.34Z"/><path class="cls-2" d="M51.79,94.09c-14.41,13.32-31.28-7.54-43.44,14.12,3.36,33.33,24.32-1.64,33.53,8.91,6.09-3.88,9.69-7.22,17.34-10.81,5.63-6.94-3.6-10.57-7.43-12.22Z"/><path class="cls-2" d="M4.53,92.65c-1.57-.27-3.38,1.39-4.28,2.23-1.12,2.76,1.81,5.28,3.15,7.5,1.57,.28,5.63-6.94,1.13-9.73Z"/></g></g><text class="cls-6" transform="translate(77.43 105.46)"><tspan class="cls-1" x="0" y="0">W</tspan><tspan x="49.82" y="0">e</tspan><tspan class="cls-5" x="67.97" y="0">b</tspan><tspan x="86.62" y="0">site </tspan><tspan class="cls-3" x="152.21" y="0">F</tspan><tspan x="180.43" y="0">eatur</tspan><tspan class="cls-4" x="271.44" y="0">e</tspan><tspan x="287.92" y="0">s</tspan></text></g></svg>