<?xml version="1.0" encoding="UTF-8"?><svg id="Layer_2" xmlns="http://www.w3.org/2000/svg" xmlns:xlink="http://www.w3.org/1999/xlink" viewBox="0 0 1273.01 364.84"><defs><style>.cls-1{fill:url(#linear-gradient-2);}.cls-2{fill:#333;}.cls-3{fill:url(#linear-gradient);}</style><linearGradient id="linear-gradient" x1="-.42" y1="167.61" x2="357.55" y2="167.61" gradientTransform="translate(66.99 -40.79) rotate(17.79)" gradientUnits="userSpaceOnUse"><stop offset=".01" stop-color="#9800bf"/><stop offset="1" stop-color="#7f0058"/></linearGradient><linearGradient id="linear-gradient-2" x1="109.51" y1="81.64" x2="148.51" y2="81.64" gradientTransform="translate(66.99 -40.79) rotate(17.79)" gradientUnits="userSpaceOnUse"><stop offset=".01" stop-color="#9800bf"/><stop offset="1" stop-color="#7f0058"/></linearGradient></defs><g id="Layer_1-2"><path class="cls-3" d="M60.01,30.1c6.7-4.28,17.42-10.55,31.44-16.17,16.56-6.64,66.22-22.34,113.44-8.24,29.9,8.92,32.24,20.66,74.38,33.31,19.29,5.79,19.76,2.84,41.21,9.02,5.13,1.48,72.22,21.2,70.34,39.37-.08,.82-.3,1.53-2.78,5.41-9.67,15.08-16.78,20.42-22.76,28.4-2.3,3.07-11.15,15.81-12.6,32.72-.63,7.34,.65,9.68,2.14,21.16,.3,2.36,3.17,25.32,.84,46.48-2.16,19.67-8.44,33.95-11.86,41.88-5.54,12.87-15.91,36.21-39.79,56.2-4.49,3.76-17.19,13.87-35,21-42.1,16.85-92.74,10.07-130-13-17.69-10.95-47.47-28.69-57-61-3.32-11.25-3.98-36.13-17-44-6.72-4.06-13-5-13-5-8.81-1.31-15.2,1.68-16,0-1.14-2.39,12.19-7.46,11.82-14.5-.31-5.99-10.5-10.2-17.82-16.5-.56-.48-3.22-2.49-6.6-5.02,0,0,0,0,0,0-2.9-2.06-5.19-3.5-6.39-4.25C4.05,169.25-.25,167.79,.01,166.64c.54-2.42,21.11-3.38,41.87,4.33,6.72,2.5,24.4,9.93,44.66,31.56,17.83,19.04,21.37,32.72,30.47,45.11,30.28,41.25,101.2,69.4,150,44,28.94-15.07,40.74-45.28,43.93-53.44,13.43-34.39,4.91-64.98-.66-86.33-10.61-40.63-35.77-76.91-42.27-74.47-1.31,.49-1.33,2.36-2.44,7.62,0,0-2.49,11.74-10.73,30.17-9.72,21.74-35.42,34.36-37.59,32.05-1.31-1.4,6.25-7.99,12.74-20.07,3.11-5.79,16.66-31.38,9.52-52.61-8.47-25.21-42.35-32.88-57.65-36.35-33.68-7.63-78.08-2.47-83.94,16.13-1.07,3.39-.58,6.36,.11,9.49,7.65,34.67,31.82,59.3,33.9,61.28,13.48,12.85,26.72,19.86,53.2,33.87,21.11,11.17,24.69,11.25,43.26,22.28,32.59,19.34,39.06,29.85,42.17,37.16,5.66,13.27,4.26,25.45,3.81,29.05-2.29,18.06-13.11,32.67-15.45,31.8-1.23-.46,.37-5.45,1.35-20.57,.85-13.18,.81-15.63,.43-17.71-1.68-9.29-6.61-15.64-8.43-17.93-3.65-4.59-8.42-8.67-23.27-15.87-15.67-7.6-27.33-11.39-27.33-11.39-22.62-7.46-47.6-16.19-53.02-18.06-45.41-15.66-71.29-59.99-72.49-62.11-19.66-34.67-18.03-69.53-16.15-85.52Z"/><circle class="cls-1" cx="164.9" cy="76.35" r="19.5"/><g><path class="cls-2" d="M560.31,116.14c2.4,2.2,4.9,5.1,7.5,8.7,2.6,3.6,3.9,7.3,3.9,11.1,0,2.8-.8,5-2.4,6.6-15.4,17.6-30.75,35.05-46.05,52.35-15.3,17.3-31.75,33.65-49.35,49.05,4.8,2.4,9.65,5,14.55,7.8,4.9,2.8,10.35,5.8,16.35,9,6,3.2,12.85,6.75,20.55,10.65,7.7,3.9,16.65,8.15,26.85,12.75,1,0,2.3-.3,3.9-.9,1.6-.6,3.2-.9,4.8-.9,1.2,0,2.3,.3,3.3,.9,1,.6,1.5,1.7,1.5,3.3,0,2.8-1.15,5.65-3.45,8.55-2.3,2.9-5.2,5.55-8.7,7.95-3.5,2.4-7.3,4.35-11.4,5.85-4.1,1.5-7.85,2.25-11.25,2.25-4.2,0-8.5-1.1-12.9-3.3-4.4-2.2-8.8-4.95-13.2-8.25-4.4-3.3-8.7-6.85-12.9-10.65-4.2-3.8-8-7.4-11.4-10.8l-3.3-3c-3.2-3-6.35-6-9.45-9-3.1-3-6.35-5.9-9.75-8.7-2.8,2.2-6.15,4.75-10.05,7.65-3.9,2.9-7.95,5.65-12.15,8.25-4.2,2.6-8.4,4.8-12.6,6.6-4.2,1.8-8,2.7-11.4,2.7-4.8,0-8.1-1.9-9.9-5.7-1.8-3.8-2.7-7.9-2.7-12.3,0-4,.5-8.1,1.5-12.3,1-4.2,2.6-8.05,4.8-11.55,2.2-3.5,5-6.4,8.4-8.7,3.4-2.3,7.5-3.45,12.3-3.45,3.2,0,6.4,.3,9.6,.9,3.2,.6,6.3,1.4,9.3,2.4,8-7.6,15.6-15.45,22.8-23.55,7.2-8.1,14.3-16.35,21.3-24.75,7-8.4,13.95-16.9,20.85-25.5,6.9-8.6,14.05-17.1,21.45-25.5-5.6,.8-11.1,1.9-16.5,3.3-5.4,1.4-10.8,2.8-16.2,4.2-5.4,1.4-10.8,2.6-16.2,3.6-5.4,1-10.9,1.5-16.5,1.5-11.4,0-20.1-3.1-26.1-9.3-6-6.2-9-14.8-9-25.8,0-1,.2-2.5,.6-4.5,.4-2,1.4-3,3-3,.4,0,.8,.1,1.2,.3,6.2,3.8,12.55,7.2,19.05,10.2,6.5,3,13.55,4.5,21.15,4.5,9.6,0,19.7-1.25,30.3-3.75,10.6-2.5,21.1-5.05,31.5-7.65,.4,0,.75-.05,1.05-.15,.3-.1,.65-.15,1.05-.15,3.4,0,7.05,1.15,10.95,3.45,3.9,2.3,7.05,4.55,9.45,6.75Zm-157.8,156.3c1.8,5,5.3,7.5,10.5,7.5,7.2,0,17.2-4.6,30-13.8-12.4,7.6-22.2,11.4-29.4,11.4-4.8,0-8.5-1.7-11.1-5.1Zm14.1-28.5c-.8,.6-1.7,1.6-2.7,3-1,1.4-1.5,2.7-1.5,3.9,0,1.6,.9,2.4,2.7,2.4,2.8,0,6.05-1.3,9.75-3.9,3.7-2.6,6.85-5.2,9.45-7.8-2.4-.6-4.8-.9-7.2-.9-1.8,0-3.6,.25-5.4,.75-1.8,.5-3.5,1.35-5.1,2.55Zm18-121.8c2.4,6.8,5.85,11.95,10.35,15.45,4.5,3.5,11.05,5.25,19.65,5.25,6.8,0,15.3-1.2,25.5-3.6-9,1.2-16.7,1.8-23.1,1.8-7.2,0-13.4-1.25-18.6-3.75-5.2-2.5-9.8-7.55-13.8-15.15Zm21.9,104.1c21.2-19.8,43.8-46.3,67.8-79.5-18.4,23.4-41,49.9-67.8,79.5Zm82.5,81.6c-15.2-.8-37.6-14.8-67.2-42,27.8,28.2,48.9,42.3,63.3,42.3h1.95c.7,0,1.35-.1,1.95-.3Z"/><path class="cls-2" d="M626.61,213.34c4.8-4,8-6,9.6-6,.6,0,.9,.4,.9,1.2,0,1.8-1.1,4.7-3.3,8.7l-3.6,6.3c-3.2,5.8-6.55,11.7-10.05,17.7-3.5,6-7.35,11.45-11.55,16.35-4.2,4.9-8.8,8.9-13.8,12-5,3.1-10.6,4.65-16.8,4.65-4.8,0-9.25-.8-13.35-2.4-4.1-1.6-7.65-3.7-10.65-6.3-3-2.6-5.35-5.55-7.05-8.85-1.7-3.3-2.55-6.75-2.55-10.35,0-7.2,1.6-15.25,4.8-24.15,3.2-8.9,7.4-17.25,12.6-25.05,5.2-7.8,11.05-14.35,17.55-19.65,6.5-5.3,12.95-7.95,19.35-7.95,5.68,0,10.5,1.9,14.46,5.7,3.96,3.8,5.94,8.2,5.94,13.2s-1.46,10.25-4.38,15.75c-2.92,5.5-6.59,10.55-11.02,15.15-4.43,4.6-9.26,8.4-14.49,11.4-5.23,3-10.06,4.5-14.49,4.5-1.81,0-3.42-.3-4.83-.9-.4,1.4-.7,2.8-.9,4.2-.2,1.4-.3,2.8-.3,4.2,0,4,1,7.45,3,10.35,2,2.9,5.7,4.35,11.1,4.35,4.8,0,9.4-1.95,13.8-5.85,4.4-3.9,8.5-8.4,12.3-13.5,3.8-5.1,7.2-10.05,10.2-14.85,3-4.8,5.5-8.1,7.5-9.9Zm-66.46-4.5c.8-1.4,2.2-3.45,4.2-6.15,2-2.7,4-5.4,6-8.1,2-2.7,3.75-5.1,5.25-7.2s2.25-3.35,2.25-3.75c-7.4,6.6-12.85,13.15-16.35,19.65-3.5,6.5-5.25,11.05-5.25,13.65,.4,0,.9-1.1,1.5-3.3,.6-2.2,1.4-3.8,2.4-4.8Zm8.56-.9c.2,0,1.25-1.15,3.15-3.45,1.9-2.3,3.9-4.9,6-7.8,2.1-2.9,4.85-6.85,8.25-11.85-.2,0-1.2,.9-3,2.7-1.8,1.8-3.75,3.95-5.85,6.45-2.1,2.5-4.05,5.05-5.85,7.65-1.8,2.6-2.7,4.7-2.7,6.3Zm31.2-18c-.6-.6-1.2-.9-1.8-.9-2,0-4.45,1.75-7.35,5.25-2.9,3.5-5.7,7.5-8.4,12-2.7,4.5-5.05,8.8-7.05,12.9-2,4.1-3.1,6.75-3.3,7.95,.4,.2,1.1,.3,2.1,.3,3.6,0,7-1.45,10.2-4.35,3.2-2.9,6-6.25,8.4-10.05,2.4-3.8,4.3-7.65,5.7-11.55,1.4-3.9,2.1-6.95,2.1-9.15,0-.8-.2-1.6-.6-2.4Zm-16.65,37.2c9.52-4.6,15.77-13.7,18.75-27.3-3.77,11.6-10.02,20.7-18.75,27.3Z"/><path class="cls-2" d="M698.6,190.54c.2,1,.3,2,.3,3v3c0,7.2-1.15,14.7-3.45,22.5-2.3,7.8-5.15,15.15-8.55,22.05-3.4,6.9-7.05,12.9-10.95,18-3.9,5.1-7.35,8.55-10.35,10.35-3,1.6-6.2,2.4-9.6,2.4-3.6,0-6.95-.85-10.05-2.55-3.1-1.7-5.85-3.95-8.25-6.75,0,2.2,.25,4.4,.75,6.6,.5,2.2,.75,3.9,.75,5.1,0,2.4-.9,3.6-2.7,3.6-2,0-3.9-1.5-5.7-4.5-4-1.4-6.8-4.4-8.4-9-1.6-4.6-2.4-10.2-2.4-16.8,0-8.2,.9-17.15,2.7-26.85,1.8-9.7,4.15-19.5,7.05-29.4,2.9-9.9,6.1-19.5,9.6-28.8,3.5-9.3,6.9-17.55,10.2-24.75s6.3-12.95,9-17.25c2.7-4.3,4.75-6.45,6.15-6.45s2.8,.65,4.2,1.95c1.4,1.3,2.65,2.95,3.75,4.95,1.1,2,2,4.15,2.7,6.45,.7,2.3,1.05,4.45,1.05,6.45,0,1.2-.2,2.4-.6,3.6l-20.1,49.5c4-4.2,8.2-7.85,12.6-10.95,4.4-3.1,8.8-4.65,13.2-4.65,2.4,0,4.65,.75,6.75,2.25s3.9,3.3,5.4,5.4c1.5,2.1,2.65,4.2,3.45,6.3,.8,2.1,1.3,3.85,1.5,5.25Zm-69.6,17.1c3.2-8.8,6.6-18.6,10.2-29.4,3.6-10.8,7.5-22.6,11.7-35.4-5.6,12.8-10.2,24.6-13.8,35.4-3.6,10.8-6.3,20.6-8.1,29.4Zm19.5,47.7c1.2,0,2.8-1.4,4.8-4.2,2-2.8,4.15-6.4,6.45-10.8,2.3-4.4,4.6-9.25,6.9-14.55,2.3-5.3,4.4-10.5,6.3-15.6,1.9-5.1,3.45-9.75,4.65-13.95,1.2-4.2,1.8-7.3,1.8-9.3,0-1.2-.3-2-.9-2.4-.4,0-1.6,.8-3.6,2.4-2,1.6-4.45,3.8-7.35,6.6-2.9,2.8-6,6.1-9.3,9.9-3.3,3.8-6.35,7.8-9.15,12-2.8,4.2-5.1,8.45-6.9,12.75-1.8,4.3-2.7,8.35-2.7,12.15,0,3,.7,5.8,2.1,8.4,1.4,2.6,3.7,4.8,6.9,6.6Zm16.2-66.9c-2.2,1.4-4.5,3.2-6.9,5.4-2.4,2.2-4.55,4.45-6.45,6.75-1.9,2.3-3.5,4.5-4.8,6.6-1.3,2.1-1.95,3.65-1.95,4.65,1.8-2.8,4.5-6.4,8.1-10.8,3.6-4.4,7.6-8.6,12-12.6Zm23.1,33.3c4.6-9.2,6.9-17.4,6.9-24.6,0-4.2-.7-8-2.1-11.4,.2,1.2,.3,2.45,.3,3.75v3.75c0,9.6-1.7,19.1-5.1,28.5Z"/><path class="cls-2" d="M779,174.34c2,2,3,4,3,6,0,2.2-.75,4.65-2.25,7.35-1.5,2.7-3.15,5.8-4.95,9.3-1.8,3.5-3.45,7.5-4.95,12s-2.25,9.75-2.25,15.75c0,1.2,.05,2.4,.15,3.6,.1,1.2,.25,2.5,.45,3.9,0,2.8-1.4,4.2-4.2,4.2-4.4,0-7.7-2.45-9.9-7.35-2.2-4.9-3.3-11.85-3.3-20.85v-3.15c0-1.1,.1-2.25,.3-3.45-7,11.6-13.4,23.2-19.2,34.8-5.8,11.6-9.8,22.8-12,33.6-.6,2.6-2.2,3.9-4.8,3.9-6.2,0-10.5-2.3-12.9-6.9-2.4-4.6-3.6-10.5-3.6-17.7s.9-15.15,2.7-23.85c1.8-8.7,3.9-16.95,6.3-24.75,2.4-7.8,4.75-14.5,7.05-20.1,2.3-5.6,3.95-9,4.95-10.2,.8-1.2,2.6-1.8,5.4-1.8,1.8,0,3.65,.3,5.55,.9,1.9,.6,3.7,1.4,5.4,2.4,1.7,1,3.1,2.15,4.2,3.45,1.1,1.3,1.65,2.75,1.65,4.35,0,1-.1,1.7-.3,2.1-2.8,7-6.1,15.1-9.9,24.3-3.8,9.2-6.5,18.3-8.1,27.3,.6-2.2,1.75-5.25,3.45-9.15,1.7-3.9,3.75-8.2,6.15-12.9,2.4-4.7,5.1-9.4,8.1-14.1,3-4.7,6.15-9,9.45-12.9s6.65-7.1,10.05-9.6c3.4-2.5,6.8-3.75,10.2-3.75,3,0,5.7,1.1,8.1,3.3Zm-68.7,41.1c2.4-13,7.1-26,14.1-39-9,12.4-13.7,25.4-14.1,39Zm45-15c-1.2,3.4-1.8,6.6-1.8,9.6,0,3.6,1,7.2,3,10.8-.6-2.8-.95-5.9-1.05-9.3-.1-3.4-.15-7.1-.15-11.1Z"/><path class="cls-2" d="M875.6,213.34c2-1.8,3.85-3.3,5.55-4.5,1.7-1.2,3.05-1.8,4.05-1.8s1.5,.5,1.5,1.5c0,.4-.65,2-1.95,4.8-1.3,2.8-2.95,6.3-4.95,10.5-2,4.2-4.35,8.8-7.05,13.8-2.7,5-5.4,9.85-8.1,14.55-2.7,4.7-5.4,8.9-8.1,12.6-2.7,3.7-5.15,6.45-7.35,8.25-1.4,1-2.8,1.7-4.2,2.1-1.4,.4-2.7,.6-3.9,.6-1.8,0-3.6-.3-5.4-.9l-1.2-.6c-4-1.2-7.1-3.45-9.3-6.75-2.2-3.3-3.7-7.25-4.5-11.85-3.6,4.2-7.9,8.35-12.9,12.45-5,4.1-10.2,6.45-15.6,7.05-3.8,0-7-1-9.6-3-2.6-2-4.75-4.45-6.45-7.35-1.7-2.9-2.9-5.95-3.6-9.15-.7-3.2-1.05-5.9-1.05-8.1,0-8.6,1.35-17.55,4.05-26.85,2.7-9.3,6.3-17.8,10.8-25.5,4.5-7.7,9.65-14.05,15.45-19.05,5.8-5,11.7-7.5,17.7-7.5,2.6,0,5.3,.5,8.1,1.5,2.8,1,5.35,2.5,7.65,4.5,2.3,2,4.3,4.5,6,7.5,1.7,3,2.85,6.5,3.45,10.5,2.8,1,5.75,2.85,8.85,5.55,3.1,2.7,4.65,5.65,4.65,8.85,0,.8-.2,1.8-.6,3-4,7.8-7.35,16.1-10.05,24.9-2.7,8.8-4.05,17-4.05,24.6,3.2-2.8,6.25-6.3,9.15-10.5,2.9-4.2,5.6-8.55,8.1-13.05,2.5-4.5,5-8.8,7.5-12.9,2.5-4.1,4.95-7.35,7.35-9.75Zm-84-10.8c.8-1.4,1.95-3.35,3.45-5.85,1.5-2.5,3.05-4.95,4.65-7.35,1.6-2.4,3.05-4.5,4.35-6.3,1.3-1.8,2.15-2.7,2.55-2.7-1.6,1.6-3.45,3.45-5.55,5.55-2.1,2.1-4.05,4.4-5.85,6.9-1.8,2.5-3.35,5.2-4.65,8.1-1.3,2.9-2.05,5.85-2.25,8.85,.2-.2,.7-1.25,1.5-3.15,.8-1.9,1.4-3.25,1.8-4.05Zm31.5,15.6c.6-1.4,1.15-3.2,1.65-5.4,.5-2.2,1-4.55,1.5-7.05,.5-2.5,.85-4.95,1.05-7.35,.2-2.4,.3-4.5,.3-6.3,0-2.8-.6-4.2-1.8-4.2-1.6,0-3.5,1.45-5.7,4.35-2.2,2.9-4.5,6.6-6.9,11.1-2.4,4.5-4.8,9.5-7.2,15-2.4,5.5-4.55,10.8-6.45,15.9-1.9,5.1-3.45,9.75-4.65,13.95-1.2,4.2-1.8,7.3-1.8,9.3,0,1.4,.3,2.1,.9,2.1,.8,0,2.95-1.55,6.45-4.65,3.5-3.1,7.1-6.7,10.8-10.8,3.7-4.1,7.05-8.05,10.05-11.85,3-3.8,4.5-6.3,4.5-7.5-.6-.4-1.3-1.05-2.1-1.95-.8-.9-1.2-1.85-1.2-2.85,0-.4,.2-1,.6-1.8Zm-12-33.6c-.4,0-1.8,1.1-4.2,3.3-2.4,2.2-4.4,4.3-6,6.3,0,.2-.35,.8-1.05,1.8-.7,1-1.4,2.1-2.1,3.3-.7,1.2-1.35,2.3-1.95,3.3-.6,1-.8,1.5-.6,1.5-.6,0,.75-1.75,4.05-5.25,3.3-3.5,6.85-7.85,10.65-13.05l1.2-1.2Zm29.4,42c1.2-4,2.25-7.7,3.15-11.1,.9-3.4,1.35-5.7,1.35-6.9,0-.2,.05-.3,.15-.3,.1,0,.15-.1,.15-.3v-.3c-.2,0-.55,.25-1.05,.75-.5,.5-.95,1.55-1.35,3.15-1.8,7.2-3.4,13.7-4.8,19.5-1.2,5-2.3,9.55-3.3,13.65-1,4.1-1.4,6.35-1.2,6.75,.6-2.6,1.65-6.35,3.15-11.25,1.5-4.9,2.75-9.45,3.75-13.65Z"/><path class="cls-2" d="M934.7,213.04c2-1.8,3.85-3.4,5.55-4.8,1.7-1.4,3.05-2.1,4.05-2.1,.8,0,1.2,.5,1.2,1.5,0,1.4-.7,3.5-2.1,6.3-4,8.4-8.1,15.5-12.3,21.3-4.2,5.8-9.3,10.5-15.3,14.1,.8,4,1.2,8.5,1.2,13.5,0,9.4-1.55,18.5-4.65,27.3-3.1,8.8-6.9,16.6-11.4,23.4-4.5,6.8-9.4,12.2-14.7,16.2-5.3,4-10.05,6-14.25,6-5.6,0-9.6-2.9-12-8.7-2.4-5.8-3.6-12.9-3.6-21.3,0-7.6,.8-16.15,2.4-25.65,1.6-9.5,3.65-19.35,6.15-29.55,2.5-10.2,5.3-20.5,8.4-30.9,3.1-10.4,6.25-20.2,9.45-29.4,3.2-9.2,6.3-17.65,9.3-25.35,3-7.7,5.6-13.95,7.8-18.75,.4-1,1.2-1.5,2.4-1.5,1.4,0,3.15,.65,5.25,1.95,2.1,1.3,4.1,2.95,6,4.95,1.9,2,3.5,4.2,4.8,6.6,1.3,2.4,1.95,4.7,1.95,6.9,0,1.4-.3,2.7-.9,3.9-1.8,3.6-3.65,7.4-5.55,11.4-1.9,4-3.75,8.1-5.55,12.3-1.8,4.2-3.45,8.35-4.95,12.45-1.5,4.1-2.85,7.95-4.05,11.55,3.4,3.4,6.15,7.1,8.25,11.1,2.1,4,3.95,7.9,5.55,11.7,2.2-1.6,4.1-3.4,5.7-5.4,1.6-2,3.2-4.1,4.8-6.3,1.6-2.2,3.25-4.55,4.95-7.05,1.7-2.5,3.75-5.05,6.15-7.65Zm-57.3,94.5c.2,.8,.8,1.2,1.8,1.2,1.6,0,3.75-1.5,6.45-4.5s5.3-7,7.8-12c2.5-5,4.65-10.8,6.45-17.4s2.7-13.6,2.7-21c-.4,0-.8,.05-1.2,.15-.4,.1-.8,.15-1.2,.15-4,0-7.6-1.3-10.8-3.9-4,14.4-7.15,25.7-9.45,33.9-2.3,8.2-3.45,14.4-3.45,18.6,0,2,.3,3.6,.9,4.8Zm24.9-150c-6.6,12.6-11.75,24.2-15.45,34.8-3.7,10.6-5.75,20.4-6.15,29.4,2.4-11.2,5.45-22.1,9.15-32.7,3.7-10.6,7.85-21.1,12.45-31.5Zm3.9,133.2c-.2,0-.65,1-1.35,3-.7,2-1.35,3.7-1.95,5.1-1,2.2-2.55,4.8-4.65,7.8-2.1,3-4.15,5.85-6.15,8.55-2,2.7-3.75,4.95-5.25,6.75-1.5,1.8-2.25,2.5-2.25,2.1,6-4.6,10.7-9.5,14.1-14.7,3.4-5.2,5.9-10.4,7.5-15.6v-3Zm-4.5-47.1c-1-6-2.9-11.7-5.7-17.1l-3,11.1c2,4,4.9,6,8.7,6Z"/><path class="cls-2" d="M982.09,213.34c2-1.6,3.85-3.05,5.55-4.35,1.7-1.3,3.05-1.95,4.05-1.95s1.5,.5,1.5,1.5c0,.8-.8,3-2.4,6.6-1.6,3.6-3.7,7.8-6.3,12.6-2.6,4.8-5.6,9.9-9,15.3-3.4,5.4-6.95,10.4-10.65,15-3.7,4.6-7.35,8.4-10.95,11.4-3.6,3-6.9,4.5-9.9,4.5-6.8,0-11.65-2.5-14.55-7.5-2.9-5-4.35-10.7-4.35-17.1,0-10.2,2.35-22.05,7.05-35.55,4.7-13.5,10.25-27.35,16.65-41.55,.6-1.6,2.3-2.4,5.1-2.4,1.8,0,3.7,.35,5.7,1.05,2,.7,3.85,1.65,5.55,2.85,1.7,1.2,3.15,2.7,4.35,4.5,1.2,1.8,1.8,3.7,1.8,5.7s-.5,3.9-1.5,5.7c-7,12.8-12.8,25.45-17.4,37.95-4.6,12.5-6.9,23.25-6.9,32.25,3.8-2.4,7.35-5.65,10.65-9.75,3.3-4.1,6.45-8.45,9.45-13.05,3-4.6,5.85-9.05,8.55-13.35,2.7-4.3,5.35-7.75,7.95-10.35Zm-38.7,34.8c.2-2.2,1.1-5.8,2.7-10.8,1.6-5,3.3-10,5.1-15,1.8-5,3.45-9.4,4.95-13.2,1.5-3.8,2.35-5.6,2.55-5.4-1.2,0-2.7,1.85-4.5,5.55-1.8,3.7-3.6,8.05-5.4,13.05-1.8,5-3.35,10.05-4.65,15.15-1.3,5.1-1.95,8.95-1.95,11.55,0,2,.1,3,.3,3s.5-1.3,.9-3.9Zm32.1-84.6c-.6,.6-1.4,.9-2.4,.9s-2.25-.3-3.75-.9c-1.5-.6-2.9-1.35-4.2-2.25-1.3-.9-2.4-1.95-3.3-3.15-.9-1.2-1.35-2.4-1.35-3.6s.45-3.4,1.35-6.6c.9-3.2,2.05-6.45,3.45-9.75,1.4-3.3,2.95-6.2,4.65-8.7,1.7-2.5,3.25-3.75,4.65-3.75s3.15,.45,5.25,1.35,4.15,2,6.15,3.3c2,1.3,3.7,2.65,5.1,4.05,1.4,1.4,2.1,2.6,2.1,3.6,0,.4-.1,.7-.3,.9-3.2,3.6-5.95,7.15-8.25,10.65-2.3,3.5-5.35,8.15-9.15,13.95Zm-10.2-14.7c0,.2-.05,.4-.15,.6-.1,.2-.15,.5-.15,.9,1,0,1.7-.75,2.1-2.25,.4-1.5,.6-2.15,.6-1.95,.2,0,.7-.7,1.5-2.1,.8-1.4,1.6-2.95,2.4-4.65,.8-1.7,1.5-3.3,2.1-4.8,.6-1.5,.9-2.45,.9-2.85-.4,0-1.1,.8-2.1,2.4-1,1.6-2.05,3.45-3.15,5.55-1.1,2.1-2.05,4.05-2.85,5.85-.8,1.8-1.2,2.9-1.2,3.3Z"/><path class="cls-2" d="M1032.79,166.54c0,2.6-1.3,5.7-3.9,9.3,.2,.6,.3,1.5,.3,2.7,0,2.6-.95,5.2-2.85,7.8-1.9,2.6-4.15,5.05-6.75,7.35-2.6,2.3-5.3,4.45-8.1,6.45-2.8,2-5,3.7-6.6,5.1-.6,3-.9,6-.9,9,0,4.2,.4,8.6,1.2,13.2,.8,4.6,1.8,9.15,3,13.65s2.45,8.85,3.75,13.05c1.3,4.2,2.45,8.1,3.45,11.7,.2,.8,.3,1.9,.3,3.3,0,3.4-1.65,5.8-4.95,7.2-3.3,1.4-7.15,2.1-11.55,2.1-4,0-7.85-.45-11.55-1.35-3.7-.9-6.55-1.95-8.55-3.15-2-1.2-4.05-2.85-6.15-4.95s-4-4.35-5.7-6.75c-1.7-2.4-3.1-4.75-4.2-7.05-1.1-2.3-1.65-4.35-1.65-6.15,0-2.4,.45-4.75,1.35-7.05,.9-2.3,2.45-3.65,4.65-4.05l.9,.3c1.6,1.2,3.2,2.7,4.8,4.5,1.6,1.8,3.3,3.65,5.1,5.55,1.8,1.9,3.6,3.7,5.4,5.4,1.8,1.7,3.7,3.15,5.7,4.35-2.8-6-5.15-13.4-7.05-22.2-1.9-8.8-2.85-17.1-2.85-24.9,0-6.2,.7-11.3,2.1-15.3,1.6-4.2,4.35-8.45,8.25-12.75,3.9-4.3,8.05-8.15,12.45-11.55,4.4-3.4,8.7-6.2,12.9-8.4,4.2-2.2,7.4-3.3,9.6-3.3,.2,0,.7,.2,1.5,.6,.8,0,1.2,.3,1.2,.9,0,.4-.1,.8-.3,1.2l1.5-.9,1.2,.3c.4,.4,.95,1.2,1.65,2.4,.7,1.2,1.15,2,1.35,2.4Zm-45.9,27c7-8.8,16.2-17.6,27.6-26.4-6.4,3.4-11.9,7.35-16.5,11.85-4.6,4.5-8.3,9.35-11.1,14.55Zm6-2.4c2-2.4,4.2-4.8,6.6-7.2s5.2-4.8,8.4-7.2c-7,4-12,8.8-15,14.4Zm15.9,66.3c-5-13-7.9-26.6-8.7-40.8,0,1-.05,1.95-.15,2.85-.1,.9-.15,1.85-.15,2.85,0,13,3,24.7,9,35.1Z"/><path class="cls-2" d="M1119.79,213.34c1.8-1.8,3.6-3.3,5.4-4.5s3.2-1.8,4.2-1.8,1.5,.5,1.5,1.5-.8,3.2-2.4,6.6c-1.6,3.4-3.7,7.4-6.3,12-2.6,4.6-5.5,9.45-8.7,14.55-3.2,5.1-6.45,9.85-9.75,14.25-3.3,4.4-6.4,8.2-9.3,11.4-2.9,3.2-5.25,5-7.05,5.4-1,.4-1.9,.6-2.7,.6h-2.7c-4.4,0-7.9-.95-10.5-2.85-2.6-1.9-4.6-4.45-6-7.65l-.3-1.2c-1.2-3.2-1.8-7-1.8-11.4,0-5,.65-10.35,1.95-16.05,1.3-5.7,2.75-11.15,4.35-16.35,1.6-5.2,3.25-9.9,4.95-14.1,1.7-4.2,3.05-7.3,4.05-9.3,.2-.4,.3-.7,.3-.9s.1-.4,.3-.6c-1,.8-3,3.1-6,6.9-3,3.8-6.4,8.6-10.2,14.4-3.8,5.8-7.8,12.35-12,19.65-4.2,7.3-8.1,14.75-11.7,22.35,0,3.2,.3,6.45,.9,9.75,.6,3.3,.9,5.75,.9,7.35,0,2.4-1,3.6-3,3.6s-3.8-1.4-5.4-4.2c-4-1.4-6.8-4.4-8.4-9-1.6-4.6-2.4-10.3-2.4-17.1,0-8.2,.9-17.15,2.7-26.85,1.8-9.7,4.15-19.5,7.05-29.4,2.9-9.9,6.1-19.5,9.6-28.8,3.5-9.3,6.9-17.55,10.2-24.75,3.3-7.2,6.3-12.95,9-17.25,2.7-4.3,4.75-6.45,6.15-6.45,1.2,0,2.5,.7,3.9,2.1,1.4,1.4,2.7,3.1,3.9,5.1,1.2,2,2.15,4.15,2.85,6.45,.7,2.3,1.05,4.45,1.05,6.45,0,1.2-.2,2.4-.6,3.6-6,14.6-11.75,28.7-17.25,42.3-5.5,13.6-10.15,26.5-13.95,38.7,3.4-5.6,7-11.15,10.8-16.65,3.8-5.5,7.65-10.4,11.55-14.7,3.9-4.3,7.8-7.75,11.7-10.35,3.9-2.6,7.55-3.9,10.95-3.9,4.4,0,8.25,1.45,11.55,4.35,3.3,2.9,4.95,6.35,4.95,10.35,0,2-1.15,5.85-3.45,11.55-2.3,5.7-4.85,12.1-7.65,19.2-2.8,7.1-5.4,14.3-7.8,21.6-2.4,7.3-3.7,13.65-3.9,19.05,3.6-2.6,6.95-5.95,10.05-10.05,3.1-4.1,6.05-8.35,8.85-12.75,2.8-4.4,5.5-8.6,8.1-12.6,2.6-4,5.1-7.2,7.5-9.6Zm-92.4,10.8c2.8-10.8,6.3-22.7,10.5-35.7,4.2-13,8.7-27.6,13.5-43.8-5.8,14.6-10.8,28.7-15,42.3-4.2,13.6-7.2,26-9,37.2Zm48.3-9.6c0-.2,.05-.4,.15-.6,.1-.2,.15-.4,.15-.6s.1-.3,.3-.3c-.8,0-1.75,1.3-2.85,3.9-1.1,2.6-2.1,5.65-3,9.15-.9,3.5-1.65,6.95-2.25,10.35-.6,3.4-.9,5.8-.9,7.2,0,1.8,.15,3.6,.45,5.4,.3,1.8,.55,2.7,.75,2.7s.3-1.2,.3-3.6c0-.4-.05-.75-.15-1.05-.1-.3-.15-.65-.15-1.05,0-1.8,.25-4.1,.75-6.9,.5-2.8,1.1-5.7,1.8-8.7,.7-3,1.5-5.9,2.4-8.7,.9-2.8,1.65-5.2,2.25-7.2Z"/></g></g></svg>