<?xml version="1.0" encoding="UTF-8"?><svg id="Layer_2" xmlns="http://www.w3.org/2000/svg" xmlns:xlink="http://www.w3.org/1999/xlink" viewBox="0 0 328.93 120.82"><defs><style>.cls-1{fill:url(#linear-gradient-2);}.cls-2{letter-spacing:-.02em;}.cls-3{fill:#333;font-family:OraqleScript, 'Oraqle Script';font-size:72px;}.cls-4{letter-spacing:0em;}.cls-5{letter-spacing:-.06em;}.cls-6{fill:url(#linear-gradient);}</style><linearGradient id="linear-gradient" x1="77.28" y1="114.05" x2="77.28" y2="-12.04" gradientTransform="translate(9.38 -20.62) rotate(24.38)" gradientUnits="userSpaceOnUse"><stop offset=".03" stop-color="#15fbff" stop-opacity=".2"/><stop offset=".07" stop-color="#15fbff" stop-opacity=".2"/><stop offset=".33" stop-color="#15fbff" stop-opacity=".2"/></linearGradient><linearGradient id="linear-gradient-2" x1="59.46" y1="28.28" x2="59.46" y2="16.07" gradientTransform="translate(88.46 -29.41) rotate(102.03)" xlink:href="#linear-gradient"/></defs><g id="Layer_1-2"><g id="Layer_1-2"><g id="Layer_1-2-2"><path class="cls-6" d="M21.94,12.99c1.9-1.55,4.96-3.85,9.01-6.05,4.8-2.59,19.29-9.08,33.82-6.22,9.2,1.81,10.21,5.39,23.16,7.96,5.93,1.18,6,.25,12.59,1.48,1.57,.3,22.21,4.26,22.11,9.99,0,.26-.05,.49-.7,1.77-2.51,5.01-4.51,6.9-6.1,9.58-.61,1.03-2.94,5.28-2.93,10.59,0,2.31,.45,2.98,1.18,6.52,.15,.72,1.6,7.77,1.45,14.44-.13,5.69-1.4,9.94-2.48,13.42-1.05,3.44-4.67,14.95-14.12,25.15-17.54,18.92-40.76,19.23-42.65,19.22-1.87,0-27.06-.52-43.08-21C-4.63,76.99,.18,43.74,1.9,43.42c.42-.07,.62,1.78,2.92,7.7,4.81,12.32,11.93,24.69,13.84,23.89,.45-.18,.34-1,.54-2.45,1.21-8.42,10.45-15.59,12.36-14.3,.7,.47,.4,2.08,.27,2.95-1.56,10.82,7.04,22.96,7.92,24.2,6.55,9.24,18.73,14.67,30.81,13.81,10.91-.79,23.27-6.82,28.81-17.75,2.03-4,2.55-7.5,3.2-11.81,1.92-12.67-1.01-22.76-2.42-26.84-4.23-12.3-12.71-22.77-14.6-21.81-.38,.19-.34,.77-.54,2.45,0,0-.44,3.73-2.45,9.74-2.36,7.09-9.74,11.83-10.45,11.19-.43-.39,1.67-2.69,3.3-6.67,.78-1.91,4.19-10.32,1.5-16.69-3.19-7.57-13.55-8.86-18.23-9.45-10.29-1.29-23.48,1.76-24.76,7.73-.23,1.1,0,1.99,.27,2.95,3.2,10.55,11.06,17.42,11.75,17.97,4.38,3.57,8.53,5.32,16.82,8.83,6.62,2.8,7.69,2.71,13.55,5.53,10.27,4.97,12.48,8.03,13.61,10.2,2.04,3.96,1.93,7.78,1.89,8.91-.22,5.7-3.09,10.59-3.81,10.4-.38-.09-.03-1.71-.13-6.44-.08-4.12-.16-4.88-.34-5.53-.74-2.84-2.38-4.66-3-5.32-1.21-1.31-2.75-2.43-7.38-4.19-4.89-1.86-8.49-2.66-8.49-2.66-6.97-1.59-14.69-3.5-16.37-3.91-14.02-3.42-22.93-16.37-23.34-16.99-6.79-10.16-7.19-21.05-7.05-26.09v.02s.01,.01,.01,.01Z"/><ellipse class="cls-1" cx="54.39" cy="24.12" rx="6.12" ry="5.85" transform="translate(19.19 72.09) rotate(-77.65)"/></g></g><text class="cls-3" transform="translate(133.85 78.45)"><tspan class="cls-5" x="0" y="0">Z</tspan><tspan class="cls-4" x="34.85" y="0">e</tspan><tspan class="cls-2" x="52.99" y="0">b</tspan><tspan x="71.85" y="0">raf</tspan><tspan class="cls-2" x="126.21" y="0">i</tspan><tspan x="136.72" y="0">sh</tspan></text></g></svg>